# Blender v2.79 (sub 0) OBJ File: ''
# www.blender.org
mtllib rpgpp_lt_banner_01a.mtl
o rpgpp_lt_banner_01a_rpgpp_lt_banner_01a.001
v 0.043708 0.469861 -0.007145
v 0.043708 0.853263 -0.008950
v 0.043708 0.222130 -0.012976
v 0.043708 0.222130 0.011014
v 0.043708 0.469891 0.016835
v 0.195426 1.246224 -0.012983
v 0.195440 1.246229 0.011006
v 0.043708 0.857625 0.017444
v -0.119333 0.476394 -0.011737
v -0.117716 1.246200 0.011015
v -0.117716 1.246200 -0.012976
v -0.119588 0.475847 0.012302
v -0.221783 0.500071 -0.013885
v -0.206206 0.843453 0.018520
v -0.205872 0.841935 -0.005530
v -0.221537 0.500488 0.010310
v -0.344582 0.053494 0.011015
v 0.345375 0.058566 0.011015
v -0.344582 1.246200 0.011015
v 0.347999 1.246200 0.011015
v -0.177420 0.123951 0.011015
v -0.057251 0.004285 0.012459
v -0.344582 0.053494 -0.012976
v 0.345375 0.058566 -0.012976
v -0.344582 1.246200 -0.012976
v 0.347999 1.246200 -0.012976
v -0.177420 0.123951 -0.012976
v -0.057107 0.004424 -0.011642
v -0.345369 0.783302 0.011809
v -0.344582 0.477352 0.011015
v 0.351255 0.503685 0.011004
v 0.348338 0.806985 0.010967
v -0.345343 0.783126 -0.012233
v -0.344582 0.477344 -0.012975
v 0.351002 0.503629 -0.012984
v 0.348295 0.806973 -0.013017
v 0.128284 0.475632 0.013286
v 0.256702 0.804471 0.008329
v 0.105957 0.280796 0.011569
v 0.105628 0.281184 -0.012443
v 0.255366 0.804916 -0.015340
v 0.127698 0.476031 -0.010642
v 0.190747 -0.040570 0.011014
v 0.277727 0.136757 0.011015
v 0.190747 -0.040570 -0.012976
v 0.277727 0.136757 -0.012976
v 0.275785 0.509037 -0.013841
v 0.276661 0.509309 0.010108
v -0.004287 0.652945 -0.009301
v -0.046737 0.652945 0.014687
v -0.345034 0.652945 0.011471
v 0.043708 0.652945 0.017122
v 0.265853 0.652945 -0.014570
v -0.214722 0.652945 0.013960
v 0.349670 0.652945 -0.013000
v 0.266948 0.652945 0.009242
v 0.349819 0.652945 0.010986
v -0.214668 0.652945 -0.010149
v 0.043708 0.652945 -0.007428
v -0.345019 0.652945 -0.012549
v 0.043708 1.246212 -0.012979
v 0.043708 1.246215 0.011010
v -0.003855 0.706675 -0.009545
v -0.004287 0.706675 0.016045
v 0.262145 0.706675 -0.014843
v -0.212320 0.706675 0.015246
v 0.349190 0.706675 -0.013006
v 0.263315 0.706675 0.008918
v 0.043708 0.706675 -0.007836
v 0.043708 0.706675 0.017207
v 0.349303 0.706675 0.010979
v -0.212167 0.706675 -0.008836
v -0.345152 0.706676 -0.012419
v -0.345172 0.706675 0.011610
v -0.004287 0.471133 0.015890
v -0.004287 0.471213 -0.008095
v -0.004263 0.112014 -0.012462
v -0.004287 0.652945 0.016009
v -0.004287 0.851319 -0.008364
v -0.004287 0.112026 0.011570
v -0.004287 0.962163 0.015714
v -0.004287 0.855197 0.017628
v -0.004287 1.246211 0.011012
v -0.004287 0.958975 -0.010033
v -0.004287 1.246209 -0.012978
v 0.361135 1.263896 0.040826
v 0.361135 1.227523 0.019826
v 0.361135 1.227523 -0.022174
v 0.361135 1.263896 -0.043174
v 0.361135 1.300269 -0.022174
v 0.361135 1.300269 0.019826
v 0.390790 1.263896 0.053875
v 0.390790 1.216222 0.026350
v 0.390790 1.216222 -0.028699
v 0.390790 1.263896 -0.056223
v 0.390790 1.311569 -0.028699
v 0.390790 1.311569 0.026350
v 0.479813 1.263896 -0.001174
v 0.441800 1.311569 0.026350
v 0.441800 1.263896 0.053875
v 0.441800 1.263896 -0.056223
v 0.441800 1.311569 -0.028699
v 0.441800 1.216222 0.026350
v 0.441800 1.216222 -0.028699
v -0.368865 1.263896 0.040826
v -0.368865 1.300269 0.019826
v -0.368865 1.300269 -0.022174
v -0.368865 1.263896 -0.043174
v -0.368865 1.227523 -0.022174
v -0.368865 1.227523 0.019826
v -0.398520 1.263896 0.053875
v -0.398520 1.311570 0.026350
v -0.398520 1.311570 -0.028699
v -0.398520 1.263896 -0.056223
v -0.398520 1.216222 -0.028699
v -0.398520 1.216222 0.026350
v -0.487543 1.263896 -0.001174
v -0.449530 1.216222 0.026350
v -0.449530 1.263896 0.053875
v -0.449530 1.263896 -0.056223
v -0.449530 1.216222 -0.028699
v -0.449530 1.311570 0.026350
v -0.449530 1.311570 -0.028699
v -0.238865 1.263896 -0.001174
v -0.238865 1.263896 0.051475
v -0.238865 1.218300 0.025150
v -0.238865 1.218300 -0.027499
v -0.238865 1.263896 -0.053824
v -0.238865 1.309492 -0.027499
v -0.238865 1.309492 0.025150
v -0.188865 1.263896 -0.001174
v -0.188865 1.263896 0.051475
v -0.188865 1.218300 0.025150
v -0.188865 1.218300 -0.027499
v -0.188865 1.263896 -0.053824
v -0.188865 1.309492 -0.027499
v -0.188865 1.309492 0.025150
v 0.161135 1.263896 -0.001174
v 0.161135 1.263896 0.051475
v 0.161135 1.218300 0.025150
v 0.161135 1.218300 -0.027499
v 0.161135 1.263896 -0.053824
v 0.161135 1.309492 -0.027499
v 0.161135 1.309492 0.025150
v 0.211135 1.263896 -0.001174
v 0.211135 1.263896 0.051475
v 0.211135 1.218300 0.025150
v 0.211135 1.218300 -0.027499
v 0.211135 1.263896 -0.053824
v 0.211135 1.309492 -0.027499
v 0.211135 1.309492 0.025150
v 0.361135 1.263896 0.040826
v 0.361135 1.227523 0.019826
v 0.361135 1.227523 -0.022174
v 0.361135 1.263896 -0.043174
v 0.361135 1.300269 -0.022174
v 0.361135 1.300269 0.019826
v 0.390790 1.263896 0.053875
v 0.390790 1.216222 0.026350
v 0.390790 1.216222 -0.028699
v 0.390790 1.263896 -0.056223
v 0.390790 1.311569 -0.028699
v 0.390790 1.311569 0.026350
v 0.479813 1.263896 -0.001174
v 0.441800 1.311569 0.026350
v 0.441800 1.263896 0.053875
v 0.441800 1.263896 -0.056223
v 0.441800 1.311569 -0.028699
v 0.441800 1.216222 0.026350
v 0.441800 1.216222 -0.028699
v -0.368865 1.263896 0.040826
v -0.368865 1.300269 0.019826
v -0.368865 1.300269 -0.022174
v -0.368865 1.263896 -0.043174
v -0.368865 1.227523 -0.022174
v -0.368865 1.227523 0.019826
v -0.398520 1.263896 0.053875
v -0.398520 1.311570 0.026350
v -0.398520 1.311570 -0.028699
v -0.398520 1.263896 -0.056223
v -0.398520 1.216222 -0.028699
v -0.398520 1.216222 0.026350
v -0.487543 1.263896 -0.001174
v -0.449530 1.216222 0.026350
v -0.449530 1.263896 0.053875
v -0.449530 1.263896 -0.056223
v -0.449530 1.216222 -0.028699
v -0.449530 1.311570 0.026350
v -0.449530 1.311570 -0.028699
vt 0.778247 0.164698
vt 0.778247 0.164698
vt 0.778247 0.164698
vt 0.778247 0.164698
vt 0.114814 0.475451
vt 0.114814 0.475451
vt 0.114814 0.475451
vt 0.114814 0.475451
vt 0.114814 0.475451
vt 0.114814 0.475451
vt 0.778247 0.164698
vt 0.778247 0.164698
vt 0.778247 0.164698
vt 0.778247 0.164698
vt 0.826187 0.910488
vt 0.826187 0.910488
vt 0.826187 0.910488
vt 0.826187 0.910488
vt 0.114814 0.475451
vt 0.114814 0.475451
vt 0.114814 0.475451
vt 0.826187 0.910488
vt 0.826187 0.910488
vt 0.826187 0.910488
vt 0.114814 0.475451
vt 0.114814 0.475451
vt 0.114814 0.475451
vt 0.778247 0.164698
vt 0.778247 0.164698
vt 0.778247 0.164698
vt 0.778247 0.164698
vt 0.114814 0.475451
vt 0.114814 0.475451
vt 0.104949 0.465586
vt 0.104949 0.465586
vt 0.104949 0.465586
vt 0.104949 0.465586
vt 0.114814 0.475451
vt 0.114814 0.475451
vt 0.114814 0.475451
vt 0.778247 0.164698
vt 0.778247 0.164698
vt 0.778247 0.164698
vt 0.778247 0.164698
vt 0.778247 0.164698
vt 0.778247 0.164698
vt 0.778247 0.164698
vt 0.778247 0.164698
vt 0.778247 0.164698
vt 0.778247 0.164698
vt 0.104949 0.465586
vt 0.104949 0.465586
vt 0.778247 0.164698
vt 0.778247 0.164698
vt 0.778247 0.164698
vt 0.778247 0.164698
vt 0.778247 0.164698
vt 0.778247 0.164698
vt 0.778247 0.164698
vt 0.104949 0.465586
vt 0.104949 0.465586
vt 0.104949 0.465586
vt 0.104949 0.465586
vt 0.778247 0.164698
vt 0.778247 0.164698
vt 0.778247 0.164698
vt 0.778247 0.164698
vt 0.104949 0.465586
vt 0.778247 0.164698
vt 0.778247 0.164698
vt 0.778247 0.164698
vt 0.114814 0.475451
vt 0.104949 0.465586
vt 0.104949 0.465586
vt 0.104949 0.465586
vt 0.826187 0.910488
vt 0.826187 0.910488
vt 0.778247 0.164698
vt 0.778247 0.164698
vt 0.778247 0.164698
vt 0.778247 0.164698
vt 0.778247 0.164698
vt 0.778247 0.164698
vt 0.778247 0.164698
vt 0.778247 0.164698
vt 0.104949 0.465586
vt 0.826187 0.910488
vt 0.826187 0.910488
vt 0.826187 0.910488
vt 0.826187 0.910488
vt 0.826187 0.910488
vt 0.826187 0.910488
vt 0.826187 0.910488
vt 0.826187 0.910488
vt 0.826187 0.910488
vt 0.826187 0.910488
vt 0.826187 0.910488
vt 0.826187 0.910488
vt 0.826187 0.910488
vt 0.826187 0.910488
vt 0.826187 0.910488
vt 0.114814 0.475451
vt 0.114814 0.475451
vt 0.826187 0.910488
vt 0.778247 0.164698
vt 0.826187 0.910488
vt 0.826187 0.910488
vt 0.114814 0.475451
vt 0.826187 0.910488
vt 0.826187 0.910488
vt 0.778247 0.164698
vt 0.778247 0.164698
vt 0.778247 0.164698
vt 0.104949 0.465586
vt 0.826187 0.910488
vt 0.826187 0.910488
vt 0.826187 0.910488
vt 0.826187 0.910488
vt 0.826187 0.910488
vt 0.826187 0.910488
vt 0.826187 0.910488
vt 0.826187 0.910488
vt 0.104949 0.465586
vt 0.778247 0.164698
vt 0.826187 0.910488
vt 0.826187 0.910488
vt 0.826187 0.910488
vt 0.826187 0.910488
vt 0.826187 0.910488
vt 0.826187 0.910488
vt 0.114814 0.475451
vt 0.114814 0.475451
vt 0.778247 0.164698
vt 0.104949 0.465586
vt 0.766305 0.788588
vt 0.766305 0.788588
vt 0.766305 0.788588
vt 0.766305 0.788588
vt 0.766305 0.788588
vt 0.766305 0.788588
vt 0.766305 0.788588
vt 0.766305 0.788588
vt 0.766305 0.788588
vt 0.766305 0.788588
vt 0.766305 0.788588
vt 0.766305 0.788588
vt 0.766305 0.788588
vt 0.766305 0.788588
vt 0.766305 0.788588
vt 0.766305 0.788588
vt 0.766305 0.788588
vt 0.766305 0.788588
vt 0.766305 0.788588
vt 0.766305 0.788588
vt 0.766305 0.788588
vt 0.766305 0.788588
vt 0.766305 0.788588
vt 0.766305 0.788588
vt 0.766305 0.788588
vt 0.766305 0.788588
vt 0.766305 0.788588
vt 0.766305 0.788588
vt 0.766305 0.788588
vt 0.766305 0.788588
vt 0.766305 0.788588
vt 0.766305 0.788588
vt 0.766305 0.788588
vt 0.766305 0.788588
vt 0.766305 0.788588
vt 0.766305 0.788588
vt 0.641018 0.786499
vt 0.641018 0.786499
vt 0.641018 0.786499
vt 0.641018 0.786499
vt 0.641018 0.786499
vt 0.641018 0.786499
vt 0.641018 0.786499
vt 0.641018 0.786499
vt 0.641018 0.786499
vt 0.641018 0.786499
vt 0.641018 0.786499
vt 0.641018 0.786499
vt 0.766305 0.788588
vt 0.766305 0.788588
vt 0.858183 0.780235
vt 0.858183 0.780235
vt 0.858183 0.780235
vt 0.858183 0.780235
vt 0.858183 0.780235
vt 0.858183 0.780235
vt 0.858183 0.780235
vt 0.858183 0.780235
vt 0.858183 0.780235
vt 0.858183 0.780235
vt 0.858183 0.780235
vt 0.858183 0.780235
vt 0.858183 0.780235
vt 0.858183 0.780235
vt 0.858183 0.780235
vt 0.858183 0.780235
vt 0.858183 0.780235
vt 0.858183 0.780235
vt 0.858183 0.780235
vt 0.858183 0.780235
vt 0.858183 0.780235
vt 0.858183 0.780235
vt 0.858183 0.780235
vt 0.858183 0.780235
vt 0.858183 0.780235
vt 0.858183 0.780235
vt 0.858183 0.780235
vt 0.858183 0.780235
vt 0.766305 0.788588
vt 0.766305 0.788588
vt 0.766305 0.788588
vt 0.766305 0.788588
vt 0.766305 0.788588
vt 0.766305 0.788588
vt 0.766305 0.788588
vt 0.766305 0.788588
vt 0.766305 0.788588
vt 0.766305 0.788588
vt 0.766305 0.788588
vt 0.766305 0.788588
vt 0.766305 0.788588
vt 0.766305 0.788588
vt 0.766305 0.788588
vt 0.766305 0.788588
vt 0.766305 0.788588
vt 0.766305 0.788588
vt 0.766305 0.788588
vt 0.766305 0.788588
vt 0.766305 0.788588
vt 0.766305 0.788588
vt 0.766305 0.788588
vt 0.766305 0.788588
vt 0.766305 0.788588
vt 0.766305 0.788588
vt 0.766305 0.788588
vt 0.766305 0.788588
vt 0.766305 0.788588
vt 0.766305 0.788588
vt 0.766305 0.788588
vt 0.766305 0.788588
vt 0.766305 0.788588
vt 0.766305 0.788588
vt 0.766305 0.788588
vt 0.766305 0.788588
vt 0.641018 0.786499
vt 0.641018 0.786499
vt 0.641018 0.786499
vt 0.641018 0.786499
vt 0.641018 0.786499
vt 0.641018 0.786499
vt 0.641018 0.786499
vt 0.641018 0.786499
vt 0.641018 0.786499
vt 0.641018 0.786499
vt 0.641018 0.786499
vt 0.641018 0.786499
vt 0.766305 0.788588
vt 0.766305 0.788588
vn 0.5463 -0.3864 0.7431
vn -0.0651 -0.2926 0.9540
vn 0.0258 -0.0056 0.9997
vn 0.0148 -0.0103 0.9998
vn 0.1474 -0.8148 -0.5608
vn 0.0163 0.0050 -0.9999
vn 0.0149 0.0030 -0.9999
vn 0.6513 -0.2933 -0.6999
vn 0.1256 -0.8165 0.5635
vn 0.6415 -0.3053 0.7038
vn 0.0123 0.0136 -0.9998
vn 0.0080 -0.0002 -1.0000
vn -0.0117 -0.0017 -0.9999
vn 0.0138 0.0038 -0.9999
vn -0.0126 -0.0061 0.9999
vn -0.1068 -0.5083 0.8545
vn -0.0169 -0.0060 0.9998
vn -0.0075 -0.0079 0.9999
vn -0.0165 -0.0043 -0.9999
vn 0.0023 -0.0072 -1.0000
vn -0.7077 -0.0044 0.7065
vn -0.0114 -0.0159 0.9998
vn -0.7124 -0.0106 0.7017
vn -0.0057 0.7123 0.7019
vn 0.0044 0.7029 -0.7112
vn -0.5707 0.5774 -0.5839
vn -0.5829 0.5783 0.5708
vn -0.0906 -0.5063 -0.8576
vn 0.0068 0.0076 -0.9999
vn 0.7003 0.0029 0.7139
vn 0.7112 0.0041 -0.7030
vn 0.5800 0.5768 -0.5753
vn 0.5739 0.5783 0.5799
vn -0.7063 0.0025 -0.7079
vn -0.4594 -0.6906 -0.5586
vn -0.4577 -0.6908 0.5597
vn 0.0362 -0.3169 0.9478
vn 0.0459 -0.3198 -0.9464
vn 0.2891 -0.7843 -0.5489
vn 0.2857 -0.7903 0.5420
vn -0.6975 0.0036 -0.7166
vn -0.7177 -0.0040 0.6964
vn -0.6967 0.0084 -0.7174
vn -0.7176 -0.0116 0.6964
vn 0.7106 -0.0024 -0.7035
vn 0.7082 -0.0001 0.7060
vn 0.6999 0.0082 0.7142
vn 0.7131 0.0053 -0.7010
vn 0.0018 0.0025 1.0000
vn -0.0000 0.7130 0.7012
vn -0.0001 0.7035 -0.7107
vn 0.5281 -0.3665 -0.7660
vn -0.0956 -0.2724 -0.9574
vn -0.0123 0.0086 -0.9999
vn -0.0250 0.0049 -0.9997
vn -0.0071 -0.0015 -1.0000
vn -0.0052 -0.0046 -1.0000
vn -0.0003 0.7063 -0.7079
vn 0.0015 0.7088 0.7054
vn -0.0846 -0.8363 -0.5418
vn -0.0023 -0.0020 -1.0000
vn -0.0809 -0.8322 0.5486
vn -0.0178 -0.0114 0.9998
vn 0.0186 0.0039 0.9998
vn 0.0071 -0.0007 1.0000
vn -0.0269 -0.0009 0.9996
vn 0.7026 0.0083 0.7116
vn 0.0065 0.0023 1.0000
vn -0.0062 -0.0032 -1.0000
vn 0.7108 0.0052 -0.7033
vn -0.0154 -0.0171 0.9997
vn -0.0143 -0.0087 0.9999
vn 0.0029 0.0021 1.0000
vn -0.0123 0.0005 0.9999
vn 0.0109 0.0002 0.9999
vn 0.0017 0.0172 0.9999
vn 0.0213 0.0017 -0.9998
vn -0.0000 -0.0040 -1.0000
vn 0.0069 0.0026 1.0000
vn -0.7021 0.0073 -0.7121
vn 0.0098 0.0126 -0.9999
vn 0.0073 0.0008 1.0000
vn -0.0001 0.7034 -0.7108
vn -0.0067 -0.0129 -0.9999
vn -0.2204 0.8447 0.4877
vn -0.1937 0.8496 0.4905
vn -0.1937 0.8496 -0.4905
vn -0.2204 0.8447 -0.4877
vn -0.2204 -0.0000 -0.9754
vn -0.1937 -0.0000 -0.9811
vn -0.1937 -0.8496 -0.4905
vn -0.2204 -0.8447 -0.4877
vn -0.2204 -0.8447 0.4877
vn -0.1937 -0.8496 0.4905
vn -0.1937 -0.0000 0.9811
vn -0.2204 -0.0000 0.9754
vn 0.4126 -0.7889 0.4555
vn 0.4126 0.0000 0.9109
vn 0.4126 0.0000 -0.9109
vn 0.4126 -0.7889 -0.4555
vn 0.4126 0.7889 0.4555
vn 0.4126 0.7889 -0.4555
vn 0.2204 -0.8447 0.4877
vn 0.1937 -0.8496 0.4905
vn 0.1937 -0.8496 -0.4905
vn 0.2204 -0.8447 -0.4877
vn 0.2204 -0.0000 -0.9754
vn 0.1937 0.0000 -0.9811
vn 0.1937 0.8496 -0.4905
vn 0.2204 0.8447 -0.4877
vn 0.2204 0.8447 0.4877
vn 0.1937 0.8496 0.4905
vn 0.1937 -0.0000 0.9811
vn 0.2204 -0.0000 0.9754
vn -0.4126 0.7889 0.4555
vn -0.4126 -0.0000 0.9109
vn -0.4126 0.0000 -0.9109
vn -0.4126 0.7889 -0.4555
vn -0.4126 -0.7889 0.4555
vn -0.4126 -0.7889 -0.4555
vn 1.0000 -0.0000 0.0000
vn -1.0000 0.0000 -0.0000
vn -0.6100 0.0000 -0.7924
vn -0.6100 0.6862 -0.3962
vn 0.6100 0.6862 -0.3962
vn 0.6100 -0.0000 -0.7924
vn -0.6100 -0.0000 0.7924
vn -0.6100 -0.6862 0.3962
vn 0.6100 -0.6862 0.3962
vn 0.6100 0.0000 0.7924
vn -0.6100 0.6862 0.3962
vn 0.6100 0.6862 0.3962
vn -0.6100 -0.6862 -0.3962
vn 0.6100 -0.6862 -0.3962
usemtl rpgpp_lt_mat_a
s 1
f 4/1/1 39/2/2 37/3/3 5/4/4
f 28/5/5 9/6/6 76/7/7 77/8/8
f 22/9/9 28/5/5 77/8/8 80/10/10
f 72/11/11 15/12/12 79/13/13 63/14/14
f 80/15/10 4/16/1 5/17/4 75/18/15
f 21/19/16 22/9/9 12/20/17 16/21/18
f 63/22/14 2/23/19 69/24/20
f 30/25/21 16/21/18 54/26/22 51/27/23
f 10/28/24 11/29/25 25/30/26 19/31/27
f 27/32/28 13/33/29 9/6/6 28/5/5
f 32/34/30 36/35/31 26/36/32 20/37/33
f 30/25/21 34/38/34 23/39/35 17/40/36
f 21/19/16 27/32/28 28/5/5 22/9/9
f 44/41/37 46/42/38 24/43/39 18/44/40
f 17/40/36 23/39/35 27/32/28 21/19/16
f 19/31/27 25/30/26 33/45/41 29/46/42
f 29/46/42 33/45/41 73/47/43 74/48/44
f 18/44/40 24/43/39 35/49/45 31/50/46
f 71/51/47 67/52/48 36/35/31 32/34/30
f 73/47/43 33/45/41 15/12/12 72/11/11
f 44/41/37 18/44/40 31/50/46 48/53/49
f 83/54/50 85/55/51 11/29/25 10/28/24
f 23/39/35 34/38/34 13/33/29 27/32/28
f 17/40/36 21/19/16 16/21/18 30/25/21
f 33/45/41 25/30/26 11/29/25 15/12/12
f 4/1/1 3/56/52 40/57/53 39/2/2
f 3/56/52 1/58/54 42/59/55 40/57/53
f 69/60/20 2/61/19 41/62/56 65/63/57
f 20/64/33 26/65/32 6/66/58 7/67/59
f 41/62/56 6/68/58 26/36/32 36/35/31
f 45/69/60 47/70/61 46/42/38
f 39/2/2 40/57/53 45/69/60 43/71/62
f 43/71/62 45/69/60 46/42/38 44/41/37
f 46/42/38 47/70/61 35/49/45 24/43/39
f 16/21/18 12/20/17 50/72/63 54/26/22
f 8/73/64 7/74/59 62/75/50
f 40/57/53 42/59/55 47/70/61 45/69/60
f 2/61/19 6/68/58 41/62/56
f 75/18/15 5/17/4 52/76/65 78/77/66
f 48/53/49 31/50/46 57/78/67 56/79/68
f 39/2/2 43/71/62 48/53/49 37/3/3
f 43/71/62 44/41/37 48/53/49
f 47/70/61 53/80/69 55/81/70 35/49/45
f 66/82/71 64/83/72 82/84/73 14/85/74
f 8/73/64 38/86/75 7/74/59
f 82/87/73 8/88/64 81/89/76
f 29/46/42 14/85/74 10/28/24 19/31/27
f 38/86/75 32/34/30 20/37/33 7/74/59
f 76/90/7 49/91/77 59/92/78 1/93/54
f 56/94/68 57/95/67 71/96/47 68/97/79
f 51/98/23 54/99/22 66/100/71 74/101/44
f 34/38/34 60/102/80 58/103/81 13/33/29
f 52/76/65 56/94/68 68/97/79 70/104/82
f 1/58/54 59/105/78 53/80/69 42/59/55
f 54/99/22 50/106/63 64/107/72 66/100/71
f 13/33/29 58/103/81 49/108/77 9/6/6
f 50/106/63 78/77/66 64/107/72
f 63/22/14 69/24/20 59/92/78 49/91/77
f 51/27/23 60/102/80 34/38/34 30/25/21
f 31/50/46 35/49/45 55/81/70 57/78/67
f 81/89/76 8/88/64 62/109/50 83/110/50
f 7/67/59 6/66/58 61/111/83 62/112/50
f 84/113/84 11/29/25 85/55/51
f 15/12/12 11/29/25 84/113/84 79/13/13
f 2/61/19 61/114/83 6/68/58
f 37/3/3 48/53/49 56/79/68
f 42/59/55 53/80/69 47/70/61
f 74/101/44 73/115/43 60/116/80 51/98/23
f 58/117/81 72/118/11 63/22/14 49/91/77
f 53/119/69 65/120/57 67/121/48 55/122/70
f 74/48/44 66/82/71 14/85/74 29/46/42
f 60/116/80 73/115/43 72/118/11 58/117/81
f 59/92/78 69/24/20 65/120/57 53/119/69
f 64/107/72 70/104/82 8/88/64
f 68/123/79 71/51/47 32/34/30 38/86/75
f 5/4/4 37/3/3 56/79/68 52/124/65
f 57/95/67 55/122/70 67/121/48 71/96/47
f 62/109/50 61/125/83 85/126/51 83/110/50
f 79/127/13 84/128/84 2/23/19
f 77/129/8 76/90/7 1/93/54 3/130/52
f 63/22/14 79/127/13 2/23/19
f 82/87/73 64/107/72 8/88/64
f 12/20/17 75/131/15 78/132/66 50/72/63
f 78/77/66 52/76/65 70/104/82 64/107/72
f 10/28/24 81/133/76 83/54/50
f 2/23/19 84/128/84 85/126/51 61/125/83
f 80/15/10 77/129/8 3/130/52 4/16/1
f 22/9/9 80/10/10 75/131/15 12/20/17
f 14/85/74 82/84/73 81/133/76 10/28/24
f 9/6/6 49/108/77 76/7/7
f 65/63/57 41/62/56 36/35/31 67/52/48
f 70/134/82 68/123/79 38/86/75 8/73/64
f 91/135/85 97/136/86 96/137/87 90/138/88
f 89/139/89 95/140/90 94/141/91 88/142/92
f 87/143/93 93/144/94 92/145/95 86/146/96
f 86/146/96 92/145/95 97/136/86 91/135/85
f 90/138/88 96/137/87 95/140/90 89/139/89
f 88/142/92 94/141/91 93/144/94 87/143/93
f 93/144/94 103/147/97 100/148/98 92/145/95
f 95/140/90 101/149/99 104/150/100 94/141/91
f 97/136/86 99/151/101 102/152/102 96/137/87
f 94/141/91 104/150/100 103/147/97 93/144/94
f 96/137/87 102/152/102 101/149/99 95/140/90
f 92/145/95 100/148/98 99/151/101 97/136/86
f 110/153/103 116/154/104 115/155/105 109/156/106
f 108/157/107 114/158/108 113/159/109 107/160/110
f 106/161/111 112/162/112 111/163/113 105/164/114
f 105/164/114 111/163/113 116/154/104 110/153/103
f 109/156/106 115/155/105 114/158/108 108/157/107
f 107/160/110 113/159/109 112/162/112 106/161/111
f 112/162/112 122/165/115 119/166/116 111/163/113
f 114/158/108 120/167/117 123/168/118 113/159/109
f 116/154/104 118/169/119 121/170/120 115/155/105
f 113/159/109 123/168/118 122/165/115 112/162/112
f 115/155/105 121/170/120 120/167/117 114/158/108
f 111/163/113 119/166/116 118/169/119 116/154/104
f 109/171/106 88/172/92 87/173/93 110/174/103
f 106/175/111 91/176/85 90/177/88 107/178/110
f 108/179/107 89/180/89 88/172/92 109/171/106
f 110/174/103 87/173/93 86/181/96 105/182/114
f 105/182/114 86/181/96 91/176/85 106/175/111
f 107/178/110 90/177/88 89/180/89 108/179/107
f 100/148/98 98/183/121 99/151/101
f 102/152/102 98/183/121 101/149/99
f 104/150/100 98/183/121 103/147/97
f 99/151/101 98/183/121 102/152/102
f 101/149/99 98/183/121 104/150/100
f 103/147/97 98/183/121 100/148/98
f 119/166/116 117/184/122 118/169/119
f 121/170/120 117/184/122 120/167/117
f 123/168/118 117/184/122 122/165/115
f 118/169/119 117/184/122 121/170/120
f 120/167/117 117/184/122 123/168/118
f 122/165/115 117/184/122 119/166/116
f 128/185/123 129/186/124 136/187/125 135/188/126
f 125/189/127 126/190/128 133/191/129 132/192/130
f 129/186/124 130/193/131 137/194/132 136/187/125
f 126/190/128 127/195/133 134/196/134 133/191/129
f 130/193/131 125/189/127 132/192/130 137/194/132
f 127/195/133 128/185/123 135/188/126 134/196/134
f 124/197/122 125/189/127 130/193/131
f 124/197/122 129/186/124 128/185/123
f 124/197/122 127/195/133 126/190/128
f 124/197/122 130/193/131 129/186/124
f 124/197/122 128/185/123 127/195/133
f 124/197/122 126/190/128 125/189/127
f 131/198/121 137/194/132 132/192/130
f 131/198/121 135/188/126 136/187/125
f 131/198/121 133/191/129 134/196/134
f 131/198/121 136/187/125 137/194/132
f 131/198/121 134/196/134 135/188/126
f 131/198/121 132/192/130 133/191/129
f 142/199/123 143/200/124 150/201/125 149/202/126
f 139/203/127 140/204/128 147/205/129 146/206/130
f 143/200/124 144/207/131 151/208/132 150/201/125
f 140/204/128 141/209/133 148/210/134 147/205/129
f 144/207/131 139/203/127 146/206/130 151/208/132
f 141/209/133 142/199/123 149/202/126 148/210/134
f 138/211/122 139/203/127 144/207/131
f 138/211/122 143/200/124 142/199/123
f 138/211/122 141/209/133 140/204/128
f 138/211/122 144/207/131 143/200/124
f 138/211/122 142/199/123 141/209/133
f 138/211/122 140/204/128 139/203/127
f 145/212/121 151/208/132 146/206/130
f 145/212/121 149/202/126 150/201/125
f 145/212/121 147/205/129 148/210/134
f 145/212/121 150/201/125 151/208/132
f 145/212/121 148/210/134 149/202/126
f 145/212/121 146/206/130 147/205/129
f 157/213/85 163/214/86 162/215/87 156/216/88
f 155/217/89 161/218/90 160/219/91 154/220/92
f 153/221/93 159/222/94 158/223/95 152/224/96
f 152/224/96 158/223/95 163/214/86 157/213/85
f 156/216/88 162/215/87 161/218/90 155/217/89
f 154/220/92 160/219/91 159/222/94 153/221/93
f 159/222/94 169/225/97 166/226/98 158/223/95
f 161/218/90 167/227/99 170/228/100 160/219/91
f 163/214/86 165/229/101 168/230/102 162/215/87
f 160/219/91 170/228/100 169/225/97 159/222/94
f 162/215/87 168/230/102 167/227/99 161/218/90
f 158/223/95 166/226/98 165/229/101 163/214/86
f 176/231/103 182/232/104 181/233/105 175/234/106
f 174/235/107 180/236/108 179/237/109 173/238/110
f 172/239/111 178/240/112 177/241/113 171/242/114
f 171/242/114 177/241/113 182/232/104 176/231/103
f 175/234/106 181/233/105 180/236/108 174/235/107
f 173/238/110 179/237/109 178/240/112 172/239/111
f 178/240/112 188/243/115 185/244/116 177/241/113
f 180/236/108 186/245/117 189/246/118 179/237/109
f 182/232/104 184/247/119 187/248/120 181/233/105
f 179/237/109 189/246/118 188/243/115 178/240/112
f 181/233/105 187/248/120 186/245/117 180/236/108
f 177/241/113 185/244/116 184/247/119 182/232/104
f 175/249/106 154/250/92 153/251/93 176/252/103
f 172/253/111 157/254/85 156/255/88 173/256/110
f 174/257/107 155/258/89 154/250/92 175/249/106
f 176/252/103 153/251/93 152/259/96 171/260/114
f 171/260/114 152/259/96 157/254/85 172/253/111
f 173/256/110 156/255/88 155/258/89 174/257/107
f 166/226/98 164/261/121 165/229/101
f 168/230/102 164/261/121 167/227/99
f 170/228/100 164/261/121 169/225/97
f 165/229/101 164/261/121 168/230/102
f 167/227/99 164/261/121 170/228/100
f 169/225/97 164/261/121 166/226/98
f 185/244/116 183/262/122 184/247/119
f 187/248/120 183/262/122 186/245/117
f 189/246/118 183/262/122 188/243/115
f 184/247/119 183/262/122 187/248/120
f 186/245/117 183/262/122 189/246/118
f 188/243/115 183/262/122 185/244/116
o Cube
v 1.000000 -1.000000 -1.000000
v 1.000000 -1.000000 1.000000
v -1.000000 -1.000000 1.000000
v -1.000000 -1.000000 -1.000000
v 1.000000 1.000000 -0.999999
v 0.999999 1.000000 1.000001
v -1.000000 1.000000 1.000000
v -1.000000 1.000000 -1.000000
vn 0.0000 -1.0000 0.0000
vn 0.0000 1.0000 0.0000
vn 1.0000 0.0000 0.0000
vn -0.0000 -0.0000 1.0000
vn -1.0000 -0.0000 -0.0000
vn 0.0000 0.0000 -1.0000
usemtl Material
s off
f 190//135 191//135 192//135 193//135
f 194//136 197//136 196//136 195//136
f 190//137 194//137 195//137 191//137
f 191//138 195//138 196//138 192//138
f 192//139 196//139 197//139 193//139
f 194//140 190//140 193//140 197//140
