# Blender v2.79 (sub 0) OBJ File: ''
# www.blender.org
mtllib rpgpp_lt_bench_wood_01.mtl
o rpgpp_lt_bench_wood_01_rpgpp_lt_bench_wood_01.001
v -0.130189 0.359129 0.136968
v -0.130189 0.359129 -0.160017
v -0.130189 0.297621 -0.011525
v -0.880626 0.324980 -0.148757
v -0.880626 0.263473 -0.064065
v 0.872641 0.473656 0.188674
v 0.872637 0.325163 0.148168
v 0.872637 0.263656 -0.000325
v 0.872637 0.325163 -0.148817
v 0.872641 0.473656 -0.189324
v -0.880629 0.473473 0.188734
v -0.880626 0.324980 0.148228
v -0.880629 0.473473 -0.189264
v -0.130189 0.507621 -0.200524
v -0.130189 0.507621 0.177474
v 0.455832 0.487773 0.184019
v 0.131200 0.428912 0.161337
v 0.231243 0.495379 0.114302
v -0.882722 0.473473 -0.031627
v -0.880629 0.473473 -0.091080
v -0.130189 0.507621 -0.048640
v -0.880629 0.390672 -0.065785
v 0.872641 0.473656 0.001294
v 0.872641 0.473656 0.106822
v 0.872637 0.357026 0.034174
v 0.665202 0.480681 0.029756
v 0.338053 0.000000 -0.005516
v 0.381053 0.000000 0.098485
v 0.485053 0.000000 0.141485
v 0.589053 0.000000 0.098485
v 0.632053 0.000000 -0.005515
v 0.589053 0.000000 -0.109515
v 0.485053 0.000000 -0.152515
v 0.381053 0.000000 -0.108516
v -0.379947 0.000000 -0.029515
v -0.408947 0.000000 0.078485
v -0.506947 0.000000 0.134485
v -0.614947 0.000000 0.105485
v -0.670947 0.000000 0.008485
v -0.641947 0.000000 -0.100515
v -0.544947 0.000000 -0.156516
v -0.435947 0.000000 -0.127515
v 0.358685 0.355053 -0.005550
v 0.395855 0.355053 0.084630
v 0.485906 0.355052 0.122114
v 0.576087 0.355052 0.084944
v 0.613571 0.355053 -0.005107
v 0.576400 0.355053 -0.095288
v 0.486349 0.355053 -0.132772
v 0.396169 0.355053 -0.095601
v -0.399059 0.377357 -0.027587
v -0.424305 0.377357 0.066630
v -0.508777 0.377357 0.115400
v -0.602994 0.377357 0.090154
v -0.651765 0.377357 0.005681
v -0.626520 0.377357 -0.088536
v -0.542047 0.377358 -0.137306
v -0.447829 0.377357 -0.112060
vt 0.671275 0.842183
vt 0.671275 0.842183
vt 0.671275 0.842183
vt 0.671275 0.842183
vt 0.671275 0.842183
vt 0.671275 0.842183
vt 0.671275 0.842183
vt 0.671275 0.842183
vt 0.671275 0.842183
vt 0.671275 0.842183
vt 0.671275 0.842183
vt 0.671275 0.842183
vt 0.671275 0.842183
vt 0.671275 0.842183
vt 0.671275 0.842183
vt 0.671275 0.842183
vt 0.671275 0.842183
vt 0.671275 0.842183
vt 0.671275 0.842183
vt 0.671275 0.842183
vt 0.671275 0.842183
vt 0.671275 0.842183
vt 0.671275 0.842183
vt 0.671275 0.842183
vt 0.671275 0.842183
vt 0.671275 0.842183
vt 0.573954 0.967364
vt 0.573954 0.967364
vt 0.573954 0.967364
vt 0.573954 0.967364
vt 0.671275 0.842183
vt 0.671275 0.842183
vt 0.671275 0.842183
vt 0.671275 0.842183
vt 0.671275 0.842183
vt 0.671275 0.842183
vt 0.671275 0.842183
vt 0.671275 0.842183
vt 0.671275 0.842183
vt 0.671275 0.842183
vt 0.671275 0.842183
vt 0.671275 0.842183
vt 0.671275 0.842183
vt 0.671275 0.842183
vt 0.671275 0.842183
vt 0.671275 0.842183
vt 0.671275 0.842183
vt 0.671275 0.842183
vt 0.671275 0.842183
vt 0.671275 0.842183
vt 0.671275 0.842183
vt 0.671275 0.842183
vt 0.671275 0.842183
vt 0.671275 0.842183
vt 0.671275 0.842183
vt 0.671275 0.842183
vt 0.671275 0.842183
vt 0.671275 0.842183
vt 0.671275 0.842183
vt 0.671275 0.842183
vt 0.671275 0.842183
vt 0.671275 0.842183
vn 0.5754 0.4896 -0.6551
vn 0.6147 -0.5268 -0.5870
vn 0.0068 -0.6354 -0.7722
vn -0.0050 0.6162 -0.7876
vn 0.6085 -0.5275 0.5928
vn 0.0016 -0.6683 0.7439
vn 0.0066 -0.9995 -0.0317
vn 0.6175 -0.7866 0.0021
vn 0.5687 0.4880 0.6622
vn -0.0044 0.6074 0.7944
vn 0.0447 0.1187 0.9919
vn 0.0103 0.6220 0.7829
vn 0.6771 0.6756 -0.2918
vn 0.2865 0.9578 0.0210
vn 0.6326 0.6339 0.4449
vn -0.0072 1.0000 0.0000
vn -0.0404 0.9119 0.4083
vn -0.5800 0.4840 -0.6552
vn -0.6381 -0.4910 -0.5931
vn -0.6247 0.6486 -0.4348
vn -0.5693 0.4842 0.6644
vn -0.5935 -0.5560 0.5820
vn -0.5928 -0.8019 -0.0740
vn 0.8425 0.5357 0.0561
vn -0.6571 0.7533 0.0252
vn -0.6215 0.6317 0.4633
vn -0.0002 0.0546 0.9985
vn -0.0014 0.0546 0.9985
vn 0.7054 0.0526 0.7069
vn 0.7057 0.0526 0.7065
vn -0.7055 0.0566 -0.7064
vn -0.7070 0.0566 -0.7049
vn -0.9983 0.0578 -0.0017
vn -0.9983 0.0578 -0.0018
vn 0.7072 0.0534 -0.7050
vn 0.7061 0.0534 -0.7061
vn -0.0022 0.0550 -0.9985
vn -0.0005 0.0550 -0.9985
vn 0.9986 0.0521 0.0005
vn 0.9986 0.0521 0.0011
vn -0.7062 0.0569 0.7057
vn -0.7068 0.0569 0.7051
vn 0.9904 0.0511 -0.1287
vn 0.6085 0.0511 -0.7919
vn 0.9903 0.0511 -0.1294
vn 0.1286 0.0510 0.9904
vn 0.7915 0.0511 0.6090
vn 0.1295 0.0510 0.9903
vn -0.1310 0.0515 -0.9900
vn -0.1306 0.0515 -0.9901
vn -0.7925 0.0516 -0.6076
vn -0.9900 0.0514 0.1310
vn -0.9901 0.0514 0.1306
vn -0.7926 0.0516 -0.6075
vn -0.6081 0.0515 0.7922
vn -0.6080 0.0515 0.7923
usemtl rpgpp_lt_mat_a.004
s 1
f 10/1/1 9/2/2 2/3/3 14/4/4
f 7/5/5 1/6/6 3/7/7 8/8/8
f 8/8/8 3/7/7 2/3/3 9/2/2
f 6/9/9 16/10/10 17/11/11 15/12/12 1/6/6 7/5/5
f 6/9/9 24/13/13 26/14/14 23/15/15 10/1/1 14/4/4 21/16/16 15/12/12 18/17/17 16/10/10
f 13/18/18 14/4/4 2/3/3 4/19/19
f 15/12/12 21/16/16 19/20/20 11/21/21
f 3/7/7 1/6/6 12/22/22 5/23/23
f 2/3/3 3/7/7 5/23/23 4/19/19
f 6/9/9 7/5/5 8/8/8 9/2/2 10/1/1 23/15/15 25/24/24 24/13/13
f 13/18/18 4/19/19 5/23/23 12/22/22 11/21/21 19/20/20 22/25/25 20/26/26
f 15/12/12 11/21/21 12/22/22 1/6/6
f 17/27/11 18/28/17 15/29/12
f 17/27/11 16/30/10 18/28/17
f 21/16/16 14/4/4 13/18/18 20/26/26
f 19/20/20 21/16/16 22/25/25
f 21/16/16 20/26/26 22/25/25
f 25/24/24 23/15/15 26/14/14
f 25/24/24 26/14/14 24/13/13
f 45/31/27 29/32/28 30/33/29 46/34/30
f 50/35/31 34/36/32 27/37/33 43/38/34
f 48/39/35 32/40/36 33/41/37 49/42/38
f 31/43/39 47/44/40 46/34/30 30/33/29
f 29/32/28 45/31/27 44/45/41 28/46/42
f 49/42/38 33/41/37 34/36/32 50/35/31
f 47/44/40 31/43/39 32/40/36 48/39/35
f 35/47/43 42/48/44 58/49/44 51/50/45
f 37/51/46 36/52/47 52/53/47 53/54/48
f 42/48/44 41/55/49 57/56/50 58/49/44
f 40/57/51 39/58/52 55/59/53 56/60/54
f 38/61/55 37/51/46 53/54/48 54/62/56
f 27/37/33 28/46/42 44/45/41 43/38/34
f 41/55/49 40/57/51 56/60/54 57/56/50
f 39/58/52 38/61/55 54/62/56 55/59/53
f 52/53/47 36/52/47 35/47/43 51/50/45
