# Blender v2.79 (sub 0) OBJ File: ''
# www.blender.org
mtllib rpgpp_lt_chair_01a.mtl
o rpgpp_lt_chair_01a_rpgpp_lt_chair_01a.001
v 0.208196 0.564000 0.001280
v 0.208196 0.564000 -0.053107
v 0.265647 0.563999 -0.052814
v 0.265647 0.564000 0.001280
v 0.208200 1.121154 0.001276
v 0.208200 1.121154 -0.053111
v 0.265651 1.128000 0.001276
v -0.210712 0.564000 0.001280
v -0.210712 0.564000 -0.053107
v -0.153261 0.563999 -0.052814
v -0.153261 0.564000 0.001280
v -0.210708 1.141693 0.001276
v -0.210708 1.141693 -0.053111
v -0.153257 1.127999 -0.052818
v -0.153257 1.144432 0.001276
v 0.298089 0.950816 -0.054771
v 0.298089 0.950816 -0.089106
v 0.301541 1.049253 -0.088922
v 0.301539 1.058248 -0.054771
v -0.264893 0.984694 -0.054773
v -0.264893 0.984694 -0.079677
v -0.261441 1.083661 -0.079492
v -0.261442 1.092126 -0.054773
v -0.146751 1.085224 -0.088923
v 0.196680 1.064558 -0.088922
v -0.021674 1.077698 -0.076075
v 0.032339 1.057489 -0.088952
v -0.140710 0.975830 -0.087216
v -0.055354 0.972598 -0.091230
v -0.097505 0.974622 -0.070562
v -0.110280 1.003406 -0.089087
v 0.234796 1.128000 -0.052975
v 0.265651 1.094774 -0.052818
v 0.265651 1.127999 -0.029602
v 0.265651 1.104540 -0.029157
v -0.265257 0.799719 -0.054644
v -0.265256 0.799719 -0.089173
v -0.256225 0.701080 -0.088987
v -0.255083 0.692106 -0.054644
v 0.300669 0.837271 -0.054646
v 0.300669 0.837271 -0.079690
v 0.309768 0.738104 -0.079504
v 0.310842 0.729659 -0.054646
v 0.195551 0.722009 -0.088989
v -0.149675 0.699101 -0.088987
v 0.053785 0.713459 -0.076380
v 0.013375 0.726981 -0.089018
v 0.175661 0.830375 -0.087272
v 0.070768 0.819004 -0.093763
v 0.132406 0.826105 -0.070524
v 0.148798 0.799009 -0.089153
v 0.199211 0.139713 -0.016942
v 0.199211 0.139713 -0.058942
v 0.199211 0.186513 -0.057742
v 0.199211 0.186513 -0.016942
v -0.169189 0.140300 -0.016942
v -0.169189 0.140300 -0.058942
v -0.169189 0.188300 -0.057742
v -0.169189 0.188300 -0.016942
v 0.199211 0.139602 -0.458542
v 0.199211 0.139602 -0.500542
v 0.199211 0.187602 -0.499342
v 0.199211 0.187602 -0.458542
v -0.169189 0.139713 -0.458542
v -0.169189 0.139713 -0.500542
v -0.169189 0.187713 -0.499342
v -0.169189 0.187713 -0.458542
v -0.170089 0.138738 -0.450442
v -0.212089 0.138738 -0.450442
v -0.210889 0.186738 -0.450442
v -0.170089 0.186738 -0.450442
v -0.170089 0.139713 -0.066442
v -0.212089 0.139713 -0.066442
v -0.210889 0.187713 -0.066442
v -0.170089 0.187713 -0.066442
v 0.243911 0.139713 -0.450442
v 0.201911 0.139713 -0.450442
v 0.203111 0.186513 -0.450442
v 0.243911 0.186513 -0.450442
v 0.243911 0.140519 -0.066442
v 0.201911 0.140519 -0.066442
v 0.203111 0.188519 -0.066442
v 0.243911 0.188519 -0.066442
v 0.190000 -0.000000 -0.444000
v 0.190000 0.000000 -0.515777
v 0.262364 -0.000001 -0.515484
v 0.262364 0.000000 -0.444000
v 0.190004 0.564000 -0.444004
v 0.190004 0.564000 -0.515781
v 0.262368 0.563999 -0.515488
v 0.262368 0.564000 -0.444004
v -0.230000 0.000000 -0.444000
v -0.230000 0.000000 -0.515777
v -0.157636 -0.000001 -0.515484
v -0.157636 0.000000 -0.444000
v -0.229996 0.564000 -0.444004
v -0.229996 0.564000 -0.515781
v -0.157632 0.563999 -0.515488
v -0.157632 0.564000 -0.444004
v 0.190000 -0.000000 0.000000
v 0.190000 0.000000 -0.071777
v 0.262364 -0.000001 -0.071484
v 0.262364 0.000000 0.000000
v 0.190004 0.564000 -0.000004
v 0.190004 0.564000 -0.071781
v 0.262368 0.563999 -0.071488
v 0.262368 0.564000 -0.000004
v -0.230000 0.000000 0.000000
v -0.230000 0.000000 -0.071777
v -0.157636 -0.000001 -0.071484
v -0.157636 0.000000 0.000000
v -0.229996 0.564000 -0.000004
v -0.229996 0.564000 -0.071781
v -0.157632 0.563999 -0.071488
v -0.157632 0.564000 -0.000004
v 0.197237 0.557817 -0.065817
v 0.197237 0.510040 -0.065817
v 0.255128 0.510333 -0.065816
v 0.255128 0.557817 -0.065817
v 0.197240 0.557813 -0.449817
v 0.197240 0.510036 -0.449817
v 0.255131 0.510329 -0.449816
v 0.255131 0.557813 -0.449817
v -0.222763 0.557817 -0.065817
v -0.222763 0.510040 -0.065817
v -0.164872 0.510333 -0.065816
v -0.164872 0.557817 -0.065817
v -0.222760 0.557813 -0.449817
v -0.222760 0.510036 -0.449817
v -0.164869 0.510329 -0.449816
v -0.164869 0.557813 -0.449817
v -0.169816 0.557817 -0.511164
v -0.169816 0.510040 -0.511164
v -0.169817 0.510333 -0.453273
v -0.169816 0.557817 -0.453273
v 0.202184 0.557813 -0.511161
v 0.202184 0.510036 -0.511161
v 0.202183 0.510329 -0.453270
v 0.202184 0.557813 -0.453270
v -0.169816 0.557817 -0.065964
v -0.169816 0.510040 -0.065964
v -0.169817 0.510333 -0.008073
v -0.169816 0.557817 -0.008073
v 0.202184 0.557813 -0.065961
v 0.202184 0.510036 -0.065961
v 0.202183 0.510329 -0.008070
v 0.202184 0.557813 -0.008070
v 0.218159 0.552973 -0.567187
v 0.218159 0.587502 -0.567187
v 0.308060 0.587316 -0.558619
v 0.316240 0.552973 -0.557521
v 0.186373 0.552975 0.027610
v 0.186373 0.578019 0.027610
v 0.276757 0.577833 0.036243
v 0.284454 0.552975 0.037277
v 0.181154 0.552973 0.018706
v 0.181154 0.587502 0.018706
v 0.099459 0.587316 0.014719
v 0.091241 0.552973 0.014037
v 0.189014 0.552976 -0.588744
v 0.189014 0.578019 -0.588744
v 0.106834 0.577833 -0.592771
v 0.099101 0.552976 -0.593413
v 0.097500 0.587318 -0.451672
v 0.092705 0.587316 -0.105726
v 0.096311 0.574709 -0.309654
v 0.116464 0.587347 -0.271623
v 0.086720 0.552973 0.033345
v 0.086720 0.587502 0.033345
v -0.011988 0.587316 0.032612
v -0.020221 0.552973 0.032227
v 0.077600 0.552976 -0.581893
v 0.077600 0.578019 -0.581893
v -0.021593 0.577833 -0.582649
v -0.029341 0.552976 -0.583011
v -0.027484 0.587318 -0.456850
v -0.021920 0.587316 -0.110918
v -0.024421 0.574709 -0.314866
v -0.009060 0.587347 -0.275732
v 0.080885 0.585601 -0.411029
v 0.078570 0.592093 -0.156881
v 0.080311 0.568853 -0.367568
v 0.054461 0.587483 -0.381632
v -0.034869 0.552973 0.010590
v -0.034869 0.587502 0.010590
v -0.135624 0.587316 0.006602
v -0.143842 0.552973 0.005921
v -0.032315 0.552975 -0.570966
v -0.032315 0.578019 -0.570966
v -0.133555 0.577833 -0.574993
v -0.141288 0.552976 -0.575635
v -0.148363 0.552973 0.026581
v -0.148363 0.587502 0.026581
v -0.228011 0.587316 0.025848
v -0.236245 0.552973 0.025463
v -0.157483 0.552976 -0.591934
v -0.157483 0.578019 -0.591934
v -0.237617 0.577833 -0.592690
v -0.245365 0.552976 -0.593052
v -0.243507 0.587318 -0.288605
v -0.237944 0.587316 -0.115788
v -0.240444 0.574709 -0.206067
v -0.225083 0.587347 -0.229788
vt 0.575603 0.970356
vt 0.575603 0.970356
vt 0.575603 0.970356
vt 0.734793 0.839410
vt 0.734793 0.839410
vt 0.734793 0.839410
vt 0.734793 0.839410
vt 0.734793 0.839410
vt 0.734793 0.839410
vt 0.734793 0.839410
vt 0.734793 0.839410
vt 0.734793 0.839410
vt 0.734793 0.839410
vt 0.734793 0.839410
vt 0.734793 0.839410
vt 0.734793 0.839410
vt 0.734793 0.839410
vt 0.734793 0.839410
vt 0.734793 0.839410
vt 0.734793 0.839410
vt 0.734793 0.839410
vt 0.734793 0.839410
vt 0.734793 0.839410
vt 0.734793 0.839410
vt 0.734793 0.839410
vt 0.734793 0.839410
vt 0.734793 0.839410
vt 0.734793 0.839410
vt 0.575603 0.970356
vt 0.575603 0.970356
vt 0.575603 0.970356
vt 0.575603 0.970356
vt 0.734793 0.839410
vt 0.734793 0.839410
vt 0.734793 0.839410
vt 0.734793 0.839410
vt 0.575603 0.970356
vt 0.575603 0.970356
vt 0.575603 0.970356
vt 0.575603 0.970356
vt 0.734793 0.839410
vt 0.734793 0.839410
vt 0.734793 0.839410
vt 0.734793 0.839410
vt 0.734793 0.839410
vt 0.734793 0.839410
vt 0.575603 0.970356
vt 0.734793 0.839410
vt 0.734793 0.839410
vt 0.734793 0.839410
vt 0.734793 0.839410
vt 0.734793 0.839410
vt 0.734793 0.839410
vt 0.734793 0.839410
vt 0.575603 0.970356
vt 0.575603 0.970356
vt 0.575603 0.970356
vt 0.575603 0.970356
vt 0.734793 0.839410
vt 0.734793 0.839410
vt 0.734793 0.839410
vt 0.734793 0.839410
vt 0.575603 0.970356
vt 0.575603 0.970356
vt 0.575603 0.970356
vt 0.575603 0.970356
vt 0.734793 0.839410
vt 0.734793 0.839410
vt 0.734793 0.839410
vt 0.734793 0.839410
vt 0.734793 0.839410
vt 0.734793 0.839410
vt 0.734793 0.839410
vt 0.734793 0.839410
vt 0.734793 0.839410
vt 0.734793 0.839410
vt 0.734793 0.839410
vt 0.734793 0.839410
vt 0.734793 0.839410
vt 0.734793 0.839410
vt 0.734793 0.839410
vt 0.734793 0.839410
vt 0.734793 0.839410
vt 0.734793 0.839410
vt 0.734793 0.839410
vt 0.734793 0.839410
vt 0.734793 0.839410
vt 0.734793 0.839410
vt 0.734793 0.839410
vt 0.734793 0.839410
vt 0.734793 0.839410
vt 0.734793 0.839410
vt 0.734793 0.839410
vt 0.734793 0.839410
vt 0.734793 0.839410
vt 0.734793 0.839410
vt 0.734793 0.839410
vt 0.734793 0.839410
vt 0.734793 0.839410
vt 0.734793 0.839410
vt 0.734793 0.839410
vt 0.734793 0.839410
vt 0.734793 0.839410
vt 0.734793 0.839410
vt 0.734793 0.839410
vt 0.734793 0.839410
vt 0.734793 0.839410
vt 0.734793 0.839410
vt 0.734793 0.839410
vt 0.734793 0.839410
vt 0.734793 0.839410
vt 0.734793 0.839410
vt 0.734793 0.839410
vt 0.734793 0.839410
vt 0.734793 0.839410
vt 0.734793 0.839410
vt 0.734793 0.839410
vt 0.734793 0.839410
vt 0.734793 0.839410
vt 0.734793 0.839410
vt 0.734793 0.839410
vt 0.734793 0.839410
vt 0.734793 0.839410
vt 0.734793 0.839410
vt 0.734793 0.839410
vt 0.734793 0.839410
vt 0.734793 0.839410
vt 0.734793 0.839410
vt 0.734793 0.839410
vt 0.734793 0.839410
vt 0.734793 0.839410
vt 0.734793 0.839410
vt 0.734793 0.839410
vt 0.734793 0.839410
vt 0.734793 0.839410
vt 0.734793 0.839410
vt 0.734793 0.839410
vt 0.734793 0.839410
vt 0.734793 0.839410
vt 0.734793 0.839410
vt 0.734793 0.839410
vt 0.734793 0.839410
vt 0.734793 0.839410
vt 0.734793 0.839410
vt 0.734793 0.839410
vt 0.734793 0.839410
vt 0.734793 0.839410
vt 0.734793 0.839410
vt 0.734793 0.839410
vt 0.734793 0.839410
vt 0.734793 0.839410
vt 0.734793 0.839410
vt 0.734793 0.839410
vt 0.734793 0.839410
vt 0.734793 0.839410
vt 0.734793 0.839410
vt 0.734793 0.839410
vt 0.734793 0.839410
vt 0.734793 0.839410
vt 0.734793 0.839410
vt 0.734793 0.839410
vt 0.734793 0.839410
vt 0.734793 0.839410
vt 0.734793 0.839410
vt 0.734793 0.839410
vt 0.734793 0.839410
vt 0.734793 0.839410
vt 0.734793 0.839410
vt 0.734793 0.839410
vt 0.734793 0.839410
vt 0.734793 0.839410
vt 0.734793 0.839410
vt 0.734793 0.839410
vt 0.734793 0.839410
vt 0.734793 0.839410
vt 0.734793 0.839410
vt 0.734793 0.839410
vt 0.734793 0.839410
vt 0.734793 0.839410
vt 0.734793 0.839410
vt 0.734793 0.839410
vt 0.734793 0.839410
vt 0.734793 0.839410
vt 0.734793 0.839410
vt 0.734793 0.839410
vt 0.734793 0.839410
vt 0.734793 0.839410
vt 0.734793 0.839410
vt 0.734793 0.839410
vt 0.734793 0.839410
vt 0.734793 0.839410
vt 0.575603 0.970356
vt 0.575603 0.970356
vt 0.575603 0.970356
vt 0.575603 0.970356
vt 0.734793 0.839410
vt 0.734793 0.839410
vt 0.734793 0.839410
vt 0.734793 0.839410
vt 0.734793 0.839410
vt 0.734793 0.839410
vt 0.734793 0.839410
vt 0.575603 0.970356
vt 0.575603 0.970356
vt 0.575603 0.970356
vt 0.575603 0.970356
vt 0.734793 0.839410
vt 0.734793 0.839410
vt 0.734793 0.839410
vt 0.734793 0.839410
vt 0.575603 0.970356
vt 0.575603 0.970356
vt 0.575603 0.970356
vt 0.575603 0.970356
vt 0.734793 0.839410
vt 0.734793 0.839410
vt 0.734793 0.839410
vt 0.734793 0.839410
vt 0.734793 0.839410
vt 0.734793 0.839410
vt 0.734793 0.839410
vt 0.734793 0.839410
vt 0.734793 0.839410
vt 0.734793 0.839410
vt 0.734793 0.839410
vt 0.734793 0.839410
vt 0.734793 0.839410
vt 0.734793 0.839410
vt 0.734793 0.839410
vt 0.734793 0.839410
vt 0.734793 0.839410
vt 0.734793 0.839410
vt 0.734793 0.839410
vt 0.734793 0.839410
vt 0.734793 0.839410
vt 0.575603 0.970356
vt 0.575603 0.970356
vt 0.575603 0.970356
vt 0.575603 0.970356
vn 0.1082 0.7336 -0.6709
vn 0.9253 0.2198 -0.3092
vn 0.7092 0.2076 -0.6738
vn -0.7053 0.0000 -0.7089
vn -0.6021 0.5273 -0.5996
vn 0.7089 -0.0000 -0.7053
vn -0.7071 0.0000 0.7071
vn -0.6054 0.5289 0.5947
vn 0.7071 0.0000 0.7071
vn 0.5315 0.6075 0.5903
vn 0.6667 0.6555 -0.3549
vn 0.6257 0.4605 -0.6296
vn 0.5789 0.6236 0.5253
vn -0.5413 0.5890 -0.6001
vn -0.5655 0.6145 0.5501
vn 0.6359 0.4963 -0.5911
vn 0.0297 0.6927 -0.7206
vn 0.0852 0.9098 -0.4062
vn 0.0328 0.6879 -0.7250
vn -0.6011 0.5631 -0.5671
vn -0.4710 0.6521 0.5940
vn 0.5469 0.5966 0.5874
vn -0.1038 -0.8740 -0.4747
vn 0.0176 -0.2749 -0.9613
vn -0.0993 -0.6942 -0.7129
vn 0.0161 -0.7043 -0.7097
vn -0.6040 -0.5497 0.5771
vn 0.5493 -0.6037 0.5778
vn -0.6015 -0.5560 -0.5736
vn 0.5445 -0.6080 -0.5778
vn -0.0125 0.2758 -0.9611
vn -0.5651 -0.5743 -0.5923
vn 0.0576 -0.6913 -0.7203
vn 0.0330 -0.9030 -0.4283
vn 0.0541 -0.6870 -0.7246
vn 0.6641 -0.4851 -0.5689
vn 0.5513 -0.5893 0.5906
vn -0.4689 -0.6626 0.5840
vn -0.0380 0.8679 -0.4952
vn -0.0598 0.2620 -0.9632
vn -0.0074 0.6811 -0.7322
vn -0.1030 0.6859 -0.7204
vn 0.5351 0.6265 0.5668
vn -0.6262 0.5345 0.5676
vn 0.5244 0.6183 -0.5854
vn -0.6126 0.5289 -0.5874
vn 0.0481 -0.2966 -0.9538
vn 0.0034 0.7149 -0.6992
vn 0.0034 0.7170 -0.6970
vn 0.0034 0.7082 0.7060
vn 0.0034 0.7060 0.7082
vn -0.0011 -0.6985 -0.7156
vn -0.0011 -0.6977 -0.7164
vn -0.0011 -0.7075 0.7067
vn -0.0011 -0.7067 0.7075
vn 0.0002 0.7158 -0.6983
vn 0.0002 0.7160 -0.6981
vn 0.0002 0.7072 0.7070
vn 0.0002 0.7070 0.7072
vn -0.0002 -0.6983 -0.7158
vn -0.0002 -0.6981 -0.7160
vn -0.0002 -0.7072 0.7070
vn -0.0002 -0.7070 0.7072
vn -0.6988 0.7153 -0.0018
vn -0.6976 0.7164 -0.0018
vn 0.7065 0.7077 -0.0018
vn 0.7077 0.7065 -0.0018
vn -0.7153 -0.6988 0.0018
vn -0.7165 -0.6976 0.0018
vn 0.7065 -0.7077 0.0018
vn 0.7077 -0.7065 0.0018
vn -0.6993 0.7149 -0.0037
vn -0.6969 0.7171 -0.0037
vn 0.7059 0.7083 -0.0037
vn 0.7083 0.7059 -0.0037
vn -0.7155 -0.6986 0.0014
vn -0.7165 -0.6976 0.0014
vn 0.7066 -0.7076 0.0015
vn 0.7076 -0.7066 0.0015
vn -0.5773 0.5774 0.5773
vn 0.5774 0.5774 0.5773
vn 0.5784 0.5776 -0.5761
vn -0.5763 0.5771 -0.5786
vn 0.7085 -0.0000 -0.7057
vn -0.7057 0.0000 -0.7085
vn 0.7089 -0.7053 0.0000
vn 0.7071 0.7071 -0.0000
vn -0.7053 -0.7089 0.0000
vn -0.7071 0.7071 -0.0000
vn -0.0000 -0.7053 0.7089
vn 0.0000 0.7071 0.7071
vn -0.0000 -0.7089 -0.7053
vn 0.0000 0.7071 -0.7071
vn 0.6918 -0.5029 -0.5182
vn 0.6167 -0.5027 0.6058
vn -0.6188 -0.5779 0.5322
vn -0.5329 -0.5765 -0.6195
vn -0.6175 0.5770 0.5346
vn 0.4422 0.6312 0.6372
vn -0.5330 0.5793 -0.6166
vn 0.5338 0.6462 -0.5454
vn 0.5785 -0.5773 0.5763
vn 0.5765 -0.5770 -0.5786
vn 0.5859 0.5705 -0.5756
vn 0.5896 0.5746 0.5676
vn -0.5284 0.6019 0.5987
vn -0.6727 0.7396 -0.0210
vn -0.8726 0.4882 0.0168
vn -0.6675 0.7444 -0.0169
vn -0.4977 0.5763 -0.6482
vn -0.6118 -0.5866 -0.5307
vn -0.6365 -0.5816 0.5066
vn 0.5766 0.5711 0.5843
vn 0.6102 0.5675 -0.5528
vn -0.2235 0.9742 -0.0304
vn 0.5951 -0.5778 -0.5585
vn 0.5592 -0.5766 0.5957
vn -0.5308 0.5896 0.6088
vn -0.6897 0.7241 -0.0010
vn -0.9119 0.4084 0.0395
vn -0.6858 0.7277 0.0018
vn -0.5398 0.5722 -0.6174
vn -0.6301 -0.5852 -0.5105
vn -0.6200 -0.5795 0.5290
vn 0.8636 0.5036 0.0241
vn 0.2712 0.9598 0.0718
vn 0.6733 0.7389 -0.0248
vn 0.6854 0.7270 0.0415
vn 0.5854 -0.5547 -0.5913
vn 0.5898 -0.5561 0.5856
vn 0.5653 0.5962 -0.5700
vn 0.5775 0.5927 0.5613
vn -0.3179 0.9479 -0.0230
vn -0.6642 -0.5024 0.5536
vn -0.6470 -0.5032 -0.5729
vn 0.5905 -0.5772 -0.5640
vn 0.5642 -0.5770 0.5905
vn 0.5888 0.5767 -0.5663
vn -0.4751 0.6314 -0.6129
vn 0.5645 0.5795 0.5878
vn -0.5045 0.6460 0.5728
vn -0.5172 0.5945 0.6157
vn -0.6794 0.7338 -0.0042
vn -0.8950 0.4461 -0.0086
vn -0.6774 0.7355 0.0100
vn -0.5205 0.5724 -0.6336
vn -0.6284 -0.5874 -0.5099
vn -0.6193 -0.5820 0.5271
vn -0.2687 0.9622 0.0450
usemtl rpgpp_lt_mat_a.010
s 1
f 32/1/1 35/2/2 33/3/3
f 2/4/4 6/5/5 32/6/1 33/7/3 3/8/6
f 1/9/7 5/10/8 6/5/5 2/4/4
f 4/11/9 7/12/10 5/10/8 1/9/7
f 6/5/5 5/10/8 7/12/10 34/13/11 32/6/1
f 10/14/6 14/15/12 15/16/13 11/17/9
f 9/18/4 13/19/14 14/15/12 10/14/6
f 8/20/7 12/21/15 13/19/14 9/18/4
f 11/17/9 15/16/13 12/21/15 8/20/7
f 13/19/14 12/21/15 15/16/13 14/15/12
f 18/22/16 25/23/17 26/24/18 24/25/19 22/26/20 23/27/21 19/28/22
f 30/29/23 31/30/24 29/31/25
f 30/29/23 28/32/26 31/30/24
f 19/28/22 23/27/21 20/33/27 16/34/28
f 21/35/29 20/33/27 23/27/21 22/26/20
f 17/36/30 18/22/16 19/28/22 16/34/28
f 26/37/18 27/38/31 24/39/19
f 26/37/18 25/40/17 27/38/31
f 16/34/28 20/33/27 21/35/29 28/41/26 30/42/23 29/43/25 17/36/30
f 17/36/30 29/43/25 31/44/24 28/41/26 21/35/29 22/26/20 24/25/19 27/45/31 25/23/17 18/22/16
f 3/8/6 33/7/3 35/46/2 34/13/11 7/12/10 4/11/9
f 35/2/2 32/1/1 34/47/11
f 38/48/32 45/49/33 46/50/34 44/51/35 42/52/36 43/53/37 39/54/38
f 50/55/39 51/56/40 49/57/41
f 50/55/39 48/58/42 51/56/40
f 39/54/38 43/53/37 40/59/43 36/60/44
f 41/61/45 40/59/43 43/53/37 42/52/36
f 37/62/46 38/48/32 39/54/38 36/60/44
f 46/63/34 47/64/47 44/65/35
f 46/63/34 45/66/33 47/64/47
f 36/60/44 40/59/43 41/61/45 48/67/42 50/68/39 49/69/41 37/62/46
f 37/62/46 49/69/41 51/70/40 48/67/42 41/61/45 42/52/36 44/51/35 47/71/47 45/49/33 38/48/32
f 54/72/48 58/73/49 59/74/50 55/75/51
f 53/76/52 57/77/53 58/73/49 54/72/48
f 52/78/54 56/79/55 57/77/53 53/76/52
f 55/75/51 59/74/50 56/79/55 52/78/54
f 62/80/56 66/81/57 67/82/58 63/83/59
f 61/84/60 65/85/61 66/81/57 62/80/56
f 60/86/62 64/87/63 65/85/61 61/84/60
f 63/83/59 67/82/58 64/87/63 60/86/62
f 70/88/64 74/89/65 75/90/66 71/91/67
f 69/92/68 73/93/69 74/89/65 70/88/64
f 68/94/70 72/95/71 73/93/69 69/92/68
f 71/91/67 75/90/66 72/95/71 68/94/70
f 78/96/72 82/97/73 83/98/74 79/99/75
f 77/100/76 81/101/77 82/97/73 78/96/72
f 76/102/78 80/103/79 81/101/77 77/100/76
f 79/99/75 83/98/74 80/103/79 76/102/78
f 88/104/80 91/105/81 90/106/82 89/107/83
f 86/108/84 90/106/82 91/105/81 87/109/9
f 85/110/85 89/107/83 90/106/82 86/108/84
f 84/111/7 88/104/80 89/107/83 85/110/85
f 87/109/9 91/105/81 88/104/80 84/111/7
f 96/112/80 99/113/81 98/114/82 97/115/83
f 94/116/84 98/114/82 99/113/81 95/117/9
f 93/118/85 97/115/83 98/114/82 94/116/84
f 92/119/7 96/112/80 97/115/83 93/118/85
f 95/117/9 99/113/81 96/112/80 92/119/7
f 104/120/80 107/121/81 106/122/82 105/123/83
f 102/124/84 106/122/82 107/121/81 103/125/9
f 101/126/85 105/123/83 106/122/82 102/124/84
f 100/127/7 104/120/80 105/123/83 101/126/85
f 103/125/9 107/121/81 104/120/80 100/127/7
f 112/128/80 115/129/81 114/130/82 113/131/83
f 110/132/84 114/130/82 115/129/81 111/133/9
f 109/134/85 113/131/83 114/130/82 110/132/84
f 108/135/7 112/128/80 113/131/83 109/134/85
f 111/133/9 115/129/81 112/128/80 108/135/7
f 118/136/86 122/137/86 123/138/87 119/139/87
f 117/140/88 121/141/88 122/137/86 118/136/86
f 116/142/89 120/143/89 121/141/88 117/140/88
f 119/139/87 123/138/87 120/143/89 116/142/89
f 126/144/86 130/145/86 131/146/87 127/147/87
f 125/148/88 129/149/88 130/145/86 126/144/86
f 124/150/89 128/151/89 129/149/88 125/148/88
f 127/147/87 131/146/87 128/151/89 124/150/89
f 134/152/90 138/153/90 139/154/91 135/155/91
f 133/156/92 137/157/92 138/153/90 134/152/90
f 132/158/93 136/159/93 137/157/92 133/156/92
f 135/155/91 139/154/91 136/159/93 132/158/93
f 142/160/90 146/161/90 147/162/91 143/163/91
f 141/164/92 145/165/92 146/161/90 142/160/90
f 140/166/93 144/167/93 145/165/92 141/164/92
f 143/163/91 147/162/91 144/167/93 140/166/93
f 151/168/94 155/169/95 152/170/96 148/171/97
f 153/172/98 152/170/96 155/169/95 154/173/99
f 149/174/100 150/175/101 151/168/94 148/171/97
f 192/176/102 196/177/103 197/178/104 193/179/105
f 151/168/94 150/175/101 154/173/99 155/169/95
f 150/175/101 149/174/100 153/172/98 154/173/99
f 158/180/106 165/181/107 166/182/108 164/183/109 162/184/110 163/185/111 159/186/112
f 157/187/113 161/188/114 162/184/110 164/183/109 167/189/115 165/181/107 158/180/106
f 159/186/112 163/185/111 160/190/116 156/191/117
f 161/188/114 160/190/116 163/185/111 162/184/110
f 157/187/113 158/180/106 159/186/112 156/191/117
f 166/192/108 167/193/115 164/194/109
f 166/192/108 165/195/107 167/193/115
f 148/171/97 152/170/96 153/172/98 149/174/100
f 170/196/118 177/197/119 178/198/120 176/199/121 174/200/122 175/201/123 171/202/124
f 182/203/125 183/204/126 181/205/127
f 182/203/125 180/206/128 183/204/126
f 171/202/124 175/201/123 172/207/129 168/208/130
f 173/209/131 172/207/129 175/201/123 174/200/122
f 169/210/132 170/196/118 171/202/124 168/208/130
f 178/211/120 179/212/133 176/213/121
f 178/211/120 177/214/119 179/212/133
f 168/208/130 172/207/129 173/209/131 180/215/128 182/216/125 181/217/127 169/210/132
f 169/210/132 181/217/127 183/218/126 180/215/128 173/209/131 174/200/122 176/199/121 179/219/133 177/197/119 170/196/118
f 187/220/134 191/221/135 188/222/136 184/223/137
f 189/224/138 188/222/136 191/221/135 190/225/139
f 185/226/140 186/227/141 187/220/134 184/223/137
f 185/226/140 189/224/138 190/225/139 186/227/141
f 194/228/142 201/229/143 202/230/144 200/231/145 198/232/146 199/233/147 195/234/148
f 193/179/105 197/178/104 198/232/146 200/231/145 203/235/149 201/229/143 194/228/142
f 195/234/148 199/233/147 196/177/103 192/176/102
f 197/178/104 196/177/103 199/233/147 198/232/146
f 193/179/105 194/228/142 195/234/148 192/176/102
f 202/236/144 203/237/149 200/238/145
f 202/236/144 201/239/143 203/237/149
f 184/223/137 188/222/136 189/224/138 185/226/140
f 156/191/117 160/190/116 161/188/114 157/187/113
f 186/227/141 190/225/139 191/221/135 187/220/134
