# Blender v2.79 (sub 0) OBJ File: ''
# www.blender.org
mtllib rpgpp_lt_shield_wall_01b.mtl
o rpgpp_lt_shield_wall_01b_rpgpp_lt_shield_wall_01b.001
v -0.384383 0.221246 0.006620
v 0.382285 0.221245 0.006621
v 0.441586 -0.000073 0.004681
v 0.382284 -0.221391 0.006621
v -0.384384 -0.221390 0.006620
v -0.449899 -0.000072 0.016080
v 0.388756 -0.197237 0.016174
v -0.391261 -0.197934 0.014956
v 0.355718 -0.247957 0.016174
v -0.355975 -0.249799 0.016174
v -0.391967 0.195380 0.014831
v 0.388104 0.199528 0.016174
v 0.358713 0.244817 0.016174
v -0.359373 0.246257 0.016174
v -0.437526 -0.023134 0.016358
v 0.435357 -0.023320 0.016174
v 0.432549 0.033654 0.016174
v -0.436375 0.026916 0.016300
v -0.001050 -0.000073 0.088743
v -0.222367 0.383262 0.016174
v -0.001049 0.442563 0.016174
v 0.220269 0.383261 0.016174
v 0.220268 -0.383407 0.016174
v -0.001050 -0.442708 0.016174
v -0.222368 -0.383406 0.016174
v -0.501050 -0.000072 0.016174
v -0.434062 -0.250072 0.016174
v -0.251050 -0.433085 0.016174
v -0.001050 -0.500072 0.016174
v 0.248950 -0.433085 0.016174
v 0.431963 -0.250073 0.016174
v 0.498950 -0.000073 0.016174
v 0.431963 0.249927 0.016174
v 0.248951 0.432940 0.016174
v -0.001049 0.499927 0.016174
v -0.251049 0.432940 0.016174
v -0.434062 0.249928 0.016174
v -0.464075 -0.000072 0.028708
v -0.001049 0.462953 0.028709
v 0.399942 -0.231586 0.028709
v -0.402042 -0.231585 0.028708
v 0.230464 0.400919 0.028709
v 0.230463 -0.401065 0.028709
v -0.402041 0.231441 0.028708
v 0.399943 0.231440 0.028709
v -0.001050 -0.463098 0.028708
v -0.232562 0.400920 0.028708
v 0.461976 -0.000073 0.028709
v -0.232562 -0.401065 0.028708
v -0.064191 -0.000073 0.073261
v -0.032620 -0.054754 0.073261
v -0.001049 0.063069 0.073261
v 0.053632 -0.031643 0.073261
v -0.055731 -0.031643 0.073261
v 0.030521 0.054609 0.073261
v 0.030521 -0.054754 0.073261
v -0.055731 0.031498 0.073261
v 0.053632 0.031498 0.073261
v -0.001050 -0.063214 0.073261
v -0.032620 0.054609 0.073261
v 0.062092 -0.000073 0.073261
v -0.158474 -0.000073 0.029127
v -0.079762 -0.136406 0.029127
v -0.001049 0.157352 0.029127
v 0.135284 -0.078785 0.029127
v -0.137383 -0.078785 0.029127
v 0.077663 0.136261 0.029127
v 0.077663 -0.136406 0.029127
v -0.137383 0.078640 0.029127
v 0.135284 0.078640 0.029127
v -0.001050 -0.157497 0.029127
v -0.079762 0.136261 0.029127
v 0.156375 -0.000073 0.029127
v 0.148889 -0.086640 0.016263
v -0.150988 -0.086640 0.016263
v 0.085518 0.149866 0.016263
v 0.085518 -0.150011 0.016263
v -0.150988 0.086495 0.016263
v 0.148889 0.086494 0.016263
v -0.001050 -0.173207 0.016263
v -0.087616 0.149866 0.016263
v 0.172085 -0.000073 0.016263
v -0.174184 -0.000072 0.016263
v -0.087617 -0.150011 0.016263
v -0.001049 0.173062 0.016263
v -0.501050 -0.000072 -0.033883
v -0.434062 -0.250072 -0.033883
v -0.251050 -0.433085 -0.033883
v -0.001050 -0.500072 -0.033883
v 0.248950 -0.433085 -0.033883
v 0.431963 -0.250073 -0.033883
v 0.498950 -0.000073 -0.033882
v 0.431963 0.249927 -0.033882
v 0.248951 0.432940 -0.033882
v -0.001049 0.499927 -0.033882
v -0.251049 0.432940 -0.033883
v -0.434062 0.249928 -0.033883
v -0.384383 0.221246 0.006620
v -0.222367 0.383262 0.016174
v -0.001049 0.442563 0.016174
v 0.220269 0.383261 0.016174
v 0.382285 0.221245 0.006621
v 0.441586 -0.000073 0.004681
v 0.382284 -0.221391 0.006621
v 0.220268 -0.383407 0.016174
v -0.001050 -0.442708 0.016174
v -0.222368 -0.383406 0.016174
v -0.384384 -0.221390 0.006620
v -0.449899 -0.000072 0.016080
v 0.388756 -0.197237 0.016174
v -0.391261 -0.197934 0.014956
v 0.355718 -0.247957 0.016174
v -0.355975 -0.249799 0.016174
v -0.391967 0.195380 0.014831
v 0.388104 0.199528 0.016174
v 0.358713 0.244817 0.016174
v -0.359373 0.246257 0.016174
v -0.437526 -0.023134 0.016358
v 0.435357 -0.023320 0.016174
v 0.432549 0.033654 0.016174
v -0.436375 0.026916 0.016300
v 0.411988 0.110391 0.016174
v -0.414370 0.110391 0.015572
vt 0.891941 0.755342
vt 0.891941 0.755342
vt 0.891941 0.755342
vt 0.891941 0.755342
vt 0.891941 0.755342
vt 0.891941 0.755342
vt 0.891941 0.755342
vt 0.891941 0.755342
vt 0.891941 0.755342
vt 0.891941 0.755342
vt 0.891941 0.755342
vt 0.891941 0.755342
vt 0.891941 0.755342
vt 0.891941 0.755342
vt 0.891941 0.755342
vt 0.891941 0.755342
vt 0.891941 0.755342
vt 0.891941 0.755342
vt 0.891941 0.755342
vt 0.891941 0.755342
vt 0.891941 0.755342
vt 0.891941 0.755342
vt 0.891941 0.755342
vt 0.891941 0.755342
vt 0.891941 0.755342
vt 0.891941 0.755342
vt 0.891941 0.755342
vt 0.891941 0.755342
vt 0.891941 0.755342
vt 0.891941 0.755342
vt 0.891941 0.755342
vt 0.886765 0.714635
vt 0.886765 0.714635
vt 0.886765 0.714635
vt 0.886765 0.714635
vt 0.886765 0.714635
vt 0.886765 0.714635
vt 0.886765 0.714635
vt 0.886765 0.714635
vt 0.886765 0.714635
vt 0.886765 0.714635
vt 0.886765 0.714635
vt 0.886765 0.714635
vt 0.886765 0.714635
vt 0.886765 0.714635
vt 0.886765 0.714635
vt 0.886765 0.714635
vt 0.886765 0.714635
vt 0.886765 0.714635
vt 0.886765 0.714635
vt 0.886765 0.714635
vt 0.886765 0.714635
vt 0.886765 0.714635
vt 0.891941 0.755342
vt 0.891941 0.755342
vt 0.891941 0.755342
vt 0.886765 0.714635
vt 0.886765 0.714635
vt 0.886765 0.714635
vt 0.886765 0.714635
vt 0.886765 0.714635
vt 0.886765 0.714635
vt 0.886765 0.714635
vt 0.886765 0.714635
vt 0.886765 0.714635
vt 0.886765 0.714635
vt 0.886765 0.714635
vt 0.891941 0.755342
vt 0.891941 0.755342
vt 0.891941 0.755342
vt 0.886765 0.714635
vt 0.886765 0.714635
vt 0.886765 0.714635
vt 0.886765 0.714635
vt 0.886765 0.714635
vt 0.886765 0.714635
vt 0.886765 0.714635
vt 0.886765 0.714635
vt 0.886765 0.714635
vt 0.886765 0.714635
vt 0.886765 0.714635
vt 0.886765 0.714635
vt 0.886765 0.714635
vt 0.886765 0.714635
vt 0.886765 0.714635
vt 0.886765 0.714635
vt 0.886765 0.714635
vt 0.886765 0.714635
vt 0.886765 0.714635
vt 0.886765 0.714635
vt 0.886765 0.714635
vt 0.886765 0.714635
vt 0.886765 0.714635
vt 0.886765 0.714635
vt 0.886765 0.714635
vt 0.886765 0.714635
vt 0.886765 0.714635
vt 0.227149 0.455797
vt 0.227149 0.455797
vt 0.227149 0.455797
vt 0.227149 0.455797
vt 0.227149 0.455797
vt 0.227149 0.455797
vt 0.227149 0.455797
vt 0.227149 0.455797
vt 0.227149 0.455797
vt 0.227149 0.455797
vt 0.227149 0.455797
vt 0.227149 0.455797
vt 0.227149 0.455797
vt 0.647703 0.198084
vt 0.647703 0.198084
vt 0.647703 0.198084
vt 0.647703 0.198084
vt 0.227149 0.455797
vt 0.227149 0.455797
vt 0.227149 0.455797
vt 0.227149 0.455797
vt 0.227149 0.455797
vt 0.227149 0.455797
vt 0.227149 0.455797
vt 0.227149 0.455797
vt 0.227149 0.455797
vt 0.227149 0.455797
vt 0.227149 0.455797
vt 0.227149 0.455797
vt 0.227149 0.455797
vn -0.5473 0.0000 0.8370
vn -0.3471 -0.0000 0.9378
vn -0.3006 0.1735 0.9378
vn -0.4740 0.2736 0.8370
vn -0.0000 -0.5473 0.8370
vn -0.0000 -0.3471 0.9378
vn -0.1735 -0.3006 0.9378
vn -0.2736 -0.4740 0.8370
vn -0.3006 -0.1735 0.9378
vn -0.4740 -0.2736 0.8370
vn 0.4739 -0.2736 0.8370
vn 0.3006 -0.1735 0.9378
vn 0.1735 -0.3006 0.9378
vn 0.2736 -0.4740 0.8370
vn -0.0000 -0.0000 1.0000
vn 0.5473 -0.0000 0.8370
vn 0.3471 -0.0000 0.9378
vn 0.0000 0.5473 0.8370
vn -0.0000 0.3471 0.9378
vn 0.1735 0.3006 0.9378
vn 0.2736 0.4739 0.8370
vn -0.3168 0.5487 0.7737
vn -0.5487 0.3168 0.7737
vn -0.2736 0.4740 0.8370
vn -0.1735 0.3006 0.9378
vn 0.3168 -0.5487 0.7737
vn 0.5487 -0.3168 0.7737
vn -0.6336 0.0000 0.7737
vn 0.6336 -0.0000 0.7737
vn 0.5487 0.3168 0.7737
vn 0.4739 0.2736 0.8370
vn -0.8410 0.0000 0.5411
vn 0.0846 0.0010 0.9964
vn 0.0928 -0.0572 0.9940
vn -0.7283 0.4205 0.5411
vn 0.4205 -0.7283 0.5411
vn -0.0206 0.0357 0.9992
vn -0.0000 0.0412 0.9992
vn -0.0000 -0.8410 0.5411
vn 0.4205 0.7283 0.5411
vn -0.0206 -0.0357 0.9992
vn -0.0903 -0.0474 0.9948
vn 0.7283 0.4205 0.5411
vn 0.0206 -0.0357 0.9992
vn -0.4205 0.7283 0.5411
vn -0.1133 0.0046 0.9935
vn 0.8410 -0.0000 0.5411
vn 0.0206 0.0357 0.9992
vn -0.4205 -0.7283 0.5411
vn -0.0938 0.0490 0.9944
vn 0.7283 -0.4205 0.5411
vn -0.7283 -0.4205 0.5411
vn 0.0944 0.0549 0.9940
vn 0.3168 0.5487 0.7737
vn 0.0000 0.6336 0.7737
vn 0.3006 0.1735 0.9378
vn 0.0000 0.8410 0.5411
vn -0.0000 -0.0412 0.9992
vn -0.0000 -0.5237 0.8519
vn -0.2619 -0.4535 0.8519
vn 0.2618 -0.4535 0.8519
vn -0.0000 0.5237 0.8519
vn 0.2619 0.4535 0.8519
vn -0.6494 -0.3442 0.6781
vn -0.6065 -0.0855 0.7904
vn -0.2619 0.4535 0.8519
vn 0.3907 -0.4419 0.8075
vn -0.5487 -0.3168 0.7737
vn -0.3168 -0.5487 0.7737
vn -0.0000 -0.6336 0.7737
vn 1.0000 -0.0000 -0.0000
vn 0.8660 -0.5000 -0.0000
vn -0.5000 -0.8660 0.0000
vn -0.8660 -0.5000 0.0000
vn -0.5000 0.8660 0.0000
vn 0.0000 1.0000 0.0000
vn -0.0000 -1.0000 -0.0000
vn 0.8660 0.5000 -0.0000
vn -0.8660 0.5000 0.0000
vn 0.5000 -0.8660 -0.0000
vn 0.5000 0.8660 0.0000
vn -1.0000 0.0000 0.0000
vn 0.3921 0.4334 0.8114
vn 0.6422 0.3571 0.6782
vn 0.6118 0.1060 0.7839
vn 0.5568 0.1759 0.8118
vn 0.6651 0.0134 0.7466
vn 0.6073 -0.1134 0.7863
vn 0.6349 -0.3699 0.6783
vn 0.5577 -0.1694 0.8125
vn -0.5669 -0.1974 0.7998
vn -0.7622 0.0243 0.6468
vn -0.5749 0.2359 0.7835
vn -0.5992 0.0950 0.7950
vn -0.3897 -0.4463 0.8056
vn -0.3915 0.4377 0.8094
vn -0.6491 0.3447 0.6781
vn -0.0003 0.2483 0.9687
vn -0.0006 -0.1484 0.9889
vn -0.0006 -0.1511 0.9885
vn -0.0003 0.2478 0.9688
vn -0.0006 -0.1510 0.9885
vn -0.0006 -0.1522 0.9883
vn -0.0014 0.1337 0.9910
vn -0.0003 -0.2773 0.9608
vn -0.0003 -0.2769 0.9609
vn -0.0014 0.1372 0.9905
vn 0.0043 -0.1146 0.9934
vn 0.0040 -0.1086 0.9941
vn -0.0007 0.0044 1.0000
vn 0.0037 0.1507 0.9886
vn 0.0035 0.1427 0.9898
vn -0.0015 0.1494 0.9888
vn -0.0015 0.1524 0.9883
vn 0.0069 0.0265 0.9996
vn 0.0069 0.0303 0.9995
usemtl rpgpp_lt_mat_a.022
s 1
f 62/1/1 50/2/2 57/3/3 69/4/4
f 71/5/5 59/6/6 51/7/7 63/8/8
f 63/8/8 51/7/7 54/9/9 66/10/10
f 65/11/11 53/12/12 56/13/13 68/14/14
f 50/2/2 19/15/15 57/3/3
f 68/14/14 56/13/13 59/6/6 71/5/5
f 73/16/16 61/17/17 53/12/12 65/11/11
f 64/18/18 52/19/19 55/20/20 67/21/21
f 66/10/10 54/9/9 50/2/2 62/1/1
f 81/22/22 78/23/23 69/4/4 72/24/24
f 69/4/4 57/3/3 60/25/25 72/24/24
f 77/26/26 74/27/27 65/11/11 68/14/14
f 78/23/23 83/28/28 62/1/1 69/4/4
f 82/29/29 79/30/30 70/31/31 73/16/16
f 74/27/27 82/29/29 73/16/16 65/11/11
f 26/32/32 38/33/33 44/34/34 37/35/35
f 30/36/36 43/37/37 46/38/38 29/39/39
f 34/40/40 42/41/41 45/42/42 33/43/43
f 37/35/35 44/34/34 47/44/44 36/45/45
f 33/43/43 45/42/42 48/46/46 32/47/47
f 29/39/39 46/38/38 49/48/48 28/49/49
f 48/46/46 40/50/50 31/51/51 32/47/47
f 27/52/52 28/49/49 49/48/48 41/53/53
f 31/51/51 40/50/50 43/37/37 30/36/36
f 27/52/52 41/53/53 38/33/33 26/32/32
f 76/54/54 85/55/55 64/18/18 67/21/21
f 55/20/20 19/15/15 58/56/56
f 54/9/9 19/15/15 50/2/2
f 53/12/12 19/15/15 56/13/13
f 52/19/19 19/15/15 55/20/20
f 51/7/7 19/15/15 54/9/9
f 19/15/15 53/12/12 61/17/17
f 57/3/3 19/15/15 60/25/25
f 59/6/6 19/15/15 51/7/7
f 58/56/56 19/15/15 61/17/17
f 35/57/57 39/58/58 42/41/41 34/40/40
f 21/59/59 22/60/60 42/41/41 39/58/58
f 20/61/61 21/59/59 39/58/58 47/44/44
f 24/62/62 25/63/63 49/48/48 46/38/38
f 2/64/64 12/65/65 45/42/42
f 36/45/45 47/44/44 39/58/58 35/57/57
f 23/66/66 24/62/62 46/38/38 43/37/37
f 14/67/67 20/61/61 47/44/44 44/34/34
f 72/24/24 60/25/25 52/19/19 64/18/18
f 67/21/21 55/20/20 58/56/56 70/31/31
f 56/13/13 19/15/15 59/6/6
f 19/15/15 52/19/19 60/25/25
f 63/8/8 66/10/10 75/68/68 84/69/69
f 63/8/8 84/69/69 80/70/70 71/5/5
f 67/21/21 70/31/31 79/30/30 76/54/54
f 62/1/1 83/28/28 75/68/68 66/10/10
f 64/18/18 85/55/55 81/22/22 72/24/24
f 68/14/14 71/5/5 80/70/70 77/26/26
f 92/71/71 32/47/47 31/51/51 91/72/72
f 88/73/73 28/49/49 27/52/52 87/74/74
f 96/75/75 36/45/45 35/57/57 95/76/76
f 28/49/49 88/73/73 89/77/77 29/39/39
f 32/47/47 92/71/71 93/78/78 33/43/43
f 97/79/79 37/35/35 36/45/45 96/75/75
f 90/80/80 30/36/36 29/39/39 89/77/77
f 94/81/81 34/40/40 33/43/43 93/78/78
f 86/82/82 26/32/32 37/35/35 97/79/79
f 87/74/74 27/52/52 26/32/32 86/82/82
f 91/72/72 31/51/51 30/36/36 90/80/80
f 95/76/76 35/57/57 34/40/40 94/81/81
f 10/83/83 5/84/84 41/53/53
f 5/84/84 8/85/85 41/53/53
f 15/86/86 6/87/87 38/33/33
f 11/88/88 1/89/89 44/34/34
f 6/87/87 18/90/90 38/33/33
f 17/91/91 3/92/92 48/46/46
f 40/50/50 48/46/46 16/93/93 7/94/94
f 12/65/65 17/91/91 48/46/46 45/42/42
f 13/95/95 2/64/64 45/42/42
f 18/90/90 11/88/88 44/34/34 38/33/33
f 1/89/89 14/67/67 44/34/34
f 25/63/63 10/83/83 41/53/53 49/48/48
f 8/85/85 15/86/86 38/33/33 41/53/53
f 9/96/96 23/66/66 43/37/37 40/50/50
f 48/46/46 3/92/92 16/93/93
f 22/60/60 13/95/95 45/42/42 42/41/41
f 40/50/50 7/94/94 4/97/97
f 4/97/97 9/96/96 40/50/50
f 70/31/31 58/56/56 61/17/17 73/16/16
f 112/98/98 104/99/99 108/100/100 113/101/101
f 105/102/15 112/98/98 113/101/101 107/103/15 106/104/15
f 111/105/102 108/100/100 104/99/99 110/106/103
f 102/107/104 116/108/105 117/109/106 98/110/107
f 121/111/108 120/112/109 122/113/110 123/114/110
f 118/115/111 111/105/102 110/106/103 119/116/112
f 114/117/113 115/118/114 102/107/104 98/110/107
f 116/108/105 101/119/15 100/120/15 99/121/15 117/109/106
f 109/122/115 118/115/111 119/116/112 103/123/116
f 109/122/115 103/123/116 120/124/109 121/125/108
f 123/126/110 122/127/110 115/118/114 114/117/113
