# Blender v2.79 (sub 0) OBJ File: ''
# www.blender.org
mtllib rpgpp_lt_ladder_01.mtl
o rpgpp_lt_ladder_01_rpgpp_lt_ladder_01.001
v -0.344371 2.703923 -0.335025
v -0.343686 2.712102 -0.386263
v -0.340784 2.786795 -0.348024
v -0.341469 2.763320 -0.394297
v 0.326690 2.675587 -0.330580
v 0.327711 2.683749 -0.381816
v 0.332033 2.758367 -0.343565
v 0.331013 2.734910 -0.389841
v -0.325413 2.321123 -0.274979
v -0.326078 2.329304 -0.326218
v -0.328897 2.404000 -0.287979
v -0.328232 2.380524 -0.334252
v 0.345682 2.348669 -0.279300
v 0.345353 2.356860 -0.330540
v 0.343955 2.431600 -0.292309
v 0.344285 2.408114 -0.338580
v -0.337588 1.900324 -0.217227
v -0.337086 1.909869 -0.268230
v -0.334957 1.983548 -0.228024
v -0.335459 1.961303 -0.274904
v 0.333757 1.879460 -0.214520
v 0.334595 1.888990 -0.265522
v 0.338144 1.962610 -0.225308
v 0.337306 1.940380 -0.272189
v -0.317160 1.451720 -0.156478
v -0.317469 1.460513 -0.207618
v -0.318776 1.534799 -0.168510
v -0.318467 1.511859 -0.215054
v 0.337987 1.466431 -0.158608
v 0.336315 1.475141 -0.209736
v 0.329228 1.549073 -0.170577
v 0.330901 1.526216 -0.217133
v -0.351160 1.049307 -0.096878
v -0.350837 1.057497 -0.148118
v -0.349467 1.132238 -0.109887
v -0.349790 1.108751 -0.156158
v 0.356667 1.035932 -0.094780
v 0.357326 1.044112 -0.146019
v 0.360117 1.118810 -0.107780
v 0.359459 1.095333 -0.154053
v -0.322953 0.637139 -0.029801
v -0.323210 0.643546 -0.081294
v -0.324298 0.719575 -0.045683
v -0.324041 0.694494 -0.091110
v 0.336928 0.650002 -0.032279
v 0.337007 0.656410 -0.083773
v 0.337343 0.732447 -0.048163
v 0.337264 0.707364 -0.093590
v -0.327663 0.193086 0.055132
v -0.328435 0.198986 0.003583
v -0.331704 0.275281 0.038482
v -0.330932 0.249785 -0.006707
v 0.356109 0.223629 0.048945
v 0.355673 0.229541 -0.002607
v 0.353826 0.305889 0.032282
v 0.354262 0.280381 -0.012905
v -0.290769 0.004448 0.028355
v 0.308656 -0.004448 -0.028355
v -0.290769 -0.004448 -0.028355
v 0.308656 0.004448 0.028355
v -0.191344 0.004448 0.028355
v 0.209231 -0.004448 -0.028355
v -0.191344 -0.004448 -0.028355
v 0.209231 0.004448 0.028355
v -0.298052 0.854040 -0.129457
v -0.298052 0.845144 -0.186167
v -0.198626 0.854040 -0.129457
v -0.198626 0.845144 -0.186167
v -0.298052 1.463615 -0.218671
v -0.298052 1.454719 -0.275381
v -0.198626 1.463615 -0.218671
v -0.198626 1.454719 -0.275381
v -0.298052 2.361052 -0.341160
v -0.298052 2.352156 -0.397869
v -0.198626 2.361052 -0.341160
v -0.198626 2.352156 -0.397869
v -0.298052 2.976306 -0.438326
v -0.298052 2.967410 -0.495036
v -0.198626 2.976306 -0.438326
v -0.198626 2.967410 -0.495036
v 0.220154 0.852041 -0.129144
v 0.220154 0.843146 -0.185853
v 0.319579 0.852041 -0.129144
v 0.319579 0.843146 -0.185853
v 0.212484 1.463615 -0.218671
v 0.212484 1.454719 -0.275381
v 0.311909 1.463615 -0.218671
v 0.311909 1.454719 -0.275381
v 0.196891 2.361052 -0.341160
v 0.196891 2.352156 -0.397869
v 0.296317 2.361052 -0.341160
v 0.296317 2.352156 -0.397869
v 0.193169 2.976306 -0.438326
v 0.193169 2.967410 -0.495036
v 0.292594 2.976306 -0.438326
v 0.292594 2.967410 -0.495036
v -0.241057 -0.008896 -0.056710
v -0.241057 0.008895 0.056710
v -0.248339 0.840697 -0.214522
v -0.248339 0.858487 -0.101102
v -0.248339 1.450271 -0.303736
v -0.248339 1.468062 -0.190316
v -0.248339 2.347708 -0.426224
v -0.248339 2.365499 -0.312805
v -0.248339 2.962963 -0.523391
v -0.248339 2.980753 -0.409971
v 0.258943 0.008895 0.056710
v 0.269867 0.856489 -0.100789
v 0.269867 0.838698 -0.214208
v 0.258943 -0.008896 -0.056710
v 0.262197 1.450271 -0.303736
v 0.262197 1.468062 -0.190316
v 0.246604 2.347708 -0.426224
v 0.246604 2.365499 -0.312805
v 0.242881 2.962963 -0.523391
v 0.242881 2.980753 -0.409971
v -0.248339 2.971858 -0.466681
v 0.242881 2.971858 -0.466681
v -0.241057 -0.000000 0.000000
v 0.258943 -0.000000 0.000000
v -0.329683 0.240239 0.076701
v 0.354967 0.270814 0.070507
v 0.354967 0.262051 0.027245
v -0.329683 0.231476 0.033438
v -0.342578 2.750085 -0.311392
v 0.329362 2.721703 -0.306940
v -0.327155 2.367288 -0.251347
v 0.344819 2.394861 -0.255672
v -0.336272 1.945860 -0.192378
v 0.335950 1.924960 -0.189666
v -0.317968 1.497631 -0.132308
v 0.333608 1.512124 -0.134407
v -0.350314 1.095499 -0.073250
v 0.358392 1.082097 -0.071148
v -0.323625 0.684127 -0.007792
v 0.337136 0.696995 -0.010271
v 0.329362 2.714863 -0.350548
v -0.342578 2.743245 -0.355000
v 0.344819 2.388021 -0.299280
v -0.327155 2.360448 -0.294955
v 0.335950 1.919280 -0.233441
v -0.336272 1.940181 -0.236153
v 0.333608 1.505797 -0.178092
v -0.317968 1.491305 -0.175994
v 0.358392 1.075257 -0.114756
v -0.350314 1.088658 -0.116858
v 0.337136 0.688643 -0.053615
v -0.323625 0.675776 -0.051136
vt 0.731014 0.850021
vt 0.731014 0.850021
vt 0.731014 0.850021
vt 0.731014 0.850021
vt 0.731014 0.850021
vt 0.731014 0.850021
vt 0.731014 0.850021
vt 0.731014 0.850021
vt 0.731014 0.850021
vt 0.731014 0.850021
vt 0.731014 0.850021
vt 0.731014 0.850021
vt 0.731014 0.850021
vt 0.731014 0.850021
vt 0.731014 0.850021
vt 0.731014 0.850021
vt 0.731014 0.850021
vt 0.731014 0.850021
vt 0.731014 0.850021
vt 0.731014 0.850021
vt 0.731014 0.850021
vt 0.731014 0.850021
vt 0.731014 0.850021
vt 0.731014 0.850021
vt 0.731014 0.850021
vt 0.731014 0.850021
vt 0.731014 0.850021
vt 0.731014 0.850021
vt 0.731014 0.850021
vt 0.731014 0.850021
vt 0.731014 0.850021
vt 0.731014 0.850021
vt 0.731014 0.850021
vt 0.731014 0.850021
vt 0.731014 0.850021
vt 0.731014 0.850021
vt 0.731014 0.850021
vt 0.731014 0.850021
vt 0.731014 0.850021
vt 0.731014 0.850021
vt 0.731014 0.850021
vt 0.731014 0.850021
vt 0.731014 0.850021
vt 0.731014 0.850021
vt 0.731014 0.850021
vt 0.731014 0.850021
vt 0.731014 0.850021
vt 0.731014 0.850021
vt 0.731014 0.850021
vt 0.731014 0.850021
vt 0.731014 0.850021
vt 0.731014 0.850021
vt 0.731014 0.850021
vt 0.731014 0.850021
vt 0.731014 0.850021
vt 0.731014 0.850021
vt 0.731014 0.850021
vt 0.731014 0.850021
vt 0.731014 0.850021
vt 0.731014 0.850021
vt 0.731014 0.850021
vt 0.731014 0.850021
vt 0.731014 0.850021
vt 0.731014 0.850021
vt 0.731014 0.850021
vt 0.731014 0.850021
vt 0.731014 0.850021
vt 0.731014 0.850021
vt 0.731014 0.850021
vt 0.731014 0.850021
vt 0.731014 0.850021
vt 0.731014 0.850021
vt 0.731014 0.850021
vt 0.731014 0.850021
vt 0.731014 0.850021
vt 0.731014 0.850021
vt 0.731014 0.850021
vt 0.731014 0.850021
vt 0.731014 0.850021
vt 0.731014 0.850021
vt 0.731014 0.850021
vt 0.731014 0.850021
vt 0.731014 0.850021
vt 0.731014 0.850021
vt 0.731014 0.850021
vt 0.731014 0.850021
vt 0.731014 0.850021
vt 0.731014 0.850021
vt 0.731014 0.850021
vt 0.731014 0.850021
vt 0.731014 0.850021
vt 0.731014 0.850021
vt 0.731014 0.850021
vt 0.731014 0.850021
vt 0.731014 0.850021
vt 0.731014 0.850021
vt 0.731014 0.850021
vt 0.731014 0.850021
vt 0.731014 0.850021
vt 0.731014 0.850021
vt 0.731014 0.850021
vt 0.731014 0.850021
vt 0.731014 0.850021
vt 0.731014 0.850021
vt 0.731014 0.850021
vt 0.731014 0.850021
vt 0.731014 0.850021
vt 0.731014 0.850021
vt 0.731014 0.850021
vt 0.731014 0.850021
vt 0.731014 0.850021
vt 0.731014 0.850021
vt 0.731014 0.850021
vt 0.731014 0.850021
vt 0.731014 0.850021
vt 0.731014 0.850021
vt 0.731014 0.850021
vt 0.731014 0.850021
vt 0.731014 0.850021
vt 0.731014 0.850021
vt 0.731014 0.850021
vt 0.731014 0.850021
vt 0.731014 0.850021
vt 0.731014 0.850021
vt 0.731014 0.850021
vt 0.731014 0.850021
vt 0.731014 0.850021
vt 0.731014 0.850021
vt 0.731014 0.850021
vt 0.731014 0.850021
vt 0.731014 0.850021
vt 0.731014 0.850021
vt 0.731014 0.850021
vt 0.731014 0.850021
vt 0.731014 0.850021
vt 0.731014 0.850021
vt 0.731014 0.850021
vt 0.731014 0.850021
vt 0.731014 0.850021
vt 0.731014 0.850021
vt 0.731014 0.850021
vt 0.731014 0.850021
vt 0.731014 0.850021
vt 0.731014 0.850021
vt 0.731014 0.850021
vt 0.731014 0.850021
vt 0.731014 0.850021
vt 0.731014 0.850021
vn -0.5625 0.8176 0.1230
vn 0.6360 0.7603 0.1318
vn 0.6203 0.3337 -0.7099
vn -0.5750 0.3904 -0.7190
vn -0.6153 -0.5416 -0.5728
vn 0.5694 -0.5979 -0.5642
vn 0.5537 -0.7467 0.3685
vn -0.6278 -0.6904 0.3595
vn -0.5952 0.1496 0.7896
vn 0.5948 0.0932 0.7984
vn -0.6269 0.7681 0.1308
vn 0.5723 0.8106 0.1239
vn 0.5811 0.3837 -0.7177
vn -0.6148 0.3409 -0.7112
vn -0.5756 -0.5911 -0.5650
vn 0.6097 -0.5488 -0.5719
vn 0.6186 -0.6979 0.3609
vn -0.5635 -0.7400 0.3673
vn -0.5952 0.1000 0.7973
vn 0.5954 0.1428 0.7907
vn -0.5714 0.8076 0.1455
vn 0.6277 0.7637 0.1511
vn 0.6152 0.3594 -0.7017
vn -0.5806 0.4029 -0.7075
vn -0.6102 -0.5331 -0.5861
vn 0.5751 -0.5762 -0.5807
vn 0.5627 -0.7500 0.3477
vn -0.6193 -0.7067 0.3420
vn -0.5954 0.1219 0.7941
vn 0.5951 0.0787 0.7998
vn -0.5820 -0.7135 0.3902
vn 0.6008 -0.6992 0.3876
vn 0.5956 0.1564 0.7879
vn -0.5956 0.1415 0.7907
vn -0.6106 -0.7045 0.3617
vn 0.5719 -0.7339 0.3665
vn 0.5954 0.1068 0.7963
vn -0.5956 0.1360 0.7917
vn -0.6112 0.7794 0.1379
vn 0.5443 0.8285 0.1313
vn 0.5629 0.4107 -0.7172
vn -0.6054 0.3619 -0.7089
vn -0.5858 -0.5727 -0.5735
vn 0.6255 -0.5214 -0.5804
vn 0.6454 -0.6796 0.3486
vn -0.5795 -0.7327 0.3568
vn -0.5957 0.1028 0.7966
vn 0.5938 0.1523 0.7901
vn -0.5805 0.8046 0.1250
vn 0.6190 0.7746 0.1296
vn 0.6100 0.3477 -0.7121
vn -0.5863 0.3772 -0.7169
vn -0.6049 -0.5555 -0.5706
vn 0.5808 -0.5848 -0.5663
vn -0.6092 0.7865 0.1012
vn 0.5907 0.8009 0.0983
vn 0.5925 0.3449 -0.7280
vn -0.6040 0.3301 -0.7254
vn -0.5872 -0.5969 -0.5467
vn 0.5988 -0.5823 -0.5499
vn -0.5592 -0.7260 0.4003
vn 0.6226 -0.6780 0.3907
vn 0.5953 0.1807 0.7829
vn -0.5950 0.1321 0.7928
vn -0.6309 0.7698 0.0973
vn 0.5680 0.8184 0.0873
vn 0.5784 0.3546 -0.7346
vn -0.6172 0.3059 -0.7249
vn -0.5729 -0.6186 -0.5377
vn 0.6122 -0.5703 -0.5477
vn 0.0021 -0.7345 -0.6786
vn -0.0013 -0.1637 -0.9865
vn 0.8630 -0.0792 -0.4989
vn 0.6882 -0.6653 -0.2894
vn 0.8683 0.0848 0.4887
vn 0.6890 -0.5321 0.4920
vn 0.0021 -0.4681 0.8836
vn -0.0014 0.1638 0.9865
vn -0.8690 0.0774 0.4887
vn -0.6844 -0.5375 0.4927
vn -0.0032 -0.7345 -0.6786
vn 0.0040 -0.1637 -0.9865
vn 0.8644 -0.0825 -0.4960
vn 0.6822 -0.6721 -0.2879
vn -0.0032 -0.4681 0.8837
vn 0.0040 0.1639 0.9865
vn -0.8677 0.0815 0.4904
vn -0.6902 -0.5307 0.4919
vn 0.8653 -0.0702 -0.4962
vn 0.8667 0.0699 0.4939
vn 0.8696 0.0807 0.4870
vn 0.8654 -0.0575 -0.4978
vn 0.8669 0.0825 0.4917
vn 0.6832 -0.5388 0.4928
vn -0.0000 0.1400 0.9902
vn 0.8646 0.0732 0.4972
vn 0.0000 0.1457 0.9893
vn -0.8637 -0.0861 -0.4966
vn -0.8667 0.0699 0.4939
vn -0.8653 -0.0702 -0.4962
vn 0.0000 -0.1400 -0.9901
vn 0.0000 -0.1456 -0.9893
vn -0.8675 -0.0725 -0.4922
vn -0.6863 0.5410 -0.4862
vn -0.0000 0.4794 -0.8776
vn 0.8675 -0.0725 -0.4922
vn -0.8646 0.0732 0.4972
vn 0.6863 0.5410 -0.4862
vn 0.6862 0.6642 0.2966
vn -0.6862 0.6642 0.2966
vn 0.0000 0.7258 0.6879
vn -0.6834 -0.6707 -0.2883
vn 0.0008 0.1400 0.9901
vn 0.8641 0.0831 0.4964
vn -0.0018 0.1456 0.9893
vn -0.8624 -0.0829 -0.4995
vn -0.8663 0.0572 0.4962
vn -0.8651 -0.0829 -0.4946
vn 0.0007 -0.1400 -0.9901
vn -0.0018 -0.1456 -0.9893
vn -0.8679 -0.0823 -0.4899
vn -0.6879 0.5391 -0.4860
vn -0.0015 0.4794 -0.8776
vn 0.8669 -0.0626 -0.4945
vn -0.8649 0.0632 0.4979
vn 0.6846 0.5429 -0.4864
vn 0.6846 0.6661 0.2962
vn -0.6879 0.6623 0.2970
vn -0.0015 0.7258 0.6880
vn -0.6894 -0.6639 -0.2897
vn -0.0000 0.9879 -0.1550
vn -0.0000 -0.9879 0.1550
vn 0.9996 0.0267 -0.0054
vn -0.9988 -0.0472 0.0096
vn 0.9980 -0.0629 0.0099
vn -0.9991 0.0422 -0.0066
vn 0.9998 0.0203 -0.0032
vn -0.9991 -0.0410 0.0064
vn 0.9986 -0.0518 0.0067
vn -0.9995 0.0311 -0.0040
vn 0.9945 0.1032 -0.0150
vn -0.9998 -0.0191 0.0028
vn 0.9992 -0.0406 0.0064
vn -0.9998 0.0199 -0.0031
vn 1.0000 -0.0049 0.0009
vn -0.9999 -0.0157 0.0030
usemtl rpgpp_lt_mat_a.015
s 1
f 3/1/1 7/2/2 8/3/3 4/4/4
f 2/5/5 6/6/6 5/7/7 1/8/8
f 125/9/9 126/10/10 7/2/2 3/1/1
f 4/4/4 8/3/3 6/6/6 2/5/5
f 11/11/11 15/12/12 16/13/13 12/14/14
f 10/15/15 14/16/16 13/17/17 9/18/18
f 127/19/19 128/20/20 15/12/12 11/11/11
f 12/14/14 16/13/13 14/16/16 10/15/15
f 19/21/21 23/22/22 24/23/23 20/24/24
f 18/25/25 22/26/26 21/27/27 17/28/28
f 129/29/29 130/30/30 23/22/22 19/21/21
f 20/24/24 24/23/23 22/26/26 18/25/25
f 41/31/31 45/32/32 136/33/33 135/34/34
f 33/35/35 37/36/36 134/37/37 133/38/38
f 27/39/39 31/40/40 32/41/41 28/42/42
f 26/43/43 30/44/44 29/45/45 25/46/46
f 131/47/47 132/48/48 31/40/40 27/39/39
f 28/42/42 32/41/41 30/44/44 26/43/43
f 25/46/46 29/45/45 132/48/48 131/47/47
f 17/28/28 21/27/27 130/30/30 129/29/29
f 35/49/49 39/50/50 40/51/51 36/52/52
f 34/53/53 38/54/54 37/36/36 33/35/35
f 133/38/38 134/37/37 39/50/50 35/49/49
f 36/52/52 40/51/51 38/54/54 34/53/53
f 9/18/18 13/17/17 128/20/20 127/19/19
f 1/8/8 5/7/7 126/10/10 125/9/9
f 43/55/55 47/56/56 48/57/57 44/58/58
f 42/59/59 46/60/60 45/32/32 41/31/31
f 135/34/34 136/33/33 47/56/56 43/55/55
f 44/58/58 48/57/57 46/60/60 42/59/59
f 49/61/61 53/62/62 122/63/63 121/64/64
f 51/65/65 55/66/66 56/67/67 52/68/68
f 50/69/69 54/70/70 53/62/62 49/61/61
f 121/64/64 122/63/63 55/66/66 51/65/65
f 52/68/68 56/67/67 54/70/70 50/69/69
f 97/71/71 99/72/72 68/73/73 63/74/74
f 63/74/74 68/73/73 67/75/75 61/76/76
f 98/77/77 100/78/78 65/79/79 57/80/80
f 110/81/81 109/82/82 84/83/83 58/84/84
f 107/85/85 108/86/86 81/87/87 64/88/88
f 67/75/75 68/73/73 72/89/89 71/90/90
f 83/91/91 84/83/83 88/92/92 87/93/93
f 58/84/84 84/83/83 83/91/91 60/94/94
f 102/95/95 71/90/90 75/96/96 104/97/97
f 66/98/98 65/79/79 69/99/99 70/100/100
f 100/78/78 67/75/75 71/90/90 102/95/95
f 99/72/72 66/98/98 70/100/100 101/101/101
f 103/102/102 74/103/103 78/104/104 105/105/105
f 101/101/101 70/100/100 74/103/103 103/102/102
f 71/90/90 72/89/89 76/106/106 75/96/96
f 70/100/100 69/99/99 73/107/107 74/103/103
f 75/96/96 76/106/106 80/108/108 79/109/109
f 74/103/103 73/107/107 77/110/110 78/104/104
f 104/97/97 75/96/96 79/109/109 106/111/111
f 57/80/80 65/79/79 66/98/98 59/112/112
f 112/113/113 87/93/93 91/114/114 114/115/115
f 82/116/116 81/87/87 85/117/117 86/118/118
f 108/86/86 83/91/91 87/93/93 112/113/113
f 109/82/82 82/116/116 86/118/118 111/119/119
f 113/120/120 90/121/121 94/122/122 115/123/123
f 111/119/119 86/118/118 90/121/121 113/120/120
f 87/93/93 88/92/92 92/124/124 91/114/114
f 86/118/118 85/117/117 89/125/125 90/121/121
f 91/114/114 92/124/124 96/126/126 95/127/127
f 90/121/121 89/125/125 93/128/128 94/122/122
f 114/115/115 91/114/114 95/127/127 116/129/129
f 64/88/88 81/87/87 82/116/116 62/130/130
f 73/107/107 104/97/97 106/111/111 77/110/110
f 72/89/89 101/101/101 103/102/102 76/106/106
f 76/106/106 103/102/102 105/105/105 80/108/108
f 68/73/73 99/72/72 101/101/101 72/89/89
f 65/79/79 100/78/78 102/95/95 69/99/99
f 69/99/99 102/95/95 104/97/97 73/107/107
f 61/76/76 67/75/75 100/78/78 98/77/77
f 59/112/112 66/98/98 99/72/72 97/71/71
f 89/125/125 114/115/115 116/129/129 93/128/128
f 88/92/92 111/119/119 113/120/120 92/124/124
f 92/124/124 113/120/120 115/123/123 96/126/126
f 84/83/83 109/82/82 111/119/119 88/92/92
f 81/87/87 108/86/86 112/113/113 85/117/117
f 85/117/117 112/113/113 114/115/115 89/125/125
f 60/94/94 83/91/91 108/86/86 107/85/85
f 62/130/130 82/116/116 109/82/82 110/81/81
f 79/109/109 80/108/108 117/131/131
f 105/105/105 78/104/104 117/131/131
f 78/104/104 77/110/110 117/131/131
f 77/110/110 106/111/111 117/131/131
f 106/111/111 79/109/109 117/131/131
f 80/108/108 105/105/105 117/131/131
f 94/122/122 93/128/128 118/132/131
f 93/128/128 116/129/129 118/132/131
f 115/123/123 94/122/122 118/132/131
f 96/126/126 115/123/123 118/132/131
f 116/129/129 95/127/127 118/132/131
f 95/127/127 96/126/126 118/132/131
f 63/74/74 61/76/76 119/133/132
f 98/77/77 57/80/80 119/133/132
f 57/80/80 59/112/112 119/133/132
f 97/71/71 63/74/74 119/133/132
f 59/112/112 97/71/71 119/133/132
f 61/76/76 98/77/77 119/133/132
f 110/81/81 58/84/84 120/134/132
f 64/88/88 62/130/130 120/134/132
f 62/130/130 110/81/81 120/134/132
f 107/85/85 64/88/88 120/134/132
f 58/84/84 60/94/94 120/134/132
f 60/94/94 107/85/85 120/134/132
f 56/67/67 55/66/66 123/135/133
f 53/62/62 54/70/70 123/135/133
f 55/66/66 122/63/63 123/135/133
f 122/63/63 53/62/62 123/135/133
f 54/70/70 56/67/67 123/135/133
f 51/65/65 52/68/68 124/136/134
f 50/69/69 49/61/61 124/136/134
f 49/61/61 121/64/64 124/136/134
f 121/64/64 51/65/65 124/136/134
f 52/68/68 50/69/69 124/136/134
f 6/6/6 8/3/3 137/137/135
f 7/2/2 126/10/10 137/137/135
f 8/3/3 7/2/2 137/137/135
f 5/7/7 6/6/6 137/137/135
f 126/10/10 5/7/7 137/137/135
f 1/8/8 125/9/9 138/138/136
f 4/4/4 2/5/5 138/138/136
f 3/1/1 4/4/4 138/138/136
f 2/5/5 1/8/8 138/138/136
f 125/9/9 3/1/1 138/138/136
f 13/17/17 14/16/16 139/139/137
f 128/20/20 13/17/17 139/139/137
f 14/16/16 16/13/13 139/139/137
f 15/12/12 128/20/20 139/139/137
f 16/13/13 15/12/12 139/139/137
f 11/11/11 12/14/14 140/140/138
f 127/19/19 11/11/11 140/140/138
f 10/15/15 9/18/18 140/140/138
f 9/18/18 127/19/19 140/140/138
f 12/14/14 10/15/15 140/140/138
f 23/22/22 130/30/30 141/141/139
f 24/23/23 23/22/22 141/141/139
f 21/27/27 22/26/26 141/141/139
f 130/30/30 21/27/27 141/141/139
f 22/26/26 24/23/23 141/141/139
f 17/28/28 129/29/29 142/142/140
f 20/24/24 18/25/25 142/142/140
f 129/29/29 19/21/21 142/142/140
f 19/21/21 20/24/24 142/142/140
f 18/25/25 17/28/28 142/142/140
f 132/48/48 29/45/45 143/143/141
f 31/40/40 132/48/48 143/143/141
f 30/44/44 32/41/41 143/143/141
f 32/41/41 31/40/40 143/143/141
f 29/45/45 30/44/44 143/143/141
f 27/39/39 28/42/42 144/144/142
f 26/43/43 25/46/46 144/144/142
f 25/46/46 131/47/47 144/144/142
f 28/42/42 26/43/43 144/144/142
f 131/47/47 27/39/39 144/144/142
f 40/51/51 39/50/50 145/145/143
f 37/36/36 38/54/54 145/145/143
f 39/50/50 134/37/37 145/145/143
f 134/37/37 37/36/36 145/145/143
f 38/54/54 40/51/51 145/145/143
f 36/52/52 34/53/53 146/146/144
f 133/38/38 35/49/49 146/146/144
f 35/49/49 36/52/52 146/146/144
f 34/53/53 33/35/35 146/146/144
f 33/35/35 133/38/38 146/146/144
f 47/56/56 136/33/33 147/147/145
f 136/33/33 45/32/32 147/147/145
f 46/60/60 48/57/57 147/147/145
f 48/57/57 47/56/56 147/147/145
f 45/32/32 46/60/60 147/147/145
f 42/59/59 41/31/31 148/148/146
f 41/31/31 135/34/34 148/148/146
f 44/58/58 42/59/59 148/148/146
f 135/34/34 43/55/55 148/148/146
f 43/55/55 44/58/58 148/148/146
