# Blender v2.79 (sub 0) OBJ File: ''
# www.blender.org
mtllib rpgpp_lt_hanger_wood_01.mtl
o rpgpp_lt_hanger_wood_01_rpgpp_lt_hanger_wood_01.001
v 1.299553 1.905352 -0.023491
v 1.302615 1.926582 0.013662
v 1.299553 1.905351 0.050814
v 1.293431 1.862890 0.050814
v 1.290369 1.841660 0.013662
v 1.293431 1.862891 -0.023491
v 1.088466 1.931302 -0.021478
v 1.090279 1.951508 0.013662
v 1.088466 1.931301 0.048802
v 1.084839 1.890888 0.048802
v 1.083026 1.870681 0.013662
v 1.084839 1.890888 -0.021478
v 1.327126 1.892355 0.013662
v 0.753107 1.922427 -0.022716
v 0.754104 1.943407 0.013662
v 0.753107 1.922427 0.050041
v 0.751114 1.880468 0.050041
v 0.750117 1.859488 0.013662
v 0.751114 1.880468 -0.022717
v -0.020640 1.914997 -0.004018
v -0.019643 1.927869 0.018347
v -0.020640 1.914996 0.040711
v -0.022636 1.889249 0.040710
v -0.023634 1.876376 0.018346
v -0.022636 1.889250 -0.004018
v -0.760813 1.894614 0.007556
v -0.760393 1.906384 0.027957
v -0.760813 1.894612 0.048357
v -0.761653 1.871070 0.048356
v -0.762073 1.859300 0.027955
v -0.761653 1.871072 0.007555
v -1.299927 1.913178 0.004849
v -1.296024 1.927720 0.029672
v -1.292921 1.913241 0.054644
v -1.293721 1.884220 0.054793
v -1.297624 1.869678 0.029970
v -1.300727 1.884157 0.004998
v -1.315779 1.900164 0.029783
v 1.054302 -0.000000 0.064328
v 1.113959 -0.000000 0.055886
v 1.136476 -0.000000 0.000000
v 1.099336 -0.000000 -0.047442
v 1.039679 -0.000000 -0.039000
v 1.017162 -0.000000 0.016886
v 1.066644 1.059157 0.054341
v 1.117389 1.059157 0.062707
v 1.150007 1.059157 0.022943
v 1.131880 1.059157 -0.025187
v 1.081135 1.059157 -0.033553
v 1.048516 1.059157 0.006211
v 1.037675 1.794278 0.036920
v 1.080617 1.791499 0.052864
v 1.115839 1.788802 0.023572
v 1.108119 1.788882 -0.021664
v 1.065178 1.791661 -0.037608
v 1.029956 1.794359 -0.008316
v 1.041108 2.164734 -0.135798
v 1.064753 2.163333 -0.131910
v 1.078939 2.152522 -0.147974
v 1.069479 2.143112 -0.167928
v 1.045834 2.144513 -0.171817
v 1.031648 2.155324 -0.155752
v 1.038635 1.981454 -0.057078
v 1.066960 1.976045 -0.061292
v 1.076780 1.969772 -0.088004
v 1.058275 1.968909 -0.110502
v 1.029951 1.974318 -0.106288
v 1.020130 1.980591 -0.079576
v 1.055246 1.886692 0.005791
v 1.082521 1.882899 0.010746
v 1.102046 1.875834 -0.009172
v 1.080661 1.871820 -0.055858
v 1.053312 1.876035 -0.055200
v 1.036020 1.886009 -0.007586
v 1.019579 1.920651 0.176034
v 1.054315 1.928409 0.186403
v 1.058599 1.941388 0.175838
v 1.046907 1.951036 0.161929
v 1.027630 1.946730 0.156175
v 1.015284 1.931714 0.162908
v 1.037614 1.819013 0.053025
v 1.074462 1.830100 0.067835
v 1.095532 1.857021 0.039144
v 1.070025 1.875375 0.036466
v 1.044763 1.868488 0.026989
v 1.030736 1.839869 0.035206
v 1.019306 2.051565 0.244080
v 1.055251 2.152422 -0.154644
v -1.020756 -0.000000 0.000368
v -1.072767 -0.000000 0.030783
v -1.072432 -0.000000 0.091033
v -1.020087 -0.000000 0.120868
v -0.968076 -0.000000 0.090453
v -0.968411 -0.000000 0.030203
v -1.028394 1.059157 0.014287
v -1.078526 1.059157 0.025770
v -1.093647 1.059157 0.074927
v -1.058636 1.059157 0.112601
v -1.008504 1.059157 0.101118
v -0.993383 1.059157 0.051961
v -0.994985 1.794278 0.019433
v -1.040766 1.791499 0.020947
v -1.062264 1.788802 0.061400
v -1.037982 1.788882 0.100339
v -0.992201 1.791661 0.098825
v -0.970703 1.794359 0.058373
v -0.932725 2.164734 0.180577
v -0.956081 2.163333 0.185936
v -0.963123 2.152522 0.206178
v -0.946808 2.143112 0.221060
v -0.923452 2.144513 0.215701
v -0.916411 2.155324 0.195460
v -0.960261 1.981454 0.106788
v -0.984877 1.976045 0.121419
v -0.983845 1.969772 0.149861
v -0.958196 1.968909 0.163671
v -0.933580 1.974318 0.149039
v -0.934612 1.980591 0.120598
v -0.999452 1.886692 0.054899
v -1.026571 1.882899 0.060647
v -1.037094 1.875834 0.086477
v -0.999616 1.871820 0.121581
v -0.974555 1.876035 0.110611
v -0.976591 1.886009 0.059994
v -1.030942 1.920651 -0.116166
v -1.067017 1.928409 -0.112602
v -1.066979 1.941388 -0.101201
v -1.050889 1.951036 -0.092759
v -1.030869 1.946730 -0.094737
v -1.021994 1.931714 -0.105645
v -1.001029 1.819013 0.004506
v -1.040741 1.830100 0.004760
v -1.049371 1.857021 0.039296
v -1.024751 1.875375 0.032110
v -0.997781 1.868488 0.031310
v -0.987913 1.839869 0.018391
v -1.056469 2.051565 -0.179243
v -0.938674 2.152422 0.203376
vt 0.725600 0.839689
vt 0.725600 0.839689
vt 0.725600 0.839689
vt 0.725600 0.839689
vt 0.725600 0.839689
vt 0.725600 0.839689
vt 0.725600 0.839689
vt 0.725600 0.839689
vt 0.725600 0.839689
vt 0.725600 0.839689
vt 0.725600 0.839689
vt 0.725600 0.839689
vt 0.725600 0.839689
vt 0.725600 0.839689
vt 0.725600 0.839689
vt 0.725600 0.839689
vt 0.725600 0.839689
vt 0.725600 0.839689
vt 0.725600 0.839689
vt 0.725600 0.839689
vt 0.725600 0.839689
vt 0.725600 0.839689
vt 0.725600 0.839689
vt 0.725600 0.839689
vt 0.725600 0.839689
vt 0.725600 0.839689
vt 0.725600 0.839689
vt 0.725600 0.839689
vt 0.725600 0.839689
vt 0.725600 0.839689
vt 0.725600 0.839689
vt 0.725600 0.839689
vt 0.725600 0.839689
vt 0.725600 0.839689
vt 0.725600 0.839689
vt 0.725600 0.839689
vt 0.725600 0.839689
vt 0.725600 0.839689
vt 0.725600 0.839689
vt 0.725600 0.839689
vt 0.725600 0.839689
vt 0.725600 0.839689
vt 0.725600 0.839689
vt 0.725600 0.839689
vt 0.725600 0.839689
vt 0.725600 0.839689
vt 0.725600 0.839689
vt 0.725600 0.839689
vt 0.725600 0.839689
vt 0.725600 0.839689
vt 0.725600 0.839689
vt 0.725600 0.839689
vt 0.725600 0.839689
vt 0.725600 0.839689
vt 0.725600 0.839689
vt 0.725600 0.839689
vt 0.725600 0.839689
vt 0.725600 0.839689
vt 0.725600 0.839689
vt 0.725600 0.839689
vt 0.725600 0.839689
vt 0.725600 0.839689
vt 0.725600 0.839689
vt 0.725600 0.839689
vt 0.725600 0.839689
vt 0.725600 0.839689
vt 0.725600 0.839689
vt 0.725600 0.839689
vt 0.725600 0.839689
vt 0.725600 0.839689
vt 0.725600 0.839689
vt 0.725600 0.839689
vt 0.725600 0.839689
vt 0.725600 0.839689
vt 0.725600 0.839689
vt 0.725600 0.839689
vt 0.725600 0.839689
vt 0.725600 0.839689
vt 0.725600 0.839689
vt 0.725600 0.839689
vt 0.725600 0.839689
vt 0.725600 0.839689
vt 0.725600 0.839689
vt 0.725600 0.839689
vt 0.725600 0.839689
vt 0.725600 0.839689
vt 0.725600 0.839689
vt 0.725600 0.839689
vt 0.725600 0.839689
vt 0.725600 0.839689
vt 0.725600 0.839689
vt 0.725600 0.839689
vt 0.725600 0.839689
vt 0.725600 0.839689
vt 0.725600 0.839689
vt 0.725600 0.839689
vt 0.725600 0.839689
vt 0.725600 0.839689
vt 0.725600 0.839689
vt 0.725600 0.839689
vt 0.725600 0.839689
vt 0.725600 0.839689
vt 0.725600 0.839689
vt 0.725600 0.839689
vt 0.725600 0.839689
vt 0.725600 0.839689
vt 0.725600 0.839689
vt 0.725600 0.839689
vt 0.725600 0.839689
vt 0.725600 0.839689
vt 0.725600 0.839689
vt 0.725600 0.839689
vt 0.725600 0.839689
vt 0.725600 0.839689
vt 0.725600 0.839689
vt 0.725600 0.839689
vt 0.725600 0.839689
vt 0.725600 0.839689
vt 0.725600 0.839689
vt 0.725600 0.839689
vt 0.725600 0.839689
vt 0.725600 0.839689
vt 0.725600 0.839689
vt 0.725600 0.839689
vt 0.725600 0.839689
vt 0.725600 0.839689
vt 0.725600 0.839689
vt 0.725600 0.839689
vt 0.725600 0.839689
vt 0.725600 0.839689
vt 0.725600 0.839689
vt 0.725600 0.839689
vt 0.725600 0.839689
vt 0.725600 0.839689
vt 0.725600 0.839689
vt 0.725600 0.839689
vt 0.725600 0.839689
vt 0.725600 0.839689
vn 0.3675 -0.5147 -0.7746
vn 0.3252 -0.9456 -0.0000
vn -0.0517 -0.9987 -0.0000
vn -0.0275 -0.4797 -0.8770
vn 0.3675 -0.5148 0.7746
vn 0.4425 0.3908 0.8071
vn 0.0219 0.5179 0.8551
vn -0.0275 -0.4797 0.8770
vn 0.0473 0.9989 0.0000
vn -0.0222 0.9998 -0.0009
vn -0.0123 0.4976 0.8673
vn 0.0219 0.5179 -0.8551
vn -0.0175 0.4969 -0.8676
vn 0.4425 0.3908 -0.8071
vn -0.0037 -0.5034 -0.8641
vn 0.0015 -0.5044 0.8635
vn 0.0054 -1.0000 -0.0010
vn -0.0244 0.9997 -0.0009
vn -0.0105 0.5042 0.8635
vn -0.0267 0.5037 -0.8635
vn 0.0012 -1.0000 -0.0013
vn -0.0142 -0.4960 -0.8682
vn 0.0026 -0.4976 0.8674
vn 0.0050 1.0000 -0.0000
vn 0.0118 0.4934 0.8697
vn -0.0029 0.4926 -0.8703
vn 0.0098 -0.5049 0.8631
vn 0.0016 -1.0000 0.0025
vn -0.3836 0.9229 0.0325
vn -0.3574 0.4617 0.8118
vn -0.4462 0.4692 -0.7620
vn -0.0043 -0.5079 -0.8614
vn 0.4718 0.8817 0.0000
vn 0.9999 0.0161 -0.0000
vn -0.4782 -0.4500 -0.7542
vn -0.3880 -0.4356 0.8122
vn -0.4461 -0.8941 0.0398
vn -0.3166 -0.1121 -0.9419
vn -0.3793 0.0066 -0.9253
vn -0.9921 0.0001 -0.1257
vn -0.9708 -0.0347 -0.2375
vn -0.5080 0.0242 -0.8610
vn 0.6123 0.0146 -0.7905
vn 0.4893 0.0031 -0.8721
vn 0.7374 0.0026 -0.6755
vn 0.9714 0.0911 0.2192
vn 0.9918 0.0161 0.1268
vn 0.5010 -0.0072 0.8654
vn 0.3939 0.0098 0.9191
vn -0.5989 0.0019 0.8008
vn -0.5013 0.0140 0.8652
vn -0.9996 0.0296 0.0026
vn 0.9999 -0.0127 -0.0081
vn 0.3600 -0.0861 0.9290
vn -0.5955 -0.3574 -0.7195
vn -0.9959 -0.0008 0.0901
vn -0.7302 0.6312 -0.2615
vn -0.3595 0.3068 -0.8813
vn 0.8325 0.4912 -0.2561
vn 0.9929 0.0509 -0.1079
vn 0.3892 -0.3658 -0.8454
vn 0.4204 0.2461 -0.8733
vn -0.7754 -0.1712 0.6078
vn -0.3881 0.4355 0.8122
vn -0.2992 0.8836 0.3603
vn -0.5421 -0.3636 -0.7576
vn -0.9677 0.2057 0.1460
vn 0.9507 0.3022 0.0698
vn 0.5593 -0.2312 -0.7961
vn 0.4772 0.8038 0.3552
vn 0.5296 0.4686 0.7071
vn 0.4140 0.7480 0.5188
vn -0.2459 0.7306 0.6370
vn 0.4883 -0.4549 0.7447
vn -0.1332 0.8358 0.5327
vn -0.6249 -0.5357 0.5679
vn -0.6695 -0.6842 0.2891
vn 0.5994 -0.6657 0.4446
vn -0.4684 0.6430 -0.6059
vn -0.7185 0.5574 -0.4161
vn -0.9310 -0.1703 -0.3227
vn -0.9896 0.0731 -0.1241
vn 0.9625 0.2498 0.1055
vn 0.9749 0.1714 0.1423
vn 0.4397 0.8151 -0.3771
vn 0.4373 0.7353 -0.5178
vn 0.1294 0.8718 -0.4725
vn -0.7184 0.5574 -0.4161
vn -0.9311 -0.1703 -0.3227
vn -0.9948 0.0448 0.0913
vn 0.5994 -0.6656 0.4447
vn -0.9310 -0.1704 -0.3227
vn 0.4398 0.8151 -0.3772
vn 0.6499 -0.1121 0.7518
vn 0.7015 0.0066 0.7126
vn 0.9657 0.0001 -0.2596
vn 0.9884 -0.0347 -0.1480
vn 0.7964 0.0242 0.6043
vn -0.2672 0.0146 0.9635
vn -0.1225 0.0031 0.9925
vn -0.4265 0.0026 0.9045
vn -0.9820 0.0911 0.1652
vn -0.9659 0.0161 0.2585
vn -0.7915 -0.0072 -0.6111
vn -0.7127 0.0098 -0.7014
vn 0.2509 0.0019 -0.9680
vn 0.1362 0.0140 -0.9906
vn 0.9241 0.0296 -0.3811
vn -0.9223 -0.0127 0.3863
vn -0.6851 -0.0861 -0.7234
vn 0.8237 -0.3574 0.4403
vn 0.8876 -0.0008 -0.4607
vn 0.7748 0.6312 -0.0346
vn 0.6666 0.3068 0.6794
vn -0.6735 0.4912 0.5524
vn -0.8780 0.0509 0.4760
vn -0.0399 -0.3658 0.9299
vn -0.0582 0.2461 0.9675
vn 0.4873 -0.1712 -0.8563
vn 0.0514 0.4355 -0.8987
vn 0.1404 0.8836 -0.4468
vn 0.7887 -0.3636 0.4958
vn 0.8402 0.2057 -0.5017
vn -0.9062 0.3022 0.2956
vn -0.2160 -0.2312 0.9486
vn -0.5762 0.8038 -0.1479
vn -0.7580 0.4686 -0.4537
vn -0.5797 0.7480 -0.3233
vn -0.0137 0.7306 -0.6827
vn -0.7340 -0.4549 -0.5042
vn -0.0786 0.8358 -0.5434
vn 0.3632 -0.5357 -0.7623
vn 0.5101 -0.6842 -0.5212
vn -0.7231 -0.6657 -0.1844
vn 0.6630 0.6430 0.3833
vn 0.8225 0.5574 0.1128
vn 0.9839 -0.1703 -0.0541
vn 0.9628 0.0731 -0.2600
vn -0.9307 0.2498 0.2671
vn -0.9561 0.1714 0.2376
vn -0.2641 0.8151 0.5156
vn -0.2085 0.7353 0.6449
vn 0.0593 0.8718 0.4862
vn 0.5101 -0.6842 -0.5213
vn 0.8225 0.5574 0.1129
vn -0.9561 0.1714 0.2377
vn 0.9839 -0.1703 -0.0540
vn -0.7231 -0.6657 -0.1843
vn 0.9839 -0.1704 -0.0541
vn -0.2640 0.8151 0.5157
usemtl rpgpp_lt_mat_a.013
s 1
f 6/1/1 5/2/2 11/3/3 12/4/4
f 4/5/5 3/6/6 9/7/7 10/8/8
f 8/9/9 15/10/10 16/11/11 9/7/7
f 7/12/12 14/13/13 15/10/10 8/9/9
f 1/14/14 6/1/1 12/4/4 7/12/12
f 5/2/2 4/5/5 10/8/8 11/3/3
f 7/12/12 12/4/4 19/15/15 14/13/13
f 11/3/3 10/8/8 17/16/16 18/17/17
f 16/11/11 15/10/10 21/18/18 22/19/19
f 15/10/10 14/13/13 20/20/20 21/18/18
f 12/4/4 11/3/3 18/17/17 19/15/15
f 10/8/8 9/7/7 16/11/11 17/16/16
f 19/15/15 18/17/17 24/21/21 25/22/22
f 17/16/16 16/11/11 22/19/19 23/23/23
f 21/18/18 27/24/24 28/25/25 22/19/19
f 20/20/20 26/26/26 27/24/24 21/18/18
f 14/13/13 19/15/15 25/22/22 20/20/20
f 18/17/17 17/16/16 23/23/23 24/21/21
f 24/21/21 23/23/23 29/27/27 30/28/28
f 28/25/25 27/24/24 33/29/29 34/30/30
f 27/24/24 26/26/26 32/31/31 33/29/29
f 25/22/22 24/21/21 30/28/28 31/32/32
f 23/23/23 22/19/19 28/25/25 29/27/27
f 20/20/20 25/22/22 31/32/32 26/26/26
f 1/14/14 2/33/33 13/34/34
f 26/26/26 31/32/32 37/35/35 32/31/31
f 30/28/28 29/27/27 35/36/36 36/37/37
f 2/33/33 3/6/6 13/34/34
f 31/32/32 30/28/28 36/37/37 37/35/35
f 29/27/27 28/25/25 34/30/30 35/36/36
f 55/38/38 49/39/39 50/40/40 56/41/41
f 43/42/42 49/39/39 48/43/43 42/44/44
f 48/43/43 54/45/45 53/46/46 47/47/47
f 40/48/48 46/49/49 45/50/50 39/51/51
f 39/51/51 45/50/50 50/40/40 44/52/52
f 41/53/53 47/47/47 46/49/49 40/48/48
f 47/47/47 53/46/46 52/54/54 46/49/49
f 67/55/55 68/56/56 62/57/57 61/58/58
f 49/39/39 55/38/38 54/45/45 48/43/43
f 59/59/59 65/60/60 66/61/61 60/62/62
f 46/49/49 52/54/54 51/63/63 45/50/50
f 45/50/50 51/63/63 56/41/41 50/40/40
f 62/57/57 68/56/56 63/64/64 57/65/65
f 67/55/55 73/66/66 74/67/67 68/56/56
f 71/68/68 72/69/69 66/61/61 65/60/60
f 58/70/70 64/71/71 65/60/60 59/59/59
f 60/62/62 66/61/61 67/55/55 61/58/58
f 57/65/65 63/64/64 64/71/71 58/70/70
f 64/71/71 70/72/72 71/68/68 65/60/60
f 55/38/38 56/41/41 74/67/67 73/66/66
f 66/61/61 72/69/69 73/66/66 67/55/55
f 53/46/46 54/45/45 72/69/69 71/68/68
f 63/64/64 69/73/73 70/72/72 64/71/71
f 68/56/56 74/67/67 69/73/73 63/64/64
f 76/74/74 87/75/75 75/76/76
f 81/77/77 82/78/78 76/74/74 75/76/76
f 79/79/79 85/80/80 86/81/81 80/82/82
f 77/83/83 83/84/84 84/85/85 78/86/86
f 76/74/74 82/78/78 83/84/84 77/83/83
f 78/86/86 84/85/85 85/80/80 79/79/79
f 80/82/82 87/75/75 79/79/79
f 78/86/86 87/75/75 77/83/83
f 77/83/83 87/75/75 76/74/74
f 59/59/59 60/62/62 88/87/87
f 54/45/45 55/38/38 73/66/66 72/69/69
f 61/58/58 62/57/57 88/87/87
f 52/54/54 82/78/78 81/77/77 51/63/63
f 69/73/73 85/80/88 84/85/85 70/72/72
f 52/54/54 83/84/84 82/78/78
f 52/54/54 53/46/46 71/68/68 83/84/84
f 80/82/82 86/81/81 81/77/77 75/76/76
f 74/67/67 85/80/88 69/73/73
f 56/41/41 86/81/89 85/80/88 74/67/67
f 5/2/2 6/1/1 13/34/34
f 3/6/6 4/5/5 13/34/34
f 34/30/30 33/29/29 38/88/90
f 33/29/29 32/31/31 38/88/90
f 6/1/1 1/14/14 13/34/34
f 4/5/5 5/2/2 13/34/34
f 37/35/35 36/37/37 38/88/90
f 35/36/36 34/30/30 38/88/90
f 2/33/33 1/14/14 7/12/12 8/9/9
f 32/31/31 37/35/35 38/88/90
f 36/37/37 35/36/36 38/88/90
f 50/40/40 49/39/39 43/42/42 44/52/52
f 62/57/57 57/65/65 88/87/87
f 57/65/65 58/70/70 88/87/87
f 60/62/62 61/58/58 88/87/87
f 58/70/70 59/59/59 88/87/87
f 79/79/79 87/75/75 78/86/86
f 75/76/76 87/75/75 80/82/82
f 3/6/6 2/33/33 8/9/9 9/7/7
f 42/44/44 48/43/43 47/47/47 41/53/53
f 82/78/91 81/77/77 86/81/92 85/80/80 84/85/93 83/84/84
f 70/72/72 84/85/85 83/84/84 71/68/68
f 86/81/89 56/41/41 51/63/63 81/77/77
f 105/89/94 99/90/95 100/91/96 106/92/97
f 93/93/98 99/90/95 98/94/99 92/95/100
f 98/94/99 104/96/101 103/97/102 97/98/103
f 90/99/104 96/100/105 95/101/106 89/102/107
f 89/102/107 95/101/106 100/91/96 94/103/108
f 91/104/109 97/98/103 96/100/105 90/99/104
f 97/98/103 103/97/102 102/105/110 96/100/105
f 117/106/111 118/107/112 112/108/113 111/109/114
f 99/90/95 105/89/94 104/96/101 98/94/99
f 109/110/115 115/111/116 116/112/117 110/113/118
f 96/100/105 102/105/110 101/114/119 95/101/106
f 95/101/106 101/114/119 106/92/97 100/91/96
f 112/108/113 118/107/112 113/115/120 107/116/121
f 117/106/111 123/117/122 124/118/123 118/107/112
f 121/119/124 122/120/125 116/112/117 115/111/116
f 108/121/126 114/122/127 115/111/116 109/110/115
f 110/113/118 116/112/117 117/106/111 111/109/114
f 107/116/121 113/115/120 114/122/127 108/121/126
f 114/122/127 120/123/128 121/119/124 115/111/116
f 105/89/94 106/92/97 124/118/123 123/117/122
f 116/112/117 122/120/125 123/117/122 117/106/111
f 103/97/102 104/96/101 122/120/125 121/119/124
f 113/115/120 119/124/129 120/123/128 114/122/127
f 118/107/112 124/118/123 119/124/129 113/115/120
f 126/125/130 137/126/131 125/127/132
f 131/128/133 132/129/134 126/125/130 125/127/132
f 129/130/135 135/131/136 136/132/137 130/133/138
f 127/134/139 133/135/140 134/136/141 128/137/142
f 126/125/130 132/129/134 133/135/140 127/134/139
f 128/137/142 134/136/141 135/131/136 129/130/135
f 130/133/138 137/126/131 129/130/135
f 128/137/142 137/126/131 127/134/139
f 127/134/139 137/126/131 126/125/130
f 109/110/115 110/113/118 138/138/143
f 104/96/101 105/89/94 123/117/122 122/120/125
f 111/109/114 112/108/113 138/138/143
f 102/105/110 132/129/134 131/128/144 101/114/119
f 119/124/129 135/131/145 134/136/141 120/123/128
f 102/105/110 133/135/146 132/129/134
f 102/105/110 103/97/102 121/119/124 133/135/146
f 130/133/138 136/132/137 131/128/133 125/127/132
f 124/118/123 135/131/145 119/124/129
f 106/92/97 136/132/147 135/131/145 124/118/123
f 100/91/96 99/90/95 93/93/98 94/103/108
f 112/108/113 107/116/121 138/138/143
f 107/116/121 108/121/126 138/138/143
f 110/113/118 111/109/114 138/138/143
f 108/121/126 109/110/115 138/138/143
f 129/130/135 137/126/131 128/137/142
f 125/127/132 137/126/131 130/133/138
f 92/95/100 98/94/99 97/98/103 91/104/109
f 132/129/148 131/128/144 136/132/149 135/131/145 134/136/150 133/135/146
f 120/123/128 134/136/141 133/135/146 121/119/124
f 136/132/147 106/92/97 101/114/119 131/128/144
