# Blender v2.79 (sub 0) OBJ File: ''
# www.blender.org
mtllib rpgpp_lt_broom_01.mtl
o rpgpp_lt_broom_01_rpgpp_lt_broom_01.001
v 0.497221 0.015188 0.029334
v 0.004861 -0.015196 0.015136
v 0.004861 0.015188 0.015136
v 0.004861 0.000000 0.021430
v 0.497221 0.000000 0.035630
v 0.497221 -0.015195 0.029334
v 0.497221 0.021483 0.014143
v 0.004861 -0.021483 -0.000049
v 0.004861 0.021483 -0.000049
v 0.497221 0.000000 -0.007336
v 0.004861 0.000000 -0.021533
v 0.560282 0.000000 -0.007369
v 0.004861 -0.015196 -0.015245
v 0.497221 -0.015195 -0.001048
v 0.497221 0.015188 -0.001048
v 0.916967 0.000000 -0.021534
v 0.560282 0.015188 -0.001081
v 0.916967 0.021483 -0.000049
v 0.560282 0.021483 0.014111
v 0.560282 0.015188 0.029301
v 0.560282 0.000000 0.035597
v 0.916967 0.000000 0.021430
v 0.497221 -0.021483 0.014143
v 0.560282 -0.021483 0.014111
v 0.560282 -0.015195 0.029301
v 0.916967 -0.021483 -0.000049
v 0.560282 -0.015195 -0.001081
v 0.916967 -0.015195 -0.015245
v -0.000000 0.000000 0.000000
v 0.004861 0.015188 -0.015245
v 0.916967 0.015188 0.015136
v 0.916967 -0.015195 0.015136
v 0.916967 0.015188 -0.015245
v 0.916967 0.000002 -0.036570
v 0.916967 0.036523 -0.000047
v 0.916967 0.000002 0.036468
v 0.916967 -0.036520 -0.000047
v 0.916967 -0.025831 -0.025879
v 0.916967 0.025821 0.025768
v 0.916967 -0.025831 0.025768
v 0.916967 0.025821 -0.025879
v 0.934967 0.000002 -0.036570
v 0.934967 0.036523 -0.000047
v 0.934967 0.000002 0.036468
v 0.934967 -0.036520 -0.000047
v 0.934967 -0.025831 -0.025879
v 0.934967 0.025821 0.025768
v 0.934967 -0.025831 0.025768
v 0.934967 0.025821 -0.025879
v 0.934967 -0.000002 -0.000052
v 1.424425 -0.000146 -0.217994
v 1.294552 -0.036234 -0.089689
v 1.427796 -0.035977 -0.188614
v 1.433406 -0.042142 -0.104777
v 0.989545 -0.000132 -0.032476
v 1.150460 -0.028562 -0.050600
v 1.422183 -0.045651 0.136068
v 1.292678 -0.039685 0.093916
v 0.989545 -0.022012 -0.018930
v 1.144472 -0.027299 0.059109
v 0.989545 -0.021348 0.020902
v 0.932628 -0.000289 0.026269
v 0.932628 -0.000289 -0.025352
v 0.932628 -0.018628 0.018704
v 0.932628 -0.019218 -0.014152
v 1.429850 -0.001655 0.211912
v 1.427796 0.036983 0.173682
v 1.283697 -0.000146 0.151601
v 1.290062 0.026924 0.121191
v 1.421158 0.063981 0.080719
v 1.146340 -0.000146 0.086524
v 1.144472 0.021345 0.053635
v 1.294367 0.034152 -0.087771
v 1.292678 0.045427 0.062523
v 1.434903 0.052481 -0.109081
v 1.433783 0.035696 -0.188614
v 1.293433 -0.000146 -0.146414
v 1.169919 -0.000146 -0.091303
v 1.156070 0.023743 -0.051443
v 0.989545 0.021069 0.020902
v 0.989545 0.021069 -0.018585
v 0.989545 -0.000132 0.030059
v 0.932628 0.018059 -0.013873
v 0.932628 0.018059 0.018704
v 1.463514 -0.000527 -0.106720
v 1.460213 -0.000247 -0.188614
v 1.455286 -0.001469 0.168421
v 1.450743 -0.000209 0.096808
v 0.967783 -0.000206 0.029443
v 0.967783 -0.021520 -0.017369
v 0.967783 -0.020866 0.020689
v 0.967783 0.020450 -0.017042
v 0.967783 -0.000206 -0.030324
v 0.967783 0.020450 0.020689
v 0.978271 -0.030171 -0.025527
v 0.978271 -0.029254 0.028690
v 0.978271 0.028991 -0.025059
v 0.978271 0.028991 0.028690
v 0.978271 -0.000125 0.041158
v 0.978271 -0.000125 -0.043973
v 0.956640 -0.000199 0.040290
v 0.956640 -0.000199 -0.041545
v 0.956640 -0.029750 -0.023799
v 0.956640 -0.028837 0.028301
v 0.956640 0.028442 -0.023354
v 0.956640 0.028442 0.028301
v 0.944634 -0.000264 0.028129
v 0.944634 -0.000264 -0.027770
v 0.944634 -0.020557 -0.015646
v 0.944634 -0.019928 0.019939
v 0.944634 0.019405 -0.015343
v 0.944634 0.019405 0.019939
v 1.125771 0.036378 0.047236
v 1.120153 0.021880 0.045741
v 1.157392 0.038745 0.054421
v 1.161973 0.027432 0.057577
v 1.135326 0.032567 -0.047108
v 1.129537 0.018069 -0.047657
v 1.167698 0.034934 -0.045224
v 1.172735 0.023621 -0.042865
v 1.144040 0.024520 -0.078930
v 1.138088 0.005661 -0.074843
v 1.176433 0.027028 -0.077688
v 1.181390 0.016602 -0.072625
v 1.120892 0.017540 0.073292
v 1.116049 0.007574 0.062282
v 1.152213 0.015344 0.081734
v 1.157306 0.004924 0.076796
v 1.120193 -0.006176 0.087620
v 1.114956 -0.004779 0.072970
v 1.152483 -0.005431 0.091352
v 1.158158 -0.006270 0.080127
v 1.145393 0.006274 -0.094193
v 1.137921 0.002650 -0.080963
v 1.179349 0.004399 -0.102082
v 1.183179 0.003316 -0.090120
v 1.138768 -0.035390 -0.070539
v 1.131270 -0.026822 -0.059846
v 1.171000 -0.037675 -0.066935
v 1.174977 -0.029459 -0.058241
v 1.126933 -0.039919 0.005089
v 1.120109 -0.026928 0.007424
v 1.157694 -0.039854 0.008303
v 1.161720 -0.028590 0.009163
v 1.120131 -0.035680 0.060948
v 1.114607 -0.025249 0.051923
v 1.143738 -0.033187 0.068498
v 1.148879 -0.024658 0.061818
v 1.139751 0.041728 0.064203
v 1.134007 0.023695 0.065103
v 1.171581 0.045046 0.058010
v 1.177046 0.020912 0.059048
v 1.110716 0.029829 -0.023049
v 1.105198 0.015331 -0.021215
v 1.141093 0.037074 -0.034395
v 1.146654 0.020884 -0.034270
v 1.102540 0.022511 -0.058010
v 1.098366 0.008367 -0.052861
v 1.132676 0.028871 -0.069951
v 1.139256 0.014594 -0.067321
v 1.148395 0.019075 0.094235
v 1.134513 0.007787 0.081021
v 1.177531 0.018292 0.103884
v 1.185466 0.008015 0.085469
v 1.146774 -0.013100 0.095738
v 1.136069 -0.011703 0.084450
v 1.174160 -0.011931 0.099713
v 1.176188 -0.012949 0.085069
v 1.096274 -0.002543 -0.082448
v 1.095043 -0.006166 -0.065396
v 1.126511 -0.003313 -0.094374
v 1.135498 -0.008032 -0.080476
v 1.105604 -0.032753 -0.041365
v 1.103061 -0.024185 -0.028554
v 1.136548 -0.039557 -0.051081
v 1.143696 -0.026822 -0.044732
v 1.127482 -0.048312 0.024933
v 1.122897 -0.035640 0.028594
v 1.148675 -0.050124 0.014739
v 1.152705 -0.038861 0.013900
v 1.140411 -0.037738 0.074200
v 1.131713 -0.027307 0.068173
v 1.165057 -0.035245 0.071576
v 1.167064 -0.026715 0.063390
vt 0.576771 0.791511
vt 0.576771 0.791511
vt 0.576771 0.791511
vt 0.576771 0.791511
vt 0.576771 0.791511
vt 0.576771 0.791511
vt 0.576771 0.791511
vt 0.576771 0.791511
vt 0.576771 0.791511
vt 0.576771 0.791511
vt 0.576771 0.791511
vt 0.576771 0.791511
vt 0.576771 0.791511
vt 0.576771 0.791511
vt 0.576771 0.791511
vt 0.576771 0.791511
vt 0.576771 0.791511
vt 0.576771 0.791511
vt 0.576771 0.791511
vt 0.576771 0.791511
vt 0.576771 0.791511
vt 0.576771 0.791511
vt 0.576771 0.791511
vt 0.576771 0.791511
vt 0.576771 0.791511
vt 0.576771 0.791511
vt 0.576771 0.791511
vt 0.576771 0.791511
vt 0.576771 0.791511
vt 0.576771 0.791511
vt 0.576771 0.791511
vt 0.576771 0.791511
vt 0.576771 0.791511
vt 0.576771 0.791511
vt 0.576771 0.791511
vt 0.576771 0.791511
vt 0.576771 0.791511
vt 0.576771 0.791511
vt 0.576771 0.791511
vt 0.576771 0.791511
vt 0.576771 0.791511
vt 0.576771 0.791511
vt 0.576771 0.791511
vt 0.576771 0.791511
vt 0.576771 0.791511
vt 0.576771 0.791511
vt 0.576771 0.791511
vt 0.576771 0.791511
vt 0.576771 0.791511
vt 0.033306 0.274428
vt 0.033306 0.274428
vt 0.033306 0.274428
vt 0.033306 0.274428
vt 0.733873 0.914887
vt 0.733873 0.914887
vt 0.733873 0.914887
vt 0.733873 0.914887
vt 0.733873 0.914887
vt 0.733873 0.914887
vt 0.733873 0.914887
vt 0.733873 0.914887
vt 0.733873 0.914887
vt 0.733873 0.914887
vt 0.733873 0.914887
vt 0.733873 0.914887
vt 0.733873 0.914887
vt 0.733873 0.914887
vt 0.733873 0.914887
vt 0.733873 0.914887
vt 0.733873 0.914887
vt 0.733873 0.914887
vt 0.733873 0.914887
vt 0.733873 0.914887
vt 0.733873 0.914887
vt 0.733873 0.914887
vt 0.033306 0.274428
vt 0.033306 0.274428
vt 0.033306 0.274428
vt 0.033306 0.274428
vt 0.033306 0.274428
vt 0.033306 0.274428
vt 0.733873 0.914887
vt 0.033306 0.274428
vt 0.033306 0.274428
vt 0.733873 0.914887
vt 0.733873 0.914887
vt 0.733873 0.914887
vt 0.733873 0.914887
vt 0.733873 0.914887
vt 0.733873 0.914887
vt 0.733873 0.914887
vt 0.733873 0.914887
vt 0.733873 0.914887
vt 0.033306 0.274428
vt 0.033306 0.274428
vt 0.033306 0.274428
vt 0.033306 0.274428
vt 0.033306 0.274428
vt 0.033306 0.274428
vt 0.033306 0.274428
vt 0.033306 0.274428
vt 0.033306 0.274428
vt 0.033306 0.274428
vt 0.033306 0.274428
vt 0.033306 0.274428
vt 0.033306 0.274428
vt 0.033306 0.274428
vt 0.033306 0.274428
vt 0.033306 0.274428
vt 0.033306 0.274428
vt 0.033306 0.274428
vt 0.733873 0.914887
vt 0.733873 0.914887
vt 0.733873 0.914887
vt 0.733873 0.914887
vt 0.733873 0.914887
vt 0.733873 0.914887
vt 0.733873 0.914887
vt 0.733873 0.914887
vt 0.733873 0.914887
vt 0.733873 0.914887
vt 0.733873 0.914887
vt 0.733873 0.914887
vt 0.033306 0.274428
vt 0.033306 0.274428
vt 0.033306 0.274428
vt 0.033306 0.274428
vt 0.033306 0.274428
vt 0.033306 0.274428
vt 0.033306 0.274428
vt 0.033306 0.274428
vt 0.033306 0.274428
vt 0.033306 0.274428
vt 0.033306 0.274428
vt 0.033306 0.274428
vt 0.033306 0.274428
vt 0.033306 0.274428
vt 0.033306 0.274428
vt 0.033306 0.274428
vt 0.033306 0.274428
vt 0.033306 0.274428
vt 0.033306 0.274428
vt 0.033306 0.274428
vt 0.033306 0.274428
vt 0.033306 0.274428
vt 0.033306 0.274428
vt 0.033306 0.274428
vt 0.033306 0.274428
vt 0.033306 0.274428
vt 0.033306 0.274428
vt 0.033306 0.274428
vt 0.033306 0.274428
vt 0.033306 0.274428
vt 0.033306 0.274428
vt 0.033306 0.274428
vt 0.033306 0.274428
vt 0.033306 0.274428
vt 0.033306 0.274428
vt 0.033306 0.274428
vt 0.033306 0.274428
vt 0.033306 0.274428
vt 0.033306 0.274428
vt 0.033306 0.274428
vt 0.033306 0.274428
vt 0.033306 0.274428
vt 0.033306 0.274428
vt 0.033306 0.274428
vt 0.033306 0.274428
vt 0.033306 0.274428
vt 0.033306 0.274428
vt 0.033306 0.274428
vt 0.033306 0.274428
vt 0.033306 0.274428
vt 0.033306 0.274428
vt 0.033306 0.274428
vt 0.033306 0.274428
vt 0.033306 0.274428
vt 0.033306 0.274428
vt 0.033306 0.274428
vt 0.033306 0.274428
vt 0.033306 0.274428
vt 0.033306 0.274428
vt 0.033306 0.274428
vt 0.033306 0.274428
vt 0.033306 0.274428
vt 0.033306 0.274428
vt 0.033306 0.274428
vt 0.033306 0.274428
vt 0.033306 0.274428
vt 0.033306 0.274428
vt 0.033306 0.274428
vt 0.033306 0.274428
vt 0.033306 0.274428
vt 0.033306 0.274428
vt 0.033306 0.274428
vt 0.576771 0.791511
vn -0.0202 0.0001 -0.9998
vn -0.8150 0.0001 -0.5794
vn -0.8121 -0.4098 -0.4154
vn -0.0142 -0.7094 -0.7046
vn -0.0100 0.7053 0.7088
vn -0.5670 0.5850 0.5800
vn -0.5704 0.0001 0.8214
vn -0.0141 0.0001 0.9999
vn 0.0002 1.0000 0.0048
vn -0.8043 0.5942 -0.0057
vn -0.8120 0.4099 -0.4156
vn -0.0142 0.7093 -0.7047
vn -0.5589 -0.8292 -0.0049
vn -0.0001 -1.0000 0.0036
vn -0.0100 -0.7054 0.7087
vn -0.5670 -0.5850 0.5799
vn -0.0001 1.0000 0.0036
vn -0.5588 0.8293 -0.0049
vn -0.5507 -0.5877 -0.5927
vn 0.0100 -0.7089 -0.7053
vn 0.0143 -0.7048 0.7093
vn 0.0200 0.0001 0.9998
vn -0.5507 0.5876 -0.5928
vn 0.0100 0.7088 -0.7054
vn 0.0142 0.0001 -0.9999
vn -0.5474 0.0001 -0.8368
vn 0.0002 -1.0000 0.0048
vn -0.7963 -0.4307 0.4247
vn -0.7929 0.0001 0.6093
vn -0.8042 -0.5943 -0.0057
vn 0.0143 0.7047 0.7094
vn -0.7962 0.4307 0.4248
vn -1.0000 0.0000 0.0006
vn -0.6303 0.0001 0.7764
vn -0.6303 0.5489 0.5490
vn -0.6303 0.5489 -0.5490
vn -0.6303 0.0001 -0.7764
vn -0.6303 -0.7763 0.0001
vn -0.6302 -0.5490 0.5490
vn -0.6302 0.7764 0.0001
vn -0.6302 -0.5490 -0.5490
vn 0.6303 0.5489 -0.5490
vn 0.6303 0.0001 -0.7764
vn 0.6302 -0.5490 0.5490
vn 0.6303 0.0001 0.7764
vn 0.6303 0.5489 0.5490
vn 0.6303 -0.7763 0.0001
vn 0.6302 -0.5490 -0.5490
vn 0.6302 0.7764 0.0001
vn -0.0462 0.0110 -0.9989
vn -0.0429 0.8602 -0.5081
vn 0.3398 0.8742 -0.3469
vn 0.3651 0.0254 -0.9306
vn -0.1422 0.9338 -0.3283
vn 0.3566 0.8483 0.3914
vn -0.1506 0.9398 0.3067
vn -0.4925 -0.0102 -0.8703
vn 0.0411 0.0004 -0.9992
vn 0.2141 -0.8386 -0.5009
vn -0.3268 0.0439 -0.9441
vn -0.1427 -0.9622 -0.2319
vn 0.4017 0.9100 0.1025
vn -0.1661 0.9763 0.1385
vn -0.2407 0.8427 0.4815
vn 0.3479 0.8236 0.4480
vn -0.3578 0.0849 0.9299
vn -0.3953 -0.0625 0.9164
vn 0.2694 -0.0876 0.9591
vn 0.3302 -0.9147 0.2330
vn 0.9613 -0.1056 0.2545
vn -0.1452 -0.9503 0.2755
vn 0.4116 -0.9065 -0.0942
vn 0.2849 0.8050 -0.5204
vn -0.0404 -0.8579 -0.5122
vn 0.3352 -0.8685 -0.3651
vn -0.0250 0.0006 0.9997
vn -0.0251 -0.8111 0.5843
vn 0.3411 -0.8395 0.4228
vn 0.3235 0.0334 0.9456
vn 0.9986 -0.0451 0.0258
vn -0.0271 0.8155 0.5782
vn -0.1647 -0.9094 0.3820
vn -0.1388 -0.9227 -0.3597
vn 0.4233 0.8948 -0.1421
vn -0.1870 0.9479 -0.2578
vn 0.9127 -0.0520 -0.4054
vn 0.9980 -0.0604 -0.0165
vn -0.0085 0.8152 0.5791
vn -0.0068 0.0004 1.0000
vn -0.0394 -0.0009 0.9992
vn -0.0438 0.8693 0.4924
vn -0.0200 0.8607 -0.5087
vn -0.0566 0.9063 -0.4188
vn -0.0069 -0.8108 0.5853
vn -0.0182 -0.8587 -0.5121
vn -0.0535 -0.9061 -0.4196
vn -0.0396 -0.8636 0.5026
vn -0.0240 0.0107 -0.9997
vn -0.0841 0.0163 -0.9963
vn -0.5536 0.0116 -0.8327
vn -0.4890 0.7752 -0.3998
vn -0.4961 -0.7709 -0.3995
vn -0.4880 -0.0003 0.8729
vn -0.4997 -0.7294 0.4671
vn -0.5038 0.7322 0.4584
vn -0.1502 0.8269 0.5419
vn -0.1500 -0.0006 0.9887
vn -0.1567 0.8727 -0.4625
vn -0.1470 -0.8226 0.5493
vn -0.1575 -0.8715 -0.4644
vn -0.1930 0.0123 -0.9811
vn 0.4381 0.8404 0.3191
vn 0.8656 0.3597 0.3484
vn 0.8963 0.4298 0.1093
vn 0.4719 0.8808 -0.0401
vn -0.5619 0.8104 0.1660
vn -0.5837 0.7815 -0.2201
vn -0.9141 0.3215 -0.2471
vn -0.9313 0.3642 -0.0004
vn 0.9079 0.4167 -0.0464
vn 0.5007 0.7929 -0.3473
vn -0.4982 0.7092 -0.4989
vn -0.8969 0.2798 -0.3425
vn 0.3570 0.5591 0.7483
vn 0.8545 0.2479 0.4565
vn -0.9356 0.3019 0.1831
vn -0.6170 0.5661 0.5466
vn 0.4484 -0.1098 0.8870
vn 0.9053 -0.2167 0.3653
vn -0.9557 -0.0085 0.2943
vn -0.5728 -0.0867 0.8151
vn 0.5104 0.0486 -0.8586
vn -0.4963 0.1111 -0.8610
vn 0.9735 -0.0054 -0.2285
vn -0.9006 0.0576 -0.4308
vn 0.4643 -0.8054 -0.3685
vn -0.4884 -0.7077 -0.5105
vn 0.9053 -0.4248 0.0068
vn -0.8827 -0.3646 -0.2965
vn 0.8961 -0.3936 0.2054
vn 0.5291 -0.8382 0.1325
vn -0.4998 -0.8644 -0.0550
vn -0.8692 -0.4818 -0.1108
vn -0.5291 -0.7799 0.3344
vn -0.9140 -0.3976 0.0808
vn 0.3574 -0.8014 0.4795
vn 0.8638 -0.4365 0.2516
vn 0.5164 0.8539 0.0640
vn 0.9410 0.3151 -0.1232
vn 0.9109 0.2882 -0.2953
vn 0.4352 0.8615 -0.2616
vn -0.5184 0.7874 0.3336
vn -0.6581 0.7503 0.0633
vn -0.9193 0.3423 0.1942
vn -0.8580 0.3476 0.3781
vn 0.8640 0.2673 -0.4267
vn 0.3225 0.7739 -0.5450
vn -0.6852 0.6895 -0.2347
vn -0.9532 0.2990 0.0438
vn 0.5028 0.3512 0.7898
vn 0.9794 0.0672 0.1902
vn -0.7770 0.2027 0.5960
vn -0.4487 0.4318 0.7824
vn 0.4626 -0.4166 0.7826
vn 0.9123 -0.3823 0.1466
vn -0.7438 -0.1643 0.6479
vn -0.4089 -0.3243 0.8530
vn 0.1769 -0.0496 -0.9830
vn -0.7608 -0.0466 -0.6473
vn 0.8404 -0.1694 -0.5148
vn -0.9905 -0.1311 -0.0416
vn 0.3372 -0.8287 -0.4467
vn -0.6353 -0.7480 -0.1921
vn 0.8586 -0.3902 -0.3325
vn -0.8924 -0.4359 0.1170
vn 0.9101 -0.3645 -0.1970
vn 0.4692 -0.8768 -0.1052
vn -0.4930 -0.8543 0.1650
vn -0.8559 -0.4499 0.2549
vn -0.3826 -0.7667 0.5155
vn -0.8009 -0.4109 0.4354
vn 0.5494 -0.7869 0.2809
vn 0.9115 -0.3995 -0.0980
vn 1.0000 -0.0000 0.0000
usemtl rpgpp_lt_mat_a.008
s 1
f 12/1/1 16/2/2 28/3/3 27/4/4
f 1/5/5 3/6/6 4/7/7 5/8/8
f 19/9/9 18/10/10 33/11/11 17/12/12
f 8/13/13 23/14/14 6/15/15 2/16/16
f 7/17/17 9/18/18 3/6/6 1/5/5
f 13/19/19 14/20/20 23/14/14 8/13/13
f 2/16/16 6/15/15 5/8/8 4/7/7
f 6/15/15 25/21/21 21/22/22 5/8/8
f 30/23/23 15/24/24 10/25/25 11/26/26
f 23/14/14 24/27/27 25/21/21 6/15/15
f 25/21/21 32/28/28 22/29/29 21/22/22
f 27/4/4 28/3/3 26/30/30 24/27/27
f 14/20/20 27/4/4 24/27/27 23/14/14
f 24/27/27 26/30/30 32/28/28 25/21/21
f 1/5/5 20/31/31 19/9/9 7/17/17
f 15/24/24 30/23/23 9/18/18 7/17/17
f 5/8/8 21/22/22 20/31/31 1/5/5
f 21/22/22 22/29/29 31/32/32 20/31/31
f 11/26/26 10/25/25 14/20/20 13/19/19
f 7/17/17 19/9/9 17/12/12 15/24/24
f 15/24/24 17/12/12 12/1/1 10/25/25
f 20/31/31 31/32/32 18/10/10 19/9/9
f 17/12/12 33/11/11 16/2/2 12/1/1
f 4/7/7 3/6/6 29/33/33
f 3/6/6 9/18/18 29/33/33
f 2/16/16 4/7/7 29/33/33
f 8/13/13 2/16/16 29/33/33
f 13/19/19 8/13/13 29/33/33
f 11/26/26 13/19/19 29/33/33
f 30/23/23 11/26/26 29/33/33
f 9/18/18 30/23/23 29/33/33
f 10/25/25 12/1/1 27/4/4 14/20/20
f 31/32/32 22/29/29 36/34/34 39/35/35
f 16/2/2 33/11/11 41/36/36 34/37/37
f 32/28/28 26/30/30 37/38/38 40/39/39
f 22/29/29 32/28/28 40/39/39 36/34/34
f 33/11/11 18/10/10 35/40/40 41/36/36
f 26/30/30 28/3/3 38/41/41 37/38/38
f 18/10/10 31/32/32 39/35/35 35/40/40
f 28/3/3 16/2/2 34/37/37 38/41/41
f 34/37/37 41/36/36 49/42/42 42/43/43
f 36/34/34 40/39/39 48/44/44 44/45/45
f 39/35/35 36/34/34 44/45/45 47/46/46
f 40/39/39 37/38/38 45/47/47 48/44/44
f 37/38/38 38/41/41 46/48/48 45/47/47
f 35/40/40 39/35/35 47/46/46 43/49/49
f 41/36/36 35/40/40 43/49/49 49/42/42
f 38/41/41 34/37/37 42/43/43 46/48/48
f 100/50/50 97/51/51 81/52/52 55/53/53
f 79/54/54 81/55/52 80/56/55 72/57/56
f 77/58/57 51/59/58 53/60/59
f 78/61/60 77/58/57 52/62/61
f 55/63/53 81/55/52 79/54/54 78/61/60
f 70/64/62 74/65/63 69/66/64 67/67/65
f 74/65/63 72/57/56 71/68/66 69/66/64
f 71/68/66 68/69/67 69/66/64
f 66/70/68 57/71/69 87/72/70
f 57/71/69 58/73/71 52/62/61 54/74/72
f 76/75/73 51/59/58 77/58/57
f 95/76/74 100/50/50 55/53/53 59/77/75
f 99/78/76 96/79/77 61/80/78 82/81/79
f 96/79/77 95/76/74 59/77/75 61/80/78
f 87/72/70 57/71/69 88/82/80
f 57/71/69 66/70/68 68/69/67 58/73/71
f 97/51/51 98/83/81 80/84/55 81/52/52
f 60/85/82 61/86/78 59/87/75 56/88/83
f 67/67/65 69/66/64 68/69/67 66/70/68
f 68/69/67 71/68/66 60/85/82 58/73/71
f 75/89/84 73/90/85 74/65/63 70/64/62
f 53/60/59 54/74/72 52/62/61 77/58/57
f 58/73/71 60/85/82 56/88/83 52/62/61
f 82/91/79 61/86/78 60/85/82 71/68/66
f 73/90/85 79/54/54 72/57/56 74/65/63
f 72/57/56 80/56/55 82/91/79 71/68/66
f 52/62/61 56/88/83 78/61/60
f 98/83/81 99/78/76 82/81/79 80/84/55
f 56/88/83 59/87/75 55/63/53 78/61/60
f 53/60/59 51/59/58 86/92/86
f 85/93/87 54/74/72 53/60/59 86/92/86
f 54/74/72 85/93/87 88/82/80 57/71/69
f 67/67/65 87/72/70 88/82/80 70/64/62
f 51/59/58 76/75/73 86/92/86
f 67/67/65 66/70/68 87/72/70
f 75/89/84 85/93/87 86/92/86 76/75/73
f 85/93/87 75/89/84 70/64/62 88/82/80
f 106/94/88 101/95/89 89/96/90 94/97/91
f 105/98/92 106/94/88 94/97/91 92/99/93
f 104/100/94 103/101/95 90/102/96 91/103/97
f 101/95/89 104/100/94 91/103/97 89/96/90
f 103/101/95 102/104/98 93/105/99 90/102/96
f 102/104/98 105/98/92 92/99/93 93/105/99
f 94/97/91 89/96/90 99/78/76 98/83/81
f 92/99/93 94/97/91 98/83/81 97/51/51
f 91/103/97 90/102/96 95/76/74 96/79/77
f 89/96/90 91/103/97 96/79/77 99/78/76
f 90/102/96 93/105/99 100/50/50 95/76/74
f 93/105/99 92/99/93 97/51/51 100/50/50
f 108/106/100 111/107/101 105/98/92 102/104/98
f 109/108/102 108/106/100 102/104/98 103/101/95
f 107/109/103 110/110/104 104/100/94 101/95/89
f 110/110/104 109/108/102 103/101/95 104/100/94
f 111/107/101 112/111/105 106/94/88 105/98/92
f 112/111/105 107/109/103 101/95/89 106/94/88
f 84/112/106 62/113/107 107/114/103 112/115/105
f 83/116/108 84/112/106 112/115/105 111/117/101
f 64/118/109 65/119/110 109/120/102 110/121/104
f 62/113/107 64/118/109 110/121/104 107/114/103
f 65/119/110 63/122/111 108/123/100 109/120/102
f 63/122/111 83/116/108 111/117/101 108/123/100
f 77/58/57 73/90/85 75/89/84 76/75/73
f 77/58/57 78/61/60 79/54/54 73/90/85
f 115/124/112 116/125/113 120/126/114 119/127/115
f 113/128/116 117/129/117 118/130/118 114/131/119
f 115/124/112 119/127/115 117/129/117 113/128/116
f 119/127/115 120/126/114 124/132/120 123/133/121
f 117/129/117 121/134/122 122/135/123 118/130/118
f 119/127/115 123/133/121 121/134/122 117/129/117
f 116/125/113 115/124/112 127/136/124 128/137/125
f 114/131/119 126/138/126 125/139/127 113/128/116
f 113/128/116 125/139/127 127/136/124 115/124/112
f 128/137/125 127/136/124 131/140/128 132/141/129
f 126/138/126 130/142/130 129/143/131 125/139/127
f 125/139/127 129/143/131 131/140/128 127/136/124
f 123/133/121 135/144/132 133/145/133 121/134/122
f 123/133/121 124/132/120 136/146/134 135/144/132
f 121/134/122 133/145/133 134/147/135 122/135/123
f 135/144/132 139/148/136 137/149/137 133/145/133
f 135/144/132 136/146/134 140/150/138 139/148/136
f 133/145/133 137/149/137 138/151/139 134/147/135
f 139/148/136 140/150/138 144/152/140 143/153/141
f 137/149/137 141/154/142 142/155/143 138/151/139
f 139/148/136 143/153/141 141/154/142 137/149/137
f 141/154/142 145/156/144 146/157/145 142/155/143
f 143/153/141 147/158/146 145/156/144 141/154/142
f 143/153/141 144/152/140 148/159/147 147/158/146
f 132/141/129 131/140/128 147/158/146 148/159/147
f 131/140/128 129/143/131 145/156/144 147/158/146
f 129/143/131 130/142/130 146/157/145 145/156/144
f 151/160/148 152/161/149 156/162/150 155/163/151
f 149/164/152 153/165/153 154/166/154 150/167/155
f 151/160/148 155/163/151 153/165/153 149/164/152
f 155/163/151 156/162/150 160/168/156 159/169/157
f 153/165/153 157/170/158 158/171/159 154/166/154
f 155/163/151 159/169/157 157/170/158 153/165/153
f 152/161/149 151/160/148 163/172/160 164/173/161
f 150/167/155 162/174/162 161/175/163 149/164/152
f 149/164/152 161/175/163 163/172/160 151/160/148
f 164/173/161 163/172/160 167/176/164 168/177/165
f 162/174/162 166/178/166 165/179/167 161/175/163
f 161/175/163 165/179/167 167/176/164 163/172/160
f 159/169/157 171/180/168 169/181/169 157/170/158
f 159/169/157 160/168/156 172/182/170 171/180/168
f 157/170/158 169/181/169 170/183/171 158/171/159
f 171/180/168 175/184/172 173/185/173 169/181/169
f 171/180/168 172/182/170 176/186/174 175/184/172
f 169/181/169 173/185/173 174/187/175 170/183/171
f 175/184/172 176/186/174 180/188/176 179/189/177
f 173/185/173 177/190/178 178/191/179 174/187/175
f 175/184/172 179/189/177 177/190/178 173/185/173
f 177/190/178 181/192/180 182/193/181 178/191/179
f 179/189/177 183/194/182 181/192/180 177/190/178
f 179/189/177 180/188/176 184/195/183 183/194/182
f 168/177/165 167/176/164 183/194/182 184/195/183
f 167/176/164 165/179/167 181/192/180 183/194/182
f 165/179/167 166/178/166 182/193/181 181/192/180
f 46/48/48 42/43/43 50/196/184
f 42/43/43 49/42/42 50/196/184
f 44/45/45 48/44/44 50/196/184
f 47/46/46 44/45/45 50/196/184
f 48/44/44 45/47/47 50/196/184
f 45/47/47 46/48/48 50/196/184
f 43/49/49 47/46/46 50/196/184
f 49/42/42 43/49/49 50/196/184
