# Blender v2.79 (sub 0) OBJ File: ''
# www.blender.org
mtllib rpgpp_lt_bird_house_01.mtl
o rpgpp_lt_bird_house_01_rpgpp_lt_bird_house_01.001
v -0.322355 2.133530 -0.128767
v -0.311094 2.122108 -0.128877
v -0.310536 2.110911 0.005996
v -0.320984 2.119411 0.005995
v -0.310884 2.147729 0.134351
v -0.298019 2.137127 0.134387
v -0.013077 2.497934 -0.065342
v -0.015156 2.497831 -0.190071
v -0.002917 2.487664 -0.194480
v -0.000644 2.488715 -0.058991
v -0.302331 2.159050 -0.186272
v -0.290090 2.148885 -0.190405
v -0.284290 2.148975 -0.058699
v -0.300555 2.159513 -0.064839
v -0.013356 2.501217 0.202447
v -0.013350 2.499522 0.083312
v -0.000135 2.488904 0.080878
v -0.000491 2.490615 0.202484
v -0.288335 2.175936 0.195773
v -0.288411 2.174141 0.077503
v -0.271788 2.163754 0.074357
v -0.275470 2.165335 0.195810
v -0.010497 2.497066 0.078398
v -0.011310 2.497786 -0.056958
v -0.287437 2.140462 0.070650
v -0.298148 2.148641 0.070640
v -0.298212 2.148089 -0.056591
v -0.287501 2.139910 -0.056580
v 0.297238 2.157444 -0.048420
v 0.306915 2.165382 -0.048420
v 0.306556 2.165905 -0.195263
v 0.296880 2.157967 -0.195263
v 0.030758 2.501363 -0.049260
v 0.030878 2.499514 -0.191734
v 0.021202 2.491575 -0.191734
v 0.021598 2.491524 -0.046089
v 0.295960 2.149434 0.207191
v 0.308415 2.158976 0.207185
v 0.307047 2.159528 0.068084
v 0.294593 2.149986 0.068090
v 0.032928 2.497196 0.074639
v 0.032637 2.499262 0.196651
v 0.020183 2.489719 0.196658
v 0.020567 2.488077 0.071488
v 0.292300 2.165069 -0.045646
v 0.289314 2.162611 0.064590
v 0.034198 2.499650 0.068388
v 0.307320 2.174358 0.061027
v 0.307244 2.176154 -0.042868
v 0.035652 2.500774 -0.042861
v 0.312162 2.127703 0.134664
v 0.324353 2.137566 0.134647
v 0.309783 2.144583 0.015969
v 0.323320 2.155733 0.016027
v 0.315033 2.136611 -0.120522
v 0.324709 2.144550 -0.120522
v -0.084733 0.000162 0.052202
v 0.005867 0.000162 0.104402
v 0.096467 0.000162 0.052202
v 0.096467 0.000162 -0.052798
v 0.005867 0.000162 -0.104998
v -0.084733 0.000162 -0.052798
v -0.093018 1.798630 0.056535
v 0.005296 1.798630 0.113297
v 0.103610 1.798630 0.056535
v 0.103610 1.798630 -0.056988
v 0.005296 1.798630 -0.113749
v -0.093018 1.798630 -0.056988
v 0.005296 0.489388 0.124648
v 0.113440 0.489388 -0.062663
v -0.102848 0.489388 -0.062663
v -0.102848 0.489388 0.062211
v 0.113440 0.489388 0.062211
v 0.005296 0.489388 -0.125100
v 0.005296 1.798630 -0.000226
v 0.005296 1.045943 0.120318
v 0.109690 1.045943 -0.060498
v -0.099099 1.045943 -0.060498
v -0.099099 1.045943 0.060046
v 0.109690 1.045943 0.060046
v 0.005296 1.045943 -0.120770
v 0.111892 1.174307 0.061318
v -0.101301 1.174307 0.061317
v -0.101301 1.174307 -0.061770
v 0.111892 1.174307 -0.061770
v 0.005296 1.174307 0.122861
v 0.005296 1.174307 -0.123314
v 0.005296 1.109797 0.092264
v 0.085394 1.109797 -0.046471
v -0.074803 1.109797 -0.046471
v -0.074803 1.109797 0.046019
v 0.085394 1.109797 0.046019
v 0.005296 1.109797 -0.092716
v -0.167504 2.283585 0.172574
v -0.167504 2.283585 -0.173026
v -0.167504 1.775830 -0.173026
v -0.167504 1.775830 0.172574
v -0.115664 1.827670 0.172574
v -0.115664 2.170390 0.172574
v 0.005296 2.233327 0.172574
v 0.126256 2.170390 0.172574
v 0.178096 2.283585 0.172574
v 0.178096 1.775830 0.172574
v 0.126256 1.827670 0.172574
v 0.178096 2.283585 -0.173026
v 0.178096 1.775830 -0.173026
v -0.115664 1.827670 -0.117171
v -0.115664 2.170390 -0.117171
v 0.005296 2.233327 -0.117171
v 0.126256 2.170390 -0.117171
v 0.126256 1.827670 -0.117171
v 0.005296 2.489103 0.172574
v 0.005296 2.489103 -0.173026
v -0.014516 2.447139 -0.323532
v -0.014516 2.563619 -0.323532
v 0.033992 2.447139 -0.323532
v 0.033992 2.563619 -0.323532
v -0.014516 2.447139 0.337428
v -0.014516 2.563619 0.337428
v 0.033992 2.447139 0.337428
v 0.033992 2.563619 -0.046222
v -0.313521 2.072889 0.190722
v -0.313521 2.072889 0.248544
v -0.373355 2.095552 0.190488
v -0.373355 2.095552 0.248528
v 0.006608 2.463596 0.190732
v 0.006825 2.555380 0.248522
v 0.006825 2.553228 0.190499
v 0.006608 2.461601 0.248538
v 0.317179 2.078797 0.190742
v 0.317179 2.078797 0.248533
v 0.372081 2.096326 0.190509
v 0.372081 2.096326 0.248516
v -0.313521 2.072889 -0.242269
v -0.313521 2.072889 -0.184448
v -0.373355 2.095552 -0.242503
v -0.373355 2.095552 -0.184464
v 0.006608 2.463596 -0.242259
v 0.006825 2.555380 -0.184469
v 0.006825 2.553228 -0.242492
v 0.006608 2.461601 -0.184453
v 0.317179 2.078797 -0.242249
v 0.317179 2.078797 -0.184458
v 0.372081 2.096326 -0.242482
v 0.372081 2.096326 -0.184475
v -0.014516 2.563619 -0.192899
v -0.014516 2.563619 0.141200
v 0.005875 2.563619 -0.080345
v -0.014516 2.549272 -0.014581
v 0.017989 2.563619 0.337428
v 0.033992 2.523024 0.337428
v 0.033992 2.563619 0.309474
v 0.033992 2.563619 0.207082
v 0.033992 2.547860 0.043719
v 0.015287 2.563619 0.066061
v 0.126256 1.948862 0.172574
v 0.144311 2.065059 0.172574
v 0.126256 2.087459 0.141230
v -0.115664 2.083382 0.172574
v -0.115664 1.933614 0.155520
v -0.133440 1.958895 0.172574
v -0.337495 2.081970 0.248537
v -0.343737 2.084334 0.209665
v -0.355834 2.088916 0.248532
v -0.343737 2.084334 0.209665
v -0.197026 2.266743 0.248532
v 0.257137 2.240787 0.248518
v 0.074493 2.470335 0.248521
v 0.130652 2.399556 0.223523
v 0.151474 2.340043 0.248526
vt 0.703821 0.842089
vt 0.703821 0.842089
vt 0.703821 0.842089
vt 0.703821 0.842089
vt 0.703821 0.842089
vt 0.703821 0.842089
vt 0.703821 0.842089
vt 0.703821 0.842089
vt 0.668066 0.829908
vt 0.668066 0.829908
vt 0.668066 0.829908
vt 0.668066 0.829908
vt 0.666055 0.845043
vt 0.666055 0.845043
vt 0.666055 0.845043
vt 0.666055 0.845043
vt 0.666055 0.845043
vt 0.666055 0.845043
vt 0.703821 0.842089
vt 0.703821 0.842089
vt 0.703821 0.842089
vt 0.703821 0.842089
vt 0.666055 0.845043
vt 0.666055 0.845043
vt 0.666055 0.845043
vt 0.703821 0.842089
vt 0.703821 0.842089
vt 0.666055 0.845043
vt 0.666055 0.845043
vt 0.689758 0.849815
vt 0.689758 0.849815
vt 0.689758 0.849815
vt 0.689758 0.849815
vt 0.689758 0.849815
vt 0.689758 0.849815
vt 0.689758 0.849815
vt 0.689758 0.849815
vt 0.689758 0.849815
vt 0.689758 0.849815
vt 0.703821 0.842089
vt 0.703821 0.842089
vt 0.703821 0.842089
vt 0.703821 0.842089
vt 0.703821 0.842089
vt 0.703821 0.842089
vt 0.703821 0.842089
vt 0.689758 0.849815
vt 0.689758 0.849815
vt 0.689758 0.849815
vt 0.689758 0.849815
vt 0.689758 0.849815
vt 0.689758 0.849815
vt 0.689758 0.849815
vt 0.689758 0.849815
vt 0.689758 0.849815
vt 0.689758 0.849815
vt 0.668066 0.829908
vt 0.668066 0.829908
vt 0.668066 0.829908
vt 0.668066 0.829908
vt 0.668066 0.829908
vt 0.668066 0.829908
vt 0.689758 0.849815
vt 0.666055 0.845043
vt 0.609082 0.780260
vt 0.609082 0.780260
vt 0.609082 0.780260
vt 0.609082 0.780260
vt 0.609082 0.780260
vt 0.609082 0.780260
vt 0.609082 0.780260
vt 0.609082 0.780260
vt 0.609082 0.780260
vt 0.609082 0.780260
vt 0.609082 0.780260
vt 0.609082 0.780260
vt 0.609082 0.780260
vt 0.609082 0.780260
vt 0.609082 0.780260
vt 0.609082 0.780260
vt 0.609082 0.780260
vt 0.609082 0.780260
vt 0.609082 0.780260
vt 0.609082 0.780260
vt 0.609082 0.780260
vt 0.609082 0.780260
vt 0.609082 0.780260
vt 0.609082 0.780260
vt 0.609082 0.780260
vt 0.609082 0.780260
vt 0.609082 0.780260
vt 0.609082 0.780260
vt 0.609082 0.780260
vt 0.609082 0.780260
vt 0.609082 0.780260
vt 0.609082 0.780260
vt 0.609082 0.780260
vt 0.609082 0.780260
vt 0.609082 0.780260
vt 0.609082 0.780260
vt 0.609082 0.780260
vt 0.609082 0.780260
vt 0.609082 0.780260
vt 0.609082 0.780260
vt 0.609082 0.780260
vt 0.609082 0.780260
vt 0.609082 0.780260
vt 0.609082 0.780260
vt 0.609082 0.780260
vt 0.609082 0.780260
vt 0.609082 0.780260
vt 0.609082 0.780260
vt 0.609082 0.780260
vt 0.609082 0.780260
vt 0.609082 0.780260
vt 0.609082 0.780260
vt 0.609082 0.780260
vt 0.609082 0.780260
vt 0.609082 0.780260
vt 0.609082 0.780260
vt 0.609082 0.780260
vt 0.609082 0.780260
vt 0.609082 0.780260
vt 0.609082 0.780260
vt 0.609082 0.780260
vt 0.609082 0.780260
vt 0.609082 0.780260
vt 0.611942 0.794791
vt 0.611942 0.794791
vt 0.611942 0.794791
vt 0.611942 0.794791
vt 0.611942 0.794791
vt 0.611942 0.794791
vt 0.611942 0.794791
vt 0.611942 0.794791
vt 0.611942 0.794791
vt 0.611942 0.794791
vt 0.611942 0.794791
vt 0.583141 0.971865
vt 0.583141 0.971865
vt 0.583141 0.971865
vt 0.611942 0.794791
vt 0.611942 0.794791
vt 0.611942 0.794791
vt 0.611942 0.794791
vt 0.611942 0.794791
vt 0.611942 0.794791
vt 0.611942 0.794791
vt 0.611942 0.794791
vt 0.611942 0.794791
vt 0.611942 0.794791
vt 0.611942 0.794791
vt 0.611942 0.794791
vt 0.611942 0.794791
vt 0.611942 0.794791
vt 0.611942 0.794791
vt 0.611942 0.794791
vt 0.611942 0.794791
vt 0.611942 0.794791
vt 0.611942 0.794791
vt 0.611942 0.794791
vt 0.611942 0.794791
vt 0.611942 0.794791
vt 0.611942 0.794791
vt 0.611942 0.794791
vt 0.611942 0.794791
vt 0.611942 0.794791
vt 0.611942 0.794791
vt 0.611942 0.794791
vt 0.611942 0.794791
vt 0.611942 0.794791
vt 0.611942 0.794791
vt 0.611942 0.794791
vt 0.611942 0.794791
vt 0.611942 0.794791
vt 0.611942 0.794791
vt 0.611942 0.794791
vt 0.583141 0.971865
vt 0.583141 0.971865
vt 0.583141 0.971865
vt 0.583141 0.971865
vt 0.583141 0.971865
vt 0.611942 0.794791
vt 0.611942 0.794791
vt 0.611942 0.794791
vt 0.583141 0.971865
vt 0.583141 0.971865
vt 0.583141 0.971865
vt 0.583141 0.971865
vt 0.583141 0.971865
vt 0.583141 0.971865
vt 0.583141 0.971865
vt 0.583141 0.971865
vt 0.583141 0.971865
vt 0.583141 0.971865
vt 0.583141 0.971865
vt 0.611942 0.794791
vt 0.583141 0.971865
vt 0.583141 0.971865
vt 0.583141 0.971865
vt 0.583141 0.971865
vn -0.8015 0.1116 0.5874
vn -0.6148 0.5214 0.5917
vn -0.6099 0.5104 -0.6062
vn -0.7859 0.1364 -0.6031
vn 0.4604 -0.3954 -0.7948
vn 0.1332 -0.6444 -0.7530
vn 0.1454 -0.6286 0.7640
vn -0.2587 0.2190 0.9408
vn 0.7830 0.0658 -0.6185
vn 0.5748 0.4807 -0.6622
vn 0.5871 0.4773 0.6538
vn 0.7669 0.0716 0.6378
vn 0.2151 -0.7381 0.6395
vn 0.2262 -0.7842 -0.5779
vn 0.3972 -0.4082 -0.8220
vn 0.7718 -0.6359 -0.0019
vn 0.4444 -0.3996 0.8018
vn -0.1463 -0.8182 0.5561
vn 0.0079 -1.0000 0.0015
vn 0.9829 -0.1843 0.0019
vn 0.7901 0.0217 0.6126
vn -0.6067 0.4869 0.6283
vn -0.7508 0.0534 0.6584
vn -0.1900 0.1372 0.9721
vn -0.7538 0.0604 -0.6544
vn -0.9844 -0.1757 -0.0006
vn -0.0946 -0.9953 -0.0196
vn 0.7650 -0.6437 -0.0204
vn -0.9691 -0.2468 -0.0042
vn -0.0109 -0.9999 -0.0026
vn -0.7282 0.0891 0.6795
vn -0.5435 0.4448 0.7119
vn -0.5718 0.4954 -0.6539
vn -0.7502 0.0889 -0.6552
vn 0.2260 -0.6468 -0.7284
vn -0.0522 -0.9986 0.0033
vn -0.9730 -0.2306 -0.0116
vn 0.2063 -0.6928 0.6910
vn 0.5256 -0.4564 0.7179
vn 0.7652 -0.6435 0.0214
vn -0.1078 0.1093 -0.9881
vn -0.1734 -0.7318 -0.6591
vn 0.7492 0.0295 -0.6617
vn -0.5517 -0.4481 -0.7034
vn 0.5437 0.4555 -0.7050
vn 0.6212 0.5132 0.5922
vn -0.4092 -0.4337 0.8028
vn -0.7711 -0.6367 0.0043
vn -0.1851 -0.8123 -0.5531
vn -0.1853 -0.7234 0.6651
vn -0.5691 -0.4393 0.6951
vn -0.7770 -0.6295 -0.0089
vn -0.3916 -0.3857 -0.8354
vn -0.0249 -0.9996 -0.0149
vn 0.9745 -0.2235 -0.0202
vn 0.7519 0.0206 0.6589
vn 0.7791 0.0101 -0.6268
vn 0.5375 0.4580 0.7081
vn -0.1499 -0.6794 -0.7183
vn 0.9767 -0.2109 0.0397
vn 0.0697 -0.9974 0.0208
vn 0.1385 0.0937 0.9859
vn -0.2037 -0.6724 0.7116
vn 0.1292 0.1070 -0.9858
vn 0.1792 0.1498 0.9724
vn -0.7702 -0.6371 -0.0301
vn 0.6033 0.5027 -0.6192
vn -0.5933 0.4880 -0.6402
vn -0.1304 0.1070 -0.9857
vn 0.1804 0.1674 -0.9692
vn -0.8490 0.1972 -0.4902
vn -0.8659 -0.0168 -0.4999
vn 0.0000 -0.0168 -0.9999
vn 0.0000 0.1972 -0.9804
vn 0.8659 -0.0168 -0.4999
vn 0.8490 0.1972 -0.4902
vn -0.8488 -0.1985 -0.4900
vn -0.8488 -0.1985 0.4900
vn -0.6824 0.6157 0.3940
vn -0.6824 0.6157 -0.3940
vn 0.0000 -0.0168 0.9999
vn 0.0000 -0.1985 0.9801
vn -0.8659 -0.0168 0.4999
vn 0.6824 0.6157 -0.3940
vn 0.6824 0.6157 0.3940
vn 0.8488 -0.1985 0.4900
vn 0.8488 -0.1985 -0.4900
vn 0.0000 0.6157 -0.7879
vn 0.0000 -0.1985 -0.9801
vn -0.8490 0.1972 0.4902
vn 0.8659 -0.0161 -0.5000
vn 0.8490 0.1972 0.4902
vn 0.8658 -0.0161 0.5001
vn -0.8659 -0.0171 -0.4999
vn -0.0002 -0.0165 -0.9999
vn 0.8659 -0.0168 0.4999
vn -0.0000 0.1972 0.9804
vn 0.0000 0.6157 0.7879
vn 0.8653 -0.0403 0.4997
vn -0.0002 -0.0166 0.9999
vn 0.0004 -0.0412 0.9991
vn 0.0000 1.0000 -0.0000
vn 0.0004 -0.0409 -0.9992
vn 0.8652 -0.0402 -0.4997
vn -0.8650 -0.0423 0.5000
vn -0.8659 -0.0171 0.4999
vn -0.8650 -0.0422 -0.5000
vn -0.5409 0.0000 0.8411
vn -0.5409 0.0000 -0.8411
vn -0.5774 -0.5774 -0.5774
vn -0.5774 -0.5774 0.5774
vn 0.3010 0.3053 0.9034
vn 0.3549 -0.0241 0.9346
vn 0.7071 -0.0036 0.7071
vn 0.6794 -0.4124 0.6069
vn 0.0000 -0.7874 0.6165
vn -0.4564 -0.2897 0.8413
vn 0.5409 0.0000 0.8411
vn 0.0000 0.0000 1.0000
vn 0.5409 0.0000 -0.8411
vn 0.5774 -0.5774 0.5774
vn 0.5774 -0.5774 -0.5774
vn 0.9293 0.0316 0.3679
vn 0.5774 0.5774 0.5774
vn -0.6794 -0.4124 0.6069
vn -0.5774 0.5774 0.5774
vn -0.7072 0.0077 0.7070
vn -0.9702 -0.0346 0.2400
vn -0.5006 0.0228 0.8654
vn -0.0000 0.0000 -1.0000
vn 0.5774 0.5774 -0.5774
vn 0.7071 0.7071 0.0064
vn 0.9171 0.3969 0.0379
vn 0.7071 0.7071 -0.0029
vn 0.7113 0.6932 0.1161
vn 0.7082 0.0514 0.7042
vn -0.5774 0.5774 -0.5774
vn 0.3331 0.9428 -0.0160
vn -0.7071 0.7071 -0.0019
vn -0.9147 0.4032 -0.0279
vn -0.7070 0.7072 0.0032
vn 0.0077 0.8199 -0.5724
vn 0.7879 -0.2392 -0.5675
vn -0.2298 -0.7655 -0.6010
vn -0.0014 -0.3687 -0.9295
vn 0.0078 0.8202 -0.5721
vn 0.7881 -0.2393 -0.5671
vn 0.2071 -0.7741 -0.5983
vn 0.2073 -0.7778 0.5933
vn -0.7468 -0.2615 0.6114
vn -0.0648 0.9979 -0.0001
vn 0.1018 -0.7471 0.6568
vn -0.8033 -0.2123 0.5565
vn -0.7953 -0.2107 -0.5684
vn -0.0014 -0.3823 0.9240
vn 0.0076 0.8264 0.5630
vn -0.0523 -0.0636 0.9966
vn -0.2300 -0.7690 0.5964
vn 0.7963 -0.2413 0.5547
vn 0.5537 0.4468 0.7027
vn 0.2721 0.2607 0.9263
vn 0.5615 0.4370 0.7026
vn 0.7861 0.5641 0.2526
vn 0.7961 -0.2413 0.5550
vn 0.0076 0.8261 0.5634
vn -0.2258 0.9737 0.0309
vn 0.2992 0.6670 0.6824
vn 0.0039 0.9759 0.2183
usemtl rpgpp_lt_mat_a.005
s 1
f 14/1/1 7/2/2 8/3/3 11/4/4
f 11/4/4 8/3/3 9/5/5 12/6/6
f 14/1/1 13/7/7 10/8/8 7/2/2
f 49/9/9 50/10/10 47/11/11 48/12/12
f 25/13/13 28/14/14 13/15/15 10/16/16 17/17/16 21/18/17
f 29/19/18 55/20/19 56/21/20 30/22/21
f 23/23/22 26/24/23 21/18/17 17/17/24
f 27/25/25 13/15/15 28/14/14
f 13/7/7 14/1/1 1/26/26 2/27/27
f 14/1/1 11/4/4 1/26/26
f 11/4/4 12/6/6 2/27/27 1/26/26
f 9/5/5 10/8/28 13/7/7 12/6/6
f 25/13/13 26/24/23 4/28/29 3/29/30
f 19/30/31 15/31/32 16/32/33 20/33/34
f 27/25/25 28/14/14 3/29/30 4/28/29
f 26/24/23 27/25/25 4/28/29
f 28/14/14 25/13/13 3/29/30
f 21/34/35 6/35/36 5/36/37 20/33/34
f 22/37/38 19/30/31 5/36/37 6/35/36
f 18/38/39 22/37/38 21/34/35 17/39/40
f 19/30/31 20/33/34 5/36/37
f 21/34/35 22/37/38 6/35/36
f 12/6/6 13/7/7 2/27/27
f 15/31/32 19/30/31 22/37/38 18/38/39
f 16/32/33 17/39/41 21/34/35 20/33/34
f 32/40/42 31/41/43 56/21/20 55/20/19
f 35/42/44 34/43/45 31/41/43 32/40/42
f 33/44/46 30/22/21 31/41/43 34/43/45
f 32/40/42 29/19/18 45/45/47 36/46/48 35/42/44
f 40/47/49 37/48/50 43/49/51 44/50/52 46/51/53
f 37/48/50 51/52/54 52/53/55 38/54/56
f 40/47/49 46/51/53 39/55/57
f 37/48/50 38/54/56 42/56/58 43/49/51
f 40/47/49 39/55/57 52/53/55 51/52/54
f 45/57/59 49/9/9 54/58/60 53/59/61
f 48/12/12 47/11/11 44/60/62 46/61/63
f 45/57/59 36/62/64 50/10/10 49/9/9
f 33/44/46 36/46/65 45/45/47 30/22/21
f 44/60/66 36/62/66 45/57/59 46/61/63
f 37/48/50 40/47/49 51/52/54
f 38/54/56 39/55/57 41/63/67 42/56/58
f 39/55/57 38/54/56 52/53/55
f 48/12/12 46/61/63 53/59/61 54/58/60
f 46/61/63 45/57/59 53/59/61
f 49/9/9 48/12/12 54/58/60
f 29/19/18 32/40/42 55/20/19
f 31/41/43 30/22/21 56/21/20
f 23/23/22 24/64/68 27/25/25 26/24/23
f 21/18/17 26/24/23 25/13/13
f 13/15/15 27/25/25 24/64/68 10/16/69
f 30/22/21 45/45/47 29/19/18
f 39/55/57 46/51/53 44/50/70 41/63/67
f 78/65/71 90/66/72 93/67/73 81/68/74
f 93/67/73 89/69/75 77/70/76 81/68/74
f 84/71/77 83/72/78 63/73/79 68/74/80
f 88/75/81 86/76/82 83/72/78 91/77/83
f 66/78/84 65/79/85 82/80/86 85/81/87
f 68/74/80 67/82/88 87/83/89 84/71/77
f 87/83/89 67/82/88 66/78/84 85/81/87
f 79/84/90 91/77/83 90/66/72 78/65/71
f 70/85/91 77/70/76 80/86/92 73/87/93
f 71/88/94 78/65/71 81/68/74 74/89/95
f 84/71/77 90/66/72 91/77/83 83/72/78
f 77/70/76 89/69/75 92/90/96 80/86/92
f 92/90/96 89/69/75 85/81/87 82/80/86
f 76/91/97 88/75/81 91/77/83 79/84/90
f 80/86/92 92/90/96 88/75/81 76/91/97
f 85/81/87 89/69/75 93/67/73 87/83/89
f 65/79/85 64/92/98 86/76/82 82/80/86
f 59/93/99 73/87/93 69/94/100 58/95/101
f 64/92/98 65/79/85 75/96/102
f 61/97/103 74/89/95 70/85/91 60/98/104
f 86/76/82 88/75/81 92/90/96 82/80/86
f 57/99/105 58/95/101 69/94/100 72/100/106
f 71/88/94 72/100/106 79/84/90 78/65/71
f 66/78/84 67/82/88 75/96/102
f 63/73/79 64/92/98 75/96/102
f 65/79/85 66/78/84 75/96/102
f 67/82/88 68/74/80 75/96/102
f 69/94/100 76/91/97 79/84/90 72/100/106
f 69/94/100 73/87/93 80/86/92 76/91/97
f 70/85/91 74/89/95 81/68/74 77/70/76
f 68/74/80 63/73/79 75/96/102
f 57/99/105 72/100/106 71/88/94 62/101/107
f 59/93/99 60/98/104 70/85/91 73/87/93
f 61/97/103 62/101/107 71/88/94 74/89/95
f 90/66/72 84/71/77 87/83/89 93/67/73
f 86/76/82 64/92/98 63/73/79 83/72/78
f 94/102/108 95/103/109 96/104/110 97/105/111
f 97/105/111 98/106/112 161/107/113 159/108/114 99/109/115 100/110/116 101/111/117 102/112/118 112/113/119 94/102/108
f 105/114/120 102/112/118 103/115/121 106/116/122
f 99/109/115 159/108/114 160/117/123 98/106/112 107/118/124 108/119/115
f 100/110/116 99/109/115 108/119/115 109/120/116
f 101/111/117 100/110/116 109/120/116 110/121/125
f 98/106/112 104/122/126 111/123/126 107/118/124
f 97/105/111 96/104/110 106/116/122 103/115/121
f 104/122/126 156/124/127 158/125/128 101/111/117 110/121/125 111/123/126
f 108/119/115 107/118/124 109/120/116
f 109/120/116 107/118/124 111/123/126 110/121/125
f 97/105/111 103/115/121 102/112/118 101/111/117 157/126/129 156/124/127 104/122/126 98/106/112
f 113/127/130 105/114/120 106/116/122 96/104/110
f 95/103/109 113/127/130 96/104/110
f 120/128/121 116/129/122 117/130/131 121/131/132 154/132/133 153/133/134 152/134/135 151/135/136
f 116/129/122 120/128/121 118/136/111 114/137/110
f 117/130/131 116/129/122 114/137/110 115/138/137
f 155/139/138 154/140/133 121/141/132
f 118/136/111 119/142/126 147/143/139 149/144/140 146/145/141 115/138/137 114/137/110
f 128/146/142 132/147/143 130/148/144 126/149/145
f 138/150/145 140/151/146 144/152/147 142/153/144
f 122/154/148 123/155/149 162/156/150 165/157/151 164/158/152 125/159/153 124/160/154
f 129/161/155 123/155/149 122/154/148 126/149/145
f 123/155/149 129/161/155 127/162/156 125/159/153 164/158/152 166/163/157 162/156/150
f 126/149/145 122/154/148 124/160/154 128/146/142
f 130/148/144 131/164/158 129/161/155 126/149/145
f 132/147/143 133/165/159 131/164/158 130/148/144
f 131/164/158 133/165/159 167/166/160 170/167/161 168/168/162 127/162/156 129/161/155
f 127/162/156 168/168/162 169/169/163 167/166/160 133/165/159 132/147/143 128/146/142
f 141/170/155 143/171/158 145/172/164 139/173/165
f 134/174/148 135/175/149 137/176/153 136/177/154
f 138/150/145 141/170/155 135/175/149 134/174/148
f 139/173/165 137/176/153 135/175/149 141/170/155
f 143/171/158 141/170/155 138/150/145 142/153/144
f 137/176/153 139/173/165 140/151/146 136/177/154
f 138/150/145 134/174/148 136/177/154 140/151/146
f 125/159/153 127/162/156 128/146/142 124/160/154
f 144/152/147 145/172/164 143/171/158 142/153/144
f 140/151/146 139/173/165 145/172/164 144/152/147
f 153/178/134 154/140/133 155/139/138
f 148/179/166 149/180/140 147/181/139
f 149/180/140 148/179/166 146/182/141
f 150/183/167 152/134/135 153/133/134 155/184/138 121/131/132 117/130/131 115/138/137 146/145/141 148/185/166 147/143/139 119/142/126
f 152/186/135 150/187/167 151/188/136
f 151/135/136 150/183/167 119/142/126 118/136/111 120/128/121
f 158/189/128 156/190/127 157/191/129
f 157/191/129 101/192/117 158/189/128
f 161/193/113 98/194/112 160/195/123
f 160/195/123 159/196/114 161/193/113
f 164/158/152 165/157/151 163/197/168
f 163/197/168 165/157/151 162/156/150
f 162/156/150 166/163/157 163/197/168
f 163/197/168 166/163/157 164/158/152
f 170/198/161 169/199/163 168/200/162
f 169/199/163 170/198/161 167/201/160
