# Blender v2.79 (sub 0) OBJ File: ''
# www.blender.org
mtllib rpgpp_lt_sack_01.mtl
o rpgpp_lt_sack_01_rpgpp_lt_sack_01.001
v -0.037511 -0.058220 1.428334
v -0.062636 -0.024810 1.438547
v -0.129498 -0.007433 1.452738
v -0.144833 -0.046486 1.432019
v -0.118311 -0.077400 1.410785
v -0.064852 -0.078618 1.405605
v -0.067329 -0.107971 1.498947
v -0.100999 -0.112172 1.490409
v -0.136848 -0.074881 1.506750
v -0.108542 -0.203401 1.581230
v -0.100277 -0.057837 1.526003
v -0.036828 -0.204611 1.585750
v -0.001910 -0.151877 1.609953
v -0.153859 -0.160296 1.556109
v -0.047461 -0.188727 1.587853
v -0.023162 -0.145925 1.605078
v -0.102398 -0.187256 1.588740
v -0.080857 -0.088785 1.507794
v -0.139310 -0.155277 1.566488
v -0.163081 -0.101959 1.581008
v -0.187093 -0.092338 1.576641
v -0.116011 -0.066836 1.627726
v -0.121818 -0.045592 1.634906
v -0.046237 -0.095011 1.639446
v -0.034813 -0.085390 1.649485
v -0.066521 -0.074340 1.524490
v -0.038405 -0.103089 1.517975
v -0.406878 -0.018956 1.209578
v -0.298849 -0.102101 1.326680
v -0.304933 0.006756 1.379437
v -0.118705 -0.120582 1.381597
v -0.080279 -0.226136 1.127656
v -0.277908 -0.187070 1.112308
v -0.095344 -0.220968 0.793419
v -0.288387 -0.180617 0.821410
v -0.055160 -0.222879 0.514454
v -0.268002 -0.184122 0.487361
v 0.090840 0.007058 1.416052
v 0.115634 -0.101782 1.371753
v 0.268348 -0.076796 1.326148
v 0.130196 -0.173099 1.142032
v 0.327045 -0.052893 1.159979
v 0.112336 -0.186475 0.804437
v 0.142616 -0.199529 0.525531
v 0.326361 -0.029603 0.517701
v 0.187904 -0.195997 0.243788
v -0.012616 -0.221609 0.213818
v 0.310419 -0.000689 0.172509
v 0.190239 -0.117865 0.119088
v -0.000000 0.000000 -0.000000
v -0.211934 -0.112084 0.068050
v -0.004195 -0.133946 0.079893
v -0.212380 -0.184482 0.232378
v 0.112247 0.216470 0.808606
v 0.133032 0.183639 1.160087
v -0.054138 0.278983 0.510310
v 0.312387 0.109235 1.166206
v -0.096343 0.267866 0.798150
v 0.296198 0.125214 0.851899
v 0.310662 -0.042030 0.848899
v 0.143661 0.248234 0.524704
v 0.299602 0.123134 0.516637
v 0.260648 0.052627 1.347580
v 0.105474 0.108242 1.364146
v -0.289169 0.262234 0.826604
v -0.104990 0.135181 1.381898
v -0.085254 0.223526 1.147929
v -0.290957 0.112731 1.321821
v -0.443271 0.062629 1.252140
v -0.469085 -0.049365 1.074987
v -0.274683 0.216229 1.132812
v -0.435413 0.110902 1.083059
v -0.424795 -0.040905 0.806877
v -0.425179 0.138950 0.459235
v -0.399423 0.138805 0.808446
v -0.451485 -0.037966 0.459549
v -0.268037 0.259664 0.482925
v -0.403411 -0.028715 0.218534
v -0.388074 0.148129 0.211626
v -0.208933 0.267753 0.208032
v -0.360264 -0.002725 0.094958
v -0.207044 0.223130 0.076956
v -0.340941 0.141513 0.113893
v -0.201856 0.141822 0.033447
v -0.208998 0.004658 0.009191
v 0.345872 -0.033919 0.286121
v -0.000318 0.147149 0.031471
v 0.181932 0.265112 0.220216
v -0.005001 0.227378 0.103114
v -0.012231 0.287739 0.187747
v 0.326095 0.151631 0.278211
v 0.311715 0.144750 0.174382
v 0.184462 0.224087 0.128264
v 0.186555 0.142582 0.084912
v 0.194169 0.004806 0.058992
v -0.270180 -0.183747 0.523051
v -0.362450 -0.108888 0.473045
v -0.370079 -0.108706 0.646667
v -0.337931 -0.135899 0.674808
v -0.137336 -0.061340 1.453288
v -0.065635 -0.050267 1.464272
v -0.108475 -0.093024 1.435561
v -0.067094 -0.091805 1.436686
v -0.113755 -0.034397 1.472026
v -0.040837 -0.079482 1.456330
v -0.155545 -0.047625 1.448657
v -0.056759 -0.026604 1.459897
v -0.119995 -0.087807 1.423648
v -0.059118 -0.087805 1.421045
v -0.130565 -0.005263 1.473983
v -0.024714 -0.066802 1.448244
v -0.144223 -0.067462 1.459680
v -0.062251 -0.060342 1.475977
v -0.107180 -0.107020 1.439976
v -0.063585 -0.104013 1.445253
v -0.110049 -0.041695 1.481572
v -0.031865 -0.093792 1.467582
v -0.127775 -0.073296 1.472502
v -0.069570 -0.070210 1.485404
v -0.100033 -0.102571 1.458711
v -0.070398 -0.099862 1.463877
v -0.100944 -0.056791 1.488214
v -0.047270 -0.093979 1.479686
vt 0.827477 0.027022
vt 0.827477 0.027022
vt 0.827477 0.027022
vt 0.827477 0.027022
vt 0.827477 0.027022
vt 0.827477 0.027022
vt 0.827477 0.027022
vt 0.827477 0.027022
vt 0.827477 0.027022
vt 0.827477 0.027022
vt 0.827477 0.027022
vt 0.827477 0.027022
vt 0.827477 0.027022
vt 0.827477 0.027022
vt 0.012878 0.280468
vt 0.012878 0.280468
vt 0.012878 0.280468
vt 0.012878 0.280468
vt 0.012878 0.280468
vt 0.012878 0.280468
vt 0.012878 0.280468
vt 0.012878 0.280468
vt 0.827477 0.027022
vt 0.827477 0.027022
vt 0.827477 0.027022
vt 0.827477 0.027022
vt 0.827477 0.027022
vt 0.827477 0.027022
vt 0.827477 0.027022
vt 0.827477 0.027022
vt 0.827477 0.027022
vt 0.827477 0.027022
vt 0.827477 0.027022
vt 0.827477 0.027022
vt 0.827477 0.027022
vt 0.827477 0.027022
vt 0.827477 0.027022
vt 0.827477 0.027022
vt 0.827477 0.027022
vt 0.827477 0.027022
vt 0.827477 0.027022
vt 0.827477 0.027022
vt 0.827477 0.027022
vt 0.827477 0.027022
vt 0.827477 0.027022
vt 0.827477 0.027022
vt 0.827477 0.027022
vt 0.827477 0.027022
vt 0.827477 0.027022
vt 0.827477 0.027022
vt 0.827477 0.027022
vt 0.827477 0.027022
vt 0.827477 0.027022
vt 0.827477 0.027022
vt 0.827477 0.027022
vt 0.827477 0.027022
vt 0.827477 0.027022
vt 0.827477 0.027022
vt 0.827477 0.027022
vt 0.827477 0.027022
vt 0.827477 0.027022
vt 0.827477 0.027022
vt 0.827477 0.027022
vt 0.827477 0.027022
vt 0.827477 0.027022
vt 0.827477 0.027022
vt 0.827477 0.027022
vt 0.827477 0.027022
vt 0.827477 0.027022
vt 0.827477 0.027022
vt 0.827477 0.027022
vt 0.827477 0.027022
vt 0.827477 0.027022
vt 0.827477 0.027022
vt 0.827477 0.027022
vt 0.827477 0.027022
vt 0.827477 0.027022
vt 0.827477 0.027022
vt 0.827477 0.027022
vt 0.827477 0.027022
vt 0.827477 0.027022
vt 0.827477 0.027022
vt 0.827477 0.027022
vt 0.827477 0.027022
vt 0.827477 0.027022
vt 0.827477 0.027022
vt 0.827477 0.027022
vt 0.827477 0.027022
vt 0.827477 0.027022
vt 0.827477 0.027022
vt 0.827477 0.027022
vt 0.827477 0.027022
vt 0.827477 0.027022
vt 0.827477 0.027022
vt 0.827477 0.027022
vt 0.827477 0.027022
vt 0.827477 0.027022
vt 0.827477 0.027022
vt 0.827477 0.027022
vt 0.827477 0.027022
vt 0.827477 0.027022
vt 0.827477 0.027022
vt 0.827477 0.027022
vt 0.827477 0.027022
vt 0.827477 0.027022
vt 0.827477 0.027022
vt 0.827477 0.027022
vt 0.827477 0.027022
vt 0.827477 0.027022
vt 0.827477 0.027022
vt 0.827477 0.027022
vt 0.827477 0.027022
vt 0.827477 0.027022
vt 0.012878 0.280468
vt 0.012878 0.280468
vt 0.012878 0.280468
vt 0.012878 0.280468
vt 0.012878 0.280468
vt 0.012878 0.280468
vt 0.012878 0.280468
vt 0.012878 0.280468
vt 0.012878 0.280468
vt 0.012878 0.280468
vt 0.012878 0.280468
vt 0.012878 0.280468
vt 0.012878 0.280468
vt 0.012878 0.280468
vt 0.012878 0.280468
vt 0.012878 0.280468
vt 0.012878 0.280468
vt 0.012878 0.280468
vt 0.012878 0.280468
vt 0.012878 0.280468
vt 0.012878 0.280468
vt 0.012878 0.280468
vn 0.4231 -0.8920 0.1590
vn -0.2584 -0.0102 0.9660
vn -0.1817 0.1411 0.9732
vn -0.2788 -0.9290 0.2432
vn 0.8284 -0.4393 0.3474
vn 0.5577 0.6901 0.4612
vn 0.6048 0.7961 -0.0191
vn 0.8795 0.0193 -0.4755
vn -0.1522 0.0522 0.9870
vn -0.6964 -0.7144 -0.0680
vn -0.2764 0.6443 0.7130
vn 0.0159 0.9986 -0.0498
vn -0.8205 0.4069 -0.4015
vn -0.9779 0.1103 0.1778
vn 0.4199 -0.7896 -0.4475
vn 0.2088 -0.9279 0.3088
vn 0.8188 -0.3826 0.4281
vn 0.9657 -0.1282 0.2257
vn -0.5057 -0.8207 -0.2658
vn -0.9686 -0.1081 0.2239
vn -0.7962 -0.4376 0.4178
vn -0.3581 -0.8722 0.3331
vn 0.1570 -0.9875 0.0107
vn 0.2071 -0.8373 -0.5060
vn -0.3515 -0.7649 -0.5398
vn -0.2989 -0.9508 0.0811
vn -0.0598 0.8326 0.5507
vn 0.4408 0.3248 0.8368
vn -0.5277 -0.4260 0.7349
vn 0.8271 -0.2578 0.4994
vn -0.4436 -0.6480 0.6192
vn -0.8677 -0.2564 0.4260
vn -0.3407 -0.6595 0.6701
vn -0.0560 -0.5351 0.8430
vn -0.1708 -0.3837 0.9075
vn -0.8812 -0.3812 -0.2797
vn -0.7431 -0.2413 -0.6242
vn -0.3111 -0.6848 -0.6590
vn -0.3711 -0.8959 -0.2441
vn -0.0019 -0.9845 0.1754
vn -0.0639 -0.7868 0.6139
vn -0.5008 -0.6752 0.5416
vn -0.4278 -0.8903 0.1563
vn 0.6433 0.3567 0.6775
vn 0.6734 -0.5089 0.5362
vn 0.8913 -0.4354 0.1263
vn 0.8011 0.5673 0.1910
vn -0.8347 0.4951 -0.2412
vn -0.9349 -0.3494 -0.0626
vn -0.8787 0.4750 -0.0481
vn -0.0228 -0.9997 0.0056
vn 0.3877 -0.9216 0.0198
vn 0.3380 -0.9319 0.1314
vn 0.9378 -0.3354 -0.0898
vn 0.8750 0.4827 -0.0370
vn 0.8540 0.5117 0.0943
vn 0.9370 -0.3408 0.0771
vn -0.5536 0.0027 0.8328
vn -0.8461 0.2668 0.4614
vn -0.8354 -0.4278 0.3451
vn 0.0422 0.9981 0.0444
vn 0.0686 0.9944 0.0809
vn 0.3358 0.9385 0.0805
vn 0.3690 0.9249 0.0918
vn -0.3825 0.9238 -0.0164
vn -0.3092 0.9303 -0.1976
vn -0.6341 -0.7697 -0.0734
vn -0.4234 -0.9042 -0.0565
vn -0.4238 -0.9056 -0.0168
vn -0.6518 -0.7584 -0.0057
vn 0.4664 -0.1369 -0.8739
vn 0.8350 -0.2079 -0.5094
vn 0.4572 -0.6222 -0.6355
vn -0.2571 -0.1273 -0.9580
vn 0.3884 0.9104 -0.1429
vn 0.0332 0.9708 -0.2375
vn 0.4167 0.3272 -0.8481
vn 0.7998 0.3753 -0.4684
vn 0.0028 -0.9607 -0.2776
vn 0.0668 -0.6999 -0.7112
vn 0.4547 -0.8648 -0.2133
vn 0.1221 -0.1508 -0.9810
vn -0.6962 0.4392 -0.5678
vn -0.3790 0.9233 0.0620
vn -0.8675 0.4975 0.0070
vn -0.3764 0.7063 0.5995
vn -0.2344 0.3493 -0.9072
vn -0.2642 0.7299 -0.6304
vn 0.2277 0.7168 0.6590
vn 0.2858 0.9329 0.2190
vn 0.8191 0.5730 0.0273
vn 0.9129 -0.4082 -0.0010
vn 0.4061 -0.9125 0.0482
vn 0.3751 0.7130 -0.5924
vn -0.0279 -0.9996 0.0031
vn 0.2471 0.0793 0.9657
vn -0.3320 0.9117 0.2421
vn 0.0477 0.9667 0.2515
vn -0.9252 -0.3751 0.0570
vn -0.9377 -0.3463 -0.0282
vn -0.4500 -0.8929 -0.0170
vn 0.1200 0.3930 -0.9117
vn 0.0763 0.7536 -0.6529
vn 0.3017 -0.6696 0.6787
vn -0.8672 0.4862 0.1075
vn -0.0451 0.7292 0.6828
vn 0.5197 0.4289 0.7389
vn -0.3888 0.6552 0.6477
vn -0.3888 0.6553 0.6477
vn -0.7962 -0.4375 0.4179
vn -0.3440 0.7087 0.6160
vn -0.9142 -0.2810 0.2921
vn -0.2044 0.2857 0.9363
vn 0.4420 0.4008 0.8025
vn 0.5631 0.6417 0.5208
vn 0.3221 -0.7532 -0.5736
vn -0.3536 -0.7300 -0.5849
vn -0.3381 -0.8513 -0.4012
vn -0.9760 -0.1366 0.1698
vn 0.3473 -0.8211 -0.4530
vn 0.9805 -0.1678 0.1028
vn 0.9223 -0.3480 0.1684
vn -0.2146 0.6222 0.7529
vn 0.5655 0.5919 0.5743
usemtl rpgpp_lt_mat_a.019
s 1
f 12/1/1 15/2/2 17/3/3 10/4/4
f 123/5/5 119/6/6 26/7/7 27/8/8
f 17/3/3 19/9/9 14/10/10 10/4/4
f 23/11/11 11/12/12 9/13/13 21/14/14
f 109/15/15 6/16/16 1/17/17 111/18/18
f 108/19/19 106/20/20 4/21/21 5/22/22
f 121/23/23 7/24/24 8/25/25 120/26/26
f 14/10/10 8/25/25 7/24/24 10/4/4
f 122/27/27 11/12/12 26/7/7 119/6/6
f 25/28/28 26/7/7 11/12/12 23/11/11
f 16/29/29 13/30/30 25/28/28 24/31/31
f 122/27/27 118/32/32 9/13/13 11/12/12
f 24/31/31 25/28/28 23/11/11 22/33/33
f 22/33/33 23/11/11 21/14/14 20/34/34
f 16/29/29 18/35/35 15/2/2
f 15/2/2 18/35/35 17/3/3
f 18/35/35 19/9/9 17/3/3
f 19/9/9 18/35/35 20/34/34
f 20/34/34 18/35/35 22/33/33
f 18/35/35 16/29/29 24/31/31 22/33/33
f 13/30/30 16/29/29 15/2/2 12/1/1
f 12/1/1 27/8/8 13/30/30
f 14/10/10 21/14/14 9/13/13 8/25/25
f 10/4/4 7/24/24 27/8/8 12/1/1
f 13/30/30 27/8/8 26/7/7 25/28/28
f 20/34/34 21/14/14 14/10/10 19/9/9
f 78/36/36 81/37/37 51/38/38 53/39/39
f 32/40/40 31/41/41 29/42/42 33/43/43
f 63/44/44 40/45/45 42/46/46 57/47/47
f 79/48/48 78/36/36 76/49/49 74/50/50
f 32/40/40 34/51/51 43/52/52 41/53/53
f 86/54/54 91/55/55 62/56/56 45/57/57
f 29/42/42 30/58/58 69/59/59 28/60/60
f 56/61/61 58/62/62 54/63/63 61/64/64
f 77/65/65 80/66/66 79/48/48 74/50/50
f 97/67/67 37/68/68 96/69/69 99/70/70 98/71/70
f 95/72/71 48/73/72 49/74/73
f 81/37/37 85/75/74 51/38/38
f 61/64/64 88/76/75 90/77/76 56/61/61
f 95/72/71 94/78/77 92/79/78 48/73/72
f 47/80/79 52/81/80 49/74/73 46/82/81
f 52/81/80 50/83/82 95/72/71 49/74/73
f 79/48/48 83/84/83 81/37/37 78/36/36
f 65/85/84 77/65/65 74/50/50 75/86/85
f 69/59/59 30/58/58 68/87/86
f 84/88/87 83/84/83 82/89/88
f 64/90/89 63/44/44 57/47/47 55/91/90
f 59/92/91 62/56/56 61/64/64 54/63/63
f 45/57/57 60/93/92 43/52/52 44/94/93
f 41/53/53 43/52/52 60/93/92 42/46/46
f 92/79/78 94/78/77 93/95/94
f 91/55/55 88/76/75 61/64/64 62/56/56
f 34/51/51 36/96/95 44/94/93 43/52/52
f 64/90/89 38/97/96 63/44/44
f 84/88/87 85/75/74 81/37/37 83/84/83
f 65/85/84 71/98/97 67/99/98 58/62/62
f 56/61/61 90/77/76 80/66/66 77/65/65
f 57/47/47 42/46/46 60/93/92 59/92/91
f 33/43/43 70/100/99 73/101/100 35/102/101
f 87/103/102 50/83/82 85/75/74 84/88/87
f 77/65/65 65/85/84 58/62/62 56/61/61
f 45/57/57 44/94/93 46/82/81 86/54/54
f 36/96/95 34/51/51 35/102/101 96/69/69 37/68/68
f 92/79/78 93/95/94 88/76/75 91/55/55
f 90/77/76 89/104/103 82/89/88 80/66/66
f 47/80/79 36/96/95 37/68/68 53/39/39
f 76/49/49 78/36/36 53/39/39 37/68/68 97/67/67
f 29/42/42 28/60/60 70/100/99 33/43/43
f 31/41/41 32/40/40 41/53/53 39/105/104
f 51/38/38 85/75/74 50/83/82 52/81/80
f 46/82/81 49/74/73 48/73/72 86/54/54
f 88/76/75 93/95/94 89/104/103 90/77/76
f 72/106/105 75/86/85 73/101/100 70/100/99
f 34/51/51 32/40/40 33/43/43 35/102/101
f 93/95/94 94/78/77 87/103/102 89/104/103
f 69/59/59 72/106/105 70/100/99 28/60/60
f 80/66/66 82/89/88 83/84/83 79/48/48
f 89/104/103 87/103/102 84/88/87 82/89/88
f 75/86/85 74/50/50 76/49/49 73/101/100
f 71/98/97 68/87/86 66/107/106 67/99/98
f 38/97/96 39/105/104 40/45/45 63/44/44
f 67/99/98 66/107/106 64/90/89 55/91/90
f 41/53/53 42/46/46 40/45/45 39/105/104
f 94/78/77 95/72/71 50/83/82 87/103/102
f 53/39/39 51/38/38 52/81/80 47/80/79
f 71/98/97 65/85/84 75/86/85 72/106/105
f 55/91/90 57/47/47 59/92/91 54/63/63
f 86/54/54 48/73/72 92/79/78 91/55/55
f 60/93/92 45/57/57 62/56/56 59/92/91
f 47/80/79 46/82/81 44/94/93 36/96/95
f 71/98/97 72/106/105 69/59/59 68/87/86
f 38/97/96 2/108/107 1/109/17 39/105/104
f 68/87/86 30/58/58 3/110/108 66/107/106
f 2/108/107 38/97/96 3/110/108
f 66/107/106 3/110/108 38/97/96 64/90/89
f 31/41/41 5/111/22 3/110/109 4/112/110 29/42/42
f 76/49/49 97/67/67 98/71/70 99/70/70 96/69/69 35/102/101 73/101/100
f 6/113/16 39/105/104 1/109/17
f 3/110/108 30/58/58 29/42/42 4/112/110
f 67/99/98 55/91/90 54/63/63 58/62/62
f 31/41/41 39/105/104 6/113/16 5/111/22
f 110/114/111 106/20/20 100/115/112 104/116/113
f 110/114/111 104/116/113 101/117/114 107/118/115
f 109/15/15 103/119/116 102/120/117 108/19/19
f 114/121/118 112/122/119 100/115/112 102/120/117
f 115/123/120 103/119/116 105/124/121 117/125/122
f 111/18/18 107/118/115 101/117/114 105/124/121
f 1/17/17 2/126/107 107/118/115 111/18/18
f 6/16/16 109/15/15 108/19/19 5/22/22
f 3/127/108 110/114/111 107/118/115 2/126/107
f 3/127/108 4/21/21 106/20/20 110/114/111
f 102/120/117 100/115/112 106/20/20 108/19/19
f 103/119/116 109/15/15 111/18/18 105/124/121
f 121/128/23 115/123/120 117/125/122 123/129/5
f 120/130/26 118/131/32 112/122/119 114/121/118
f 104/116/113 100/115/112 112/122/119 116/132/123
f 104/116/113 116/132/123 113/133/124 101/117/114
f 103/119/116 115/123/120 114/121/118 102/120/117
f 105/124/121 101/117/114 113/133/124 117/125/122
f 8/25/25 9/13/13 118/32/32 120/26/26
f 7/24/24 121/23/23 123/5/5 27/8/8
f 116/132/123 112/122/119 118/131/32 122/134/27
f 116/132/123 122/134/27 119/135/6 113/133/124
f 115/123/120 121/128/23 120/130/26 114/121/118
f 117/125/122 113/133/124 119/135/6 123/129/5
