# Blender v2.79 (sub 0) OBJ File: ''
# www.blender.org
mtllib rpgpp_lt_flower_02.mtl
o rpgpp_lt_flower_02_rpgpp_lt_flower_02.001
v -0.377352 0.599138 -0.291481
v -0.108344 0.602102 -0.476307
v -0.287356 0.638921 -0.322478
v -0.309158 0.691048 -0.238220
v -0.234802 0.681740 -0.336445
v -0.211007 0.777535 -0.265740
v -0.177542 0.719028 -0.343052
v -0.098906 0.767511 -0.312688
v -0.143021 0.696334 -0.394077
v -0.034050 0.735486 -0.433083
v -0.113038 0.657471 -0.435582
v -0.032740 0.633634 -0.507213
v -0.305142 0.583126 -0.350045
v -0.356629 0.498587 -0.340005
v -0.279736 0.550028 -0.400075
v -0.300800 0.451584 -0.439246
v -0.228247 0.551630 -0.442089
v -0.178239 0.480629 -0.543558
v -0.166709 0.560686 -0.477780
v -0.065115 0.546624 -0.519580
v -0.154300 0.635502 -0.429763
v -0.228274 0.655416 -0.362618
v -0.175862 0.673142 -0.387176
v -0.251338 0.600231 -0.387588
v -0.206811 0.582259 -0.435713
v -0.213101 0.630487 -0.410221
v -0.371901 0.594547 -0.285360
v -0.103718 0.597195 -0.469767
v -0.282483 0.633960 -0.316162
v -0.303721 0.684174 -0.234838
v -0.229997 0.676709 -0.330132
v -0.206288 0.770655 -0.261422
v -0.173321 0.713486 -0.336749
v -0.097593 0.759097 -0.308724
v -0.138515 0.691135 -0.387680
v -0.030568 0.729710 -0.426543
v -0.108165 0.652950 -0.428944
v -0.030209 0.628416 -0.499823
v -0.300088 0.578354 -0.343725
v -0.348718 0.496737 -0.335288
v -0.274273 0.545229 -0.394127
v -0.294355 0.449472 -0.432747
v -0.223315 0.546395 -0.436046
v -0.173634 0.476474 -0.536503
v -0.162506 0.555104 -0.471501
v -0.064214 0.543670 -0.510708
v -0.151382 0.630701 -0.422052
v -0.222445 0.649909 -0.357543
v -0.172099 0.667026 -0.381050
v -0.244812 0.596294 -0.381808
v -0.202159 0.578359 -0.428438
v -0.208447 0.625494 -0.403766
v -0.583956 0.633376 0.126868
v -0.404802 0.749113 -0.120201
v -0.503010 0.683810 0.087535
v -0.479639 0.673278 0.185693
v -0.449073 0.726192 0.078317
v -0.377654 0.758459 0.171055
v -0.389846 0.759690 0.069222
v -0.295649 0.779347 0.083249
v -0.382442 0.773075 0.005376
v -0.287352 0.827923 -0.048275
v -0.380170 0.767850 -0.058651
v -0.338983 0.792974 -0.157744
v -0.543449 0.656662 0.044909
v -0.608949 0.583745 0.027840
v -0.546690 0.661220 -0.019997
v -0.605495 0.607515 -0.092982
v -0.514409 0.688262 -0.071431
v -0.523384 0.694449 -0.204545
v -0.468912 0.717312 -0.118644
v -0.395668 0.731852 -0.200438
v -0.421172 0.746931 -0.048640
v -0.459264 0.721462 0.042341
v -0.415822 0.750526 0.011807
v -0.503396 0.693204 0.004198
v -0.484725 0.708538 -0.059346
v -0.468689 0.730982 -0.011865
v -0.578172 0.625996 0.126304
v -0.399700 0.741225 -0.120283
v -0.497778 0.676017 0.087158
v -0.475422 0.665774 0.181929
v -0.443921 0.718346 0.077929
v -0.373762 0.750377 0.168266
v -0.385360 0.751447 0.068799
v -0.295354 0.770270 0.080847
v -0.377576 0.765044 0.005085
v -0.283511 0.819350 -0.048336
v -0.374708 0.760207 -0.058557
v -0.335555 0.784319 -0.156478
v -0.538002 0.649017 0.044559
v -0.600701 0.579390 0.026718
v -0.541009 0.653782 -0.020803
v -0.598021 0.601859 -0.092343
v -0.509290 0.680421 -0.072180
v -0.517922 0.686839 -0.203835
v -0.464461 0.709051 -0.119098
v -0.392591 0.724076 -0.196158
v -0.417175 0.738409 -0.047084
v -0.453746 0.714000 0.040363
v -0.411962 0.741939 0.011141
v -0.496585 0.686548 0.003284
v -0.479076 0.700994 -0.058361
v -0.463614 0.723079 -0.012067
v 0.057898 0.003561 -0.009472
v 0.027665 0.020062 -0.017171
v 0.037540 0.006133 0.014289
v 0.110545 0.206744 0.054434
v 0.084855 0.229353 0.045808
v 0.095615 0.220027 0.078648
v 0.203602 0.518410 0.158800
v 0.175179 0.539072 0.155516
v 0.194418 0.532940 0.185072
v 0.332032 0.825751 0.309612
v 0.302421 0.843242 0.301685
v 0.308804 0.823080 0.330565
v -0.052057 -0.000983 -0.015460
v -0.032338 0.010430 0.011493
v -0.024509 0.011808 -0.023409
v -0.106271 0.210109 -0.025943
v -0.092230 0.226594 0.001926
v -0.085557 0.232711 -0.032706
v -0.237618 0.481707 -0.004915
v -0.218467 0.498802 0.019304
v -0.221324 0.506336 -0.015572
v -0.462247 0.711505 -0.009394
v -0.447777 0.717717 0.022190
v -0.437192 0.730423 -0.009555
v 0.001733 -0.000983 -0.047404
v -0.015775 0.010430 -0.018966
v 0.019498 0.011808 -0.024898
v 0.010553 0.190118 -0.140892
v -0.009948 0.206603 -0.117366
v 0.024639 0.212720 -0.124266
v -0.066561 0.445056 -0.279994
v -0.081753 0.462151 -0.253115
v -0.050539 0.469685 -0.268932
v -0.193405 0.621891 -0.416245
v -0.216203 0.633944 -0.392151
v -0.183538 0.646577 -0.399545
v 0.401243 0.708398 0.456099
v 0.239207 0.895129 0.243002
v 0.391534 0.758831 0.366628
v 0.474784 0.702317 0.353682
v 0.404180 0.792597 0.307548
v 0.503475 0.769370 0.241647
v 0.413046 0.817701 0.244272
v 0.437211 0.815214 0.150113
v 0.362526 0.856971 0.229580
v 0.342493 0.915660 0.124303
v 0.303229 0.880630 0.222093
v 0.227661 0.941140 0.169415
v 0.340068 0.759730 0.405869
v 0.289797 0.712410 0.477508
v 0.284280 0.793214 0.402626
v 0.193177 0.786870 0.460326
v 0.251743 0.835413 0.362885
v 0.135822 0.901629 0.358903
v 0.224261 0.875594 0.310224
v 0.160207 0.914411 0.228637
v 0.301431 0.863597 0.265975
v 0.369711 0.805960 0.314892
v 0.357021 0.839000 0.265784
v 0.321624 0.804407 0.358322
v 0.272587 0.843639 0.332288
v 0.325524 0.839937 0.318171
v 0.397551 0.701299 0.451178
v 0.235694 0.887464 0.238857
v 0.387804 0.751364 0.362317
v 0.468143 0.696765 0.350033
v 0.400413 0.785100 0.303322
v 0.497429 0.762918 0.238475
v 0.409050 0.809965 0.240748
v 0.430952 0.808229 0.150649
v 0.358755 0.849309 0.225666
v 0.338650 0.907563 0.121487
v 0.299994 0.873052 0.217580
v 0.224950 0.932438 0.167138
v 0.336437 0.752350 0.401330
v 0.287057 0.707877 0.469750
v 0.280343 0.786187 0.397791
v 0.191390 0.780513 0.453644
v 0.247658 0.828086 0.358658
v 0.133151 0.893805 0.354443
v 0.220228 0.867861 0.306734
v 0.160567 0.905189 0.226880
v 0.299054 0.854801 0.263146
v 0.364716 0.799458 0.310114
v 0.352634 0.831158 0.262896
v 0.317980 0.797956 0.352270
v 0.270196 0.835723 0.327660
v 0.321896 0.832317 0.314044
vt 0.010654 0.285346
vt 0.010654 0.285346
vt 0.010654 0.285346
vt 0.010654 0.285346
vt 0.010654 0.285346
vt 0.010654 0.285346
vt 0.010654 0.285346
vt 0.010654 0.285346
vt 0.194218 0.276802
vt 0.194218 0.276802
vt 0.194218 0.276802
vt 0.194218 0.276802
vt 0.194218 0.276802
vt 0.194218 0.276802
vt 0.194218 0.276802
vt 0.194218 0.276802
vt 0.194218 0.276802
vt 0.194218 0.276802
vt 0.194218 0.276802
vt 0.194218 0.276802
vt 0.194218 0.276802
vt 0.194218 0.276802
vt 0.194218 0.276802
vt 0.194218 0.276802
vt 0.194218 0.276802
vt 0.194218 0.276802
vt 0.194218 0.276802
vt 0.194218 0.276802
vt 0.194218 0.276802
vt 0.194218 0.276802
vt 0.194218 0.276802
vt 0.194218 0.276802
vt 0.194218 0.276802
vt 0.010654 0.285346
vt 0.194218 0.276802
vt 0.194218 0.276802
vt 0.194218 0.276802
vt 0.194218 0.276802
vt 0.194218 0.276802
vt 0.194218 0.276802
vt 0.194218 0.276802
vt 0.194218 0.276802
vt 0.194218 0.276802
vt 0.194218 0.276802
vt 0.194218 0.276802
vt 0.194218 0.276802
vt 0.194218 0.276802
vt 0.194218 0.276802
vt 0.194218 0.276802
vt 0.194218 0.276802
vt 0.194218 0.276802
vt 0.194218 0.276802
vt 0.194218 0.276802
vt 0.194218 0.276802
vt 0.194218 0.276802
vt 0.194218 0.276802
vt 0.194218 0.276802
vt 0.194218 0.276802
vt 0.194218 0.276802
vt 0.194218 0.276802
vt 0.194218 0.276802
vt 0.194218 0.276802
vt 0.194218 0.276802
vt 0.194218 0.276802
vt 0.009868 0.840386
vt 0.009868 0.840386
vt 0.009868 0.840386
vt 0.009868 0.840386
vt 0.194218 0.276802
vt 0.194218 0.276802
vt 0.194218 0.276802
vt 0.194218 0.276802
vt 0.194218 0.276802
vt 0.194218 0.276802
vt 0.194218 0.276802
vt 0.194218 0.276802
vt 0.194218 0.276802
vt 0.194218 0.276802
vt 0.194218 0.276802
vt 0.194218 0.276802
vt 0.194218 0.276802
vt 0.194218 0.276802
vt 0.194218 0.276802
vt 0.194218 0.276802
vt 0.194218 0.276802
vt 0.194218 0.276802
vt 0.194218 0.276802
vt 0.194218 0.276802
vt 0.194218 0.276802
vt 0.194218 0.276802
vt 0.009868 0.840386
vt 0.009868 0.840386
vt 0.194218 0.276802
vt 0.194218 0.276802
vt 0.194218 0.276802
vt 0.194218 0.276802
vt 0.194218 0.276802
vt 0.194218 0.276802
vt 0.194218 0.276802
vt 0.194218 0.276802
vt 0.194218 0.276802
vt 0.194218 0.276802
vt 0.194218 0.276802
vt 0.194218 0.276802
vt 0.194218 0.276802
vt 0.194218 0.276802
vt 0.194218 0.276802
vt 0.194218 0.276802
vt 0.009868 0.840386
vt 0.009868 0.840386
vt 0.009868 0.840386
vt 0.009868 0.840386
vt 0.194218 0.276802
vt 0.194218 0.276802
vt 0.194218 0.276802
vt 0.194218 0.276802
vt 0.194218 0.276802
vt 0.009868 0.840386
vt 0.009868 0.840386
vt 0.009868 0.840386
vt 0.194218 0.276802
vt 0.194218 0.276802
vt 0.194218 0.276802
vt 0.194218 0.276802
vt 0.194218 0.276802
vt 0.194218 0.276802
vt 0.194218 0.276802
vt 0.194218 0.276802
vt 0.194218 0.276802
vt 0.194218 0.276802
vt 0.194218 0.276802
vt 0.194218 0.276802
vt 0.194218 0.276802
vt 0.194218 0.276802
vt 0.194218 0.276802
vt 0.194218 0.276802
vt 0.194218 0.276802
vt 0.194218 0.276802
vt 0.194218 0.276802
vt 0.194218 0.276802
vt 0.194218 0.276802
vt 0.194218 0.276802
vt 0.194218 0.276802
vt 0.010654 0.285346
vt 0.010654 0.285346
vt 0.010654 0.285346
vt 0.010654 0.285346
vt 0.010654 0.285346
vt 0.010654 0.285346
vt 0.194218 0.276802
vt 0.194218 0.276802
vt 0.194218 0.276802
vt 0.194218 0.276802
vt 0.194218 0.276802
vt 0.194218 0.276802
vt 0.194218 0.276802
vt 0.194218 0.276802
vt 0.194218 0.276802
vt 0.194218 0.276802
vt 0.194218 0.276802
vt 0.194218 0.276802
vt 0.194218 0.276802
vt 0.194218 0.276802
vt 0.194218 0.276802
vt 0.009868 0.840386
vt 0.009868 0.840386
vt 0.194218 0.276802
vt 0.194218 0.276802
vt 0.194218 0.276802
vt 0.194218 0.276802
vt 0.194218 0.276802
vt 0.194218 0.276802
vt 0.194218 0.276802
vt 0.194218 0.276802
vt 0.194218 0.276802
vt 0.194218 0.276802
vt 0.194218 0.276802
vt 0.194218 0.276802
vt 0.009868 0.840386
vt 0.194218 0.276802
vt 0.009868 0.840386
vt 0.009868 0.840386
vt 0.009868 0.840386
vt 0.009868 0.840386
vt 0.009868 0.840386
vt 0.009868 0.840386
vt 0.009868 0.840386
vt 0.009868 0.840386
vt 0.009868 0.840386
vt 0.009868 0.840386
vt 0.009868 0.840386
vt 0.009868 0.840386
vt 0.009868 0.840386
vt 0.009868 0.840386
vt 0.009868 0.840386
vt 0.009868 0.840386
vt 0.009868 0.840386
vt 0.009868 0.840386
vt 0.009868 0.840386
vt 0.009868 0.840386
vt 0.010654 0.285346
vt 0.010654 0.285346
vt 0.194218 0.276802
vt 0.010654 0.285346
vn -0.4873 0.4676 -0.7375
vn -0.6086 0.4768 -0.6342
vn -0.5104 0.5125 -0.6905
vn -0.4007 0.5390 -0.7409
vn -0.5501 0.8287 0.1030
vn -0.4766 0.8772 0.0578
vn -0.4715 0.8802 -0.0540
vn -0.5600 0.8284 0.0151
vn -0.8348 0.5304 0.1476
vn -0.6454 0.6474 0.4054
vn -0.6385 0.7656 0.0781
vn 0.4754 -0.8779 -0.0575
vn 0.4712 -0.8804 0.0541
vn 0.7465 -0.6558 -0.1125
vn 0.7693 -0.6388 -0.0081
vn 0.0567 0.9748 0.2159
vn 0.0444 0.9632 0.2652
vn 0.3100 0.8311 0.4617
vn 0.3387 0.8693 0.3600
vn 0.9344 -0.1360 0.3292
vn 0.6366 0.4836 0.6007
vn -0.2040 -0.9460 -0.2518
vn 0.3229 -0.9431 -0.0791
vn -0.5701 0.1553 -0.8068
vn -0.1999 0.3540 -0.9136
vn -0.7703 0.1874 -0.6095
vn -0.8155 0.2769 -0.5082
vn -0.2793 0.8686 -0.4094
vn -0.2186 0.7863 -0.5778
vn -0.4540 0.5970 -0.6613
vn -0.5400 0.5640 -0.6248
vn 0.4528 0.7650 0.4580
vn 0.6889 0.5834 0.4301
vn 0.6980 0.7118 0.0784
vn 0.4367 0.8175 0.3755
vn -0.1206 0.5630 -0.8176
vn -0.1577 0.3845 -0.9096
vn -0.6114 0.7004 -0.3682
vn -0.7576 0.5623 -0.3315
vn -0.6535 0.6455 0.3954
vn -0.6693 -0.6767 0.3067
vn 0.5121 -0.5110 0.6904
vn 0.6102 -0.4757 0.6335
vn 0.4872 -0.4682 0.7372
vn 0.4004 -0.5392 0.7409
vn -0.4368 -0.8180 -0.3742
vn -0.4537 -0.7651 -0.4569
vn -0.3734 -0.8046 -0.4617
vn -0.3388 -0.8694 -0.3596
vn 0.3477 -0.9294 0.1236
vn 0.6400 -0.7643 -0.0788
vn 0.5491 -0.8293 -0.1038
vn 0.3795 -0.8991 0.2181
vn -0.3105 -0.8311 -0.4613
vn -0.3993 -0.7320 -0.5521
vn -0.4918 -0.8421 -0.2214
vn -0.6863 -0.6804 -0.2569
vn -0.1394 -0.8535 -0.5021
vn -0.1276 -0.8791 -0.4593
vn 0.2871 0.0787 0.9547
vn 0.6232 0.2512 -0.7406
vn 0.5898 0.4628 -0.6618
vn 0.2996 0.1256 0.9458
vn 0.5491 -0.7277 0.4110
vn 0.4431 -0.7910 0.4218
vn 0.2590 -0.5726 0.7778
vn 0.3291 -0.7016 0.6320
vn 0.4529 -0.5977 0.6615
vn 0.6958 -0.3030 0.6512
vn 0.4617 -0.3180 0.8281
vn -0.6798 -0.5178 -0.5194
vn 0.5393 -0.5652 0.6243
vn -0.4895 0.7790 0.3918
vn -0.1599 0.9370 0.3105
vn 0.6695 -0.4913 0.5571
vn 0.7207 -0.3802 0.5797
vn 0.2463 -0.4880 0.8373
vn 0.4160 -0.3315 0.8468
vn 0.2185 0.5809 0.7841
vn -0.3869 0.2143 0.8969
vn -0.7569 -0.5983 0.2630
vn -0.9858 0.1585 0.0551
vn -0.8256 0.0914 0.5568
vn -0.2079 -0.8076 0.5518
vn 0.0779 0.0769 0.9940
vn 0.6322 0.1417 -0.7617
vn -0.4279 -0.3888 0.8159
vn -0.2789 0.2671 0.9224
vn 0.2236 -0.6767 0.7015
vn 0.5773 -0.7813 0.2372
vn -0.1049 -0.0873 0.9906
vn 0.0573 0.5479 0.8346
vn 0.6007 -0.3962 0.6944
vn 0.4504 0.8816 -0.1415
vn -0.1853 0.9755 0.1189
vn 0.9849 -0.0643 -0.1606
vn -0.2395 0.9462 -0.2175
vn -0.1403 0.9271 -0.3475
vn 0.2300 0.9672 0.1079
vn -0.3768 -0.6365 -0.6730
vn -0.5793 0.0302 -0.8146
vn 0.9692 -0.2359 -0.0707
vn 0.9190 -0.2218 -0.3258
vn 0.9267 -0.1677 -0.3363
vn -0.6655 0.4762 -0.5748
vn -0.6243 0.5262 -0.5774
vn 0.6628 -0.7298 -0.1675
vn -0.3524 0.8616 -0.3652
vn 0.2060 0.7949 -0.5707
vn 0.7845 -0.1429 -0.6034
vn 0.2375 0.2313 0.9434
vn -0.6578 0.4024 -0.6366
vn -0.2017 -0.2546 0.9458
vn -0.2091 -0.3376 0.9178
vn 0.4101 -0.0555 -0.9103
vn 0.8172 -0.5751 -0.0380
vn 0.9563 0.1242 0.2647
vn 0.6775 0.1432 0.7215
vn -0.9293 -0.0902 -0.3582
vn -0.7494 0.6176 -0.2387
vn 0.3323 -0.8834 -0.3303
vn -0.1958 -0.9030 -0.3824
vn -0.5265 0.3244 -0.7858
vn 0.0761 -0.5807 -0.8106
vn 0.6157 -0.7591 0.2114
vn -0.5269 0.8312 -0.1775
vn -0.8035 -0.1491 -0.5763
vn -0.6743 -0.6376 -0.3726
vn -0.0094 -0.9766 0.2148
vn 0.5682 -0.4308 -0.7011
vn 0.0405 0.5147 -0.8564
vn 0.4222 -0.8856 -0.1934
vn -0.3126 0.9087 0.2766
vn 0.3168 0.9452 0.0788
vn 0.4669 0.7386 -0.4862
vn -0.1309 -0.3186 -0.9388
vn 0.4344 0.3678 -0.8222
vn -0.5674 0.8217 -0.0533
vn 0.3740 0.8054 0.4597
vn 0.3485 0.5228 0.7780
vn 0.3994 0.7332 0.5504
vn -0.3999 0.8401 -0.3665
vn -0.8530 0.5219 0.0065
vn -0.6777 -0.7226 0.1364
vn 0.5618 -0.8271 -0.0150
vn 0.5671 -0.8220 0.0528
vn -0.3028 -0.9260 -0.2255
vn -0.4619 -0.6651 -0.5867
vn -0.2755 -0.6713 -0.6880
vn 0.4408 -0.8268 -0.3493
vn 0.3261 -0.9418 -0.0818
vn 0.0467 0.7600 0.6482
vn -0.8803 -0.3129 -0.3567
vn -0.9115 -0.2575 -0.3207
vn 0.2883 0.7767 -0.5600
vn 0.5443 0.8349 0.0816
vn -0.1436 -0.1270 -0.9815
vn 0.5132 -0.0491 0.8569
vn 0.1176 -0.9297 0.3492
vn 0.9938 0.1027 -0.0437
vn 0.4552 -0.7466 -0.4851
vn 0.7252 0.3386 -0.5995
vn 0.1396 -0.5525 -0.8217
vn 0.8965 -0.3296 0.2961
vn -0.5671 0.7134 0.4117
vn -0.9834 -0.1617 -0.0823
vn -0.7972 -0.5215 -0.3040
vn 0.5653 0.6981 0.4395
vn 0.0560 -0.4667 -0.8826
vn -0.0696 -0.4383 -0.8961
vn -0.8667 0.2505 0.4313
vn -0.7954 0.1881 0.5762
vn 0.9546 -0.1808 -0.2367
vn 0.9468 -0.1740 -0.2707
vn -0.1511 -0.2463 0.9573
vn -0.2613 -0.3368 0.9046
vn -0.5892 0.3847 -0.7105
vn -0.7028 0.0791 0.7070
vn 0.0129 -0.5331 -0.8460
vn 0.9206 0.2849 0.2669
vn 0.8851 0.1847 0.4272
vn 0.8411 0.5234 0.1362
vn -0.6498 -0.6472 -0.3987
vn 0.0605 0.0525 0.9968
vn 0.7189 0.6739 0.1704
vn -0.7121 0.0078 0.7020
vn 0.4864 0.4913 -0.7225
vn -0.0379 -0.6292 -0.7764
vn -0.2270 -0.6013 0.7661
usemtl rpgpp_lt_mat_a
s 1
f 25/1/1 24/2/2 26/3/3
f 21/4/4 25/1/1 26/3/3
f 74/5/5 75/6/6 73/7/7 78/8/8
f 65/9/9 55/10/10 74/11/5 76/12/11
f 101/13/12 99/14/13 89/15/14 87/16/15
f 142/17/16 159/18/17 165/19/18 161/20/19
f 144/21/20 143/22/21 169/23/22 170/24/23
f 17/25/24 25/26/1 19/27/25
f 15/28/26 13/29/27 24/30/2
f 7/31/28 9/32/29 23/33/30
f 22/34/31 26/3/3 24/2/2
f 162/35/32 145/36/33 147/37/34 163/38/35
f 11/39/36 2/40/37 21/41/4
f 5/42/38 22/43/31 3/44/39
f 4/45/40 5/42/38 3/44/39
f 14/46/41 13/29/27 15/28/26
f 52/47/42 50/48/43 51/49/44
f 52/47/42 51/49/44 47/50/45
f 189/51/46 188/52/47 192/53/48 187/54/49
f 91/55/50 102/56/51 100/57/52 81/58/53
f 191/59/54 190/60/55 181/61/56 183/62/57
f 188/52/47 189/51/46 173/63/58 171/64/59
f 121/65/60 122/66/61 125/67/62 124/68/63
f 45/69/64 51/49/44 43/70/65
f 50/48/43 39/71/66 41/72/67
f 49/73/68 35/74/69 33/75/70
f 15/28/26 17/25/24 16/76/71
f 50/48/43 52/47/42 48/77/72
f 74/11/5 57/78/73 59/79/74 75/80/6
f 47/50/45 28/81/75 37/82/76
f 29/83/77 48/77/72 31/84/78
f 181/61/56 155/85/79 156/86/80 182/87/81
f 13/29/27 14/46/41 39/71/66
f 14/46/41 15/28/26 41/72/67
f 1/88/82 3/44/39 13/29/27
f 53/89/83 65/9/9 91/55/50 79/90/84
f 118/91/85 119/92/86 122/66/61 121/65/60
f 39/71/66 29/83/77 27/93/87
f 56/94/88 55/10/10 81/58/53 82/95/89
f 57/78/73 56/94/88 82/95/89 83/96/90
f 29/83/77 31/84/78 30/97/91
f 58/98/92 57/78/73 83/96/90 84/99/93
f 62/100/94 61/101/95 87/16/15 88/102/96
f 89/15/14 63/103/97 62/100/94 88/102/96
f 152/104/98 151/105/99 177/106/100 178/107/101
f 28/81/75 38/108/102 37/82/76
f 114/109/103 111/110/104 112/111/105 115/112/106
f 80/113/107 54/114/108 64/115/109 90/116/110
f 31/84/78 33/75/70 32/117/111
f 109/118/112 110/119/113 113/120/114 112/111/105
f 19/27/25 20/121/115 46/122/116 45/69/64
f 37/82/76 36/123/117 35/74/69
f 33/75/70 35/74/69 34/124/118
f 41/72/67 39/71/66 14/46/41
f 68/125/119 69/126/120 95/127/121 94/128/122
f 95/127/121 69/126/120 70/129/123 96/130/124
f 85/131/125 59/79/74 58/98/92 84/99/93
f 159/18/17 160/132/126 186/133/127 185/134/128
f 46/122/116 28/81/75 45/69/64
f 42/135/129 43/70/65 41/72/67
f 98/136/130 72/137/131 54/114/108 80/113/107
f 44/138/132 45/69/64 43/70/65
f 6/139/133 7/31/28 5/42/38
f 8/140/134 9/32/29 7/31/28
f 9/32/29 10/141/135 11/39/36
f 17/25/24 19/27/25 18/142/136
f 19/27/25 2/40/37 20/121/115
f 11/39/36 12/143/137 2/40/37
f 77/144/138 76/145/11 78/8/8
f 73/7/7 77/144/138 78/8/8
f 162/146/32 163/147/35 161/148/19 166/149/139
f 153/150/140 143/22/21 162/35/32 164/151/141
f 25/26/1 17/25/24 15/28/26 24/30/2
f 13/29/27 3/44/39 22/43/31 24/30/2
f 23/33/30 9/32/29 11/39/36 21/41/4
f 69/126/120 77/152/138 71/153/142
f 67/154/143 65/9/9 76/12/11
f 59/79/74 61/101/95 75/80/6
f 74/5/5 78/8/8 76/145/11
f 22/43/31 5/42/38 7/31/28 23/33/30
f 63/103/97 54/114/108 73/155/7
f 57/78/73 74/11/5 55/10/10
f 56/94/88 57/78/73 55/10/10
f 66/156/144 65/9/9 67/154/143
f 104/157/145 102/56/51 103/158/146
f 104/157/145 103/158/146 99/14/13
f 49/73/68 48/77/72 52/47/42 47/50/45
f 179/159/147 190/60/55 188/52/47 169/23/22
f 51/49/44 50/48/43 41/72/67 43/70/65
f 168/160/148 187/54/49 191/59/54 185/134/128
f 189/51/46 187/54/49 177/106/100 175/161/149
f 97/162/150 103/158/146 95/127/121
f 102/56/51 91/55/50 93/163/151
f 101/13/12 87/16/15 85/131/125
f 67/154/143 69/126/120 68/125/119
f 102/56/51 104/157/145 100/57/52
f 48/77/72 49/73/68 33/75/70 31/84/78
f 99/14/13 80/113/107 89/15/14
f 81/58/53 100/57/52 83/96/90
f 64/115/109 63/103/97 89/15/14 90/116/110
f 65/9/9 66/156/144 91/55/50
f 66/156/144 67/154/143 93/163/151
f 53/89/83 55/10/10 65/9/9
f 70/129/123 71/153/142 97/162/150 96/130/124
f 29/83/77 3/44/39 1/88/82 27/93/87
f 91/55/50 81/58/53 79/90/84
f 165/19/18 157/164/152 155/85/79 164/151/141
f 120/165/153 117/166/154 118/91/85 121/65/60
f 81/58/53 83/96/90 82/95/89
f 103/158/146 102/56/51 93/163/151 95/127/121
f 150/167/155 149/168/156 175/161/149 176/169/157
f 141/170/158 153/150/140 179/159/147 167/171/159
f 12/143/137 11/39/36 37/82/76 38/108/102
f 80/113/107 90/116/110 89/15/14
f 173/63/58 147/37/34 146/172/160 172/173/161
f 146/172/160 145/36/33 171/64/59 172/173/161
f 83/96/90 85/131/125 84/99/93
f 34/124/118 8/140/134 7/31/28 33/75/70
f 149/168/156 148/174/162 174/175/163 175/161/149
f 89/15/14 88/102/96 87/16/15
f 85/131/125 87/16/15 86/176/164
f 93/163/151 91/55/50 66/156/144
f 156/86/80 157/164/152 183/62/57 182/87/81
f 183/62/57 157/164/152 158/177/165 184/178/166
f 158/177/165 159/18/17 185/134/128 184/178/166
f 120/165/153 121/65/60 124/68/63 123/179/167
f 98/136/130 80/113/107 97/162/150
f 94/128/122 95/127/121 93/163/151
f 186/133/127 160/132/126 142/17/16 168/160/148
f 96/130/124 97/162/150 95/127/121
f 58/98/92 59/79/74 57/78/73
f 60/180/168 61/101/95 59/79/74
f 61/101/95 62/100/94 63/103/97
f 69/126/120 71/153/142 70/129/123
f 71/153/142 54/114/108 72/137/131
f 63/103/97 64/115/109 54/114/108
f 120/165/153 123/179/167 125/67/62 122/66/61
f 117/166/154 120/165/153 122/66/61 119/92/86
f 174/175/163 148/174/162 147/37/34 173/63/58
f 113/120/114 111/110/104 114/109/103
f 132/181/169 129/182/170 130/183/171 133/184/172
f 10/141/135 9/32/29 35/74/69 36/123/117
f 46/122/116 20/121/115 2/40/37 28/81/75
f 101/13/12 100/57/52 104/157/145 99/14/13
f 105/185/173 108/186/174 110/119/113 107/187/175
f 116/188/176 113/120/114 114/109/103
f 112/111/105 113/120/114 116/188/176 115/112/106
f 108/186/174 105/185/173 106/189/177 109/118/112
f 132/181/169 133/184/172 136/190/178 135/191/179
f 61/101/95 60/180/168 86/176/164 87/16/15
f 129/182/170 132/181/169 134/192/180 131/193/181
f 43/70/65 17/25/24 18/142/136 44/138/132
f 132/181/169 135/191/179 137/194/182 134/192/180
f 108/186/174 111/110/104 113/120/114 110/119/113
f 130/183/171 131/193/181 134/192/180 133/184/172
f 126/195/183 123/179/167 124/68/63 127/196/184
f 39/71/66 50/48/43 48/77/72 29/83/77
f 168/160/148 142/17/16 152/104/98 178/107/101
f 136/190/178 137/194/182 140/197/185 139/198/186
f 124/68/63 125/67/62 128/199/187 127/196/184
f 16/76/71 17/25/24 43/70/65 42/135/129
f 138/200/188 135/191/179 136/190/178 139/198/186
f 108/186/174 109/118/112 112/111/105 111/110/104
f 163/38/35 149/168/156 151/105/99 161/20/19
f 165/201/18 164/202/141 166/149/139
f 161/148/19 165/201/18 166/149/139
f 145/36/33 144/21/20 170/24/23 171/64/59
f 77/152/138 69/126/120 67/154/143 76/12/11
f 54/114/108 71/153/142 77/152/138 73/155/7
f 75/80/6 61/101/95 63/103/97 73/155/7
f 157/164/152 165/19/18 159/18/17
f 155/85/79 153/150/140 164/151/141
f 147/37/34 149/168/156 163/38/35
f 162/146/32 166/149/139 164/202/141
f 140/197/185 137/194/182 135/191/179 138/200/188
f 151/105/99 142/17/16 161/20/19
f 145/36/33 162/35/32 143/22/21
f 144/21/20 145/36/33 143/22/21
f 154/203/189 153/150/140 155/85/79
f 192/53/48 190/60/55 191/59/54
f 192/53/48 191/59/54 187/54/49
f 22/34/31 23/204/30 21/4/4 26/3/3
f 2/40/37 19/27/25 25/26/1 21/41/4
f 41/72/67 15/28/26 16/76/71 42/135/129
f 28/81/75 47/50/45 51/49/44 45/69/64
f 49/73/68 47/50/45 37/82/76 35/74/69
f 185/134/128 191/59/54 183/62/57
f 190/60/55 179/159/147 181/61/56
f 189/51/46 175/161/149 173/63/58
f 155/85/79 157/164/152 156/86/80
f 190/60/55 192/53/48 188/52/47
f 100/57/52 101/13/12 85/131/125 83/96/90
f 187/54/49 168/160/148 177/106/100
f 169/23/22 188/52/47 171/64/59
f 93/163/151 67/154/143 68/125/119 94/128/122
f 153/150/140 154/203/189 179/159/147
f 154/203/189 155/85/79 181/61/56
f 141/170/158 143/22/21 153/150/140
f 1/88/82 13/29/27 39/71/66 27/93/87
f 81/58/53 55/10/10 53/89/83 79/90/84
f 179/159/147 169/23/22 167/171/159
f 4/45/40 3/44/39 29/83/77 30/97/91
f 5/42/38 4/45/40 30/97/91 31/84/78
f 169/23/22 171/64/59 170/24/23
f 6/139/133 5/42/38 31/84/78 32/117/111
f 169/23/22 143/22/21 141/170/158 167/171/159
f 37/82/76 11/39/36 10/141/135 36/123/117
f 133/184/172 134/192/180 137/194/182 136/190/178
f 168/160/148 178/107/101 177/106/100
f 33/75/70 7/31/28 6/139/133 32/117/111
f 28/81/75 2/40/37 12/143/137 38/108/102
f 171/64/59 173/63/58 172/173/161
f 86/176/164 60/180/168 59/79/74 85/131/125
f 9/32/29 8/140/134 34/124/118 35/74/69
f 177/106/100 176/169/157 175/161/149
f 173/63/58 175/161/149 174/175/163
f 181/61/56 179/159/147 154/203/189
f 80/113/107 99/14/13 103/158/146 97/162/150
f 177/106/100 151/105/99 150/167/155 176/169/157
f 18/142/136 19/27/25 45/69/64 44/138/132
f 71/153/142 72/137/131 98/136/130 97/162/150
f 186/133/127 168/160/148 185/134/128
f 182/87/81 183/62/57 181/61/56
f 128/199/187 125/67/62 123/179/167 126/195/183
f 184/178/166 185/134/128 183/62/57
f 146/172/160 147/37/34 145/36/33
f 148/174/162 149/168/156 147/37/34
f 149/168/156 150/167/155 151/105/99
f 157/164/152 159/18/17 158/177/165
f 159/18/17 142/17/16 160/132/126
f 151/105/99 152/104/98 142/17/16
f 106/189/177 107/187/175 110/119/113 109/118/112
