# Blender v2.79 (sub 0) OBJ File: ''
# www.blender.org
mtllib rpgpp_lt_plant_02.mtl
o rpgpp_lt_plant_02_rpgpp_lt_plant_02.001
v 0.002725 0.003945 0.016862
v 0.002653 0.003439 0.000229
v 0.637996 0.188837 -0.025149
v 0.460040 0.273045 0.121238
v 0.320544 0.263939 0.170345
v 0.107117 0.146047 0.021978
v 0.110334 0.143490 -0.024039
v 0.334026 0.261206 -0.156809
v 0.456965 0.265882 -0.127889
v 0.577872 0.231063 -0.084926
v 0.576892 0.236727 0.052430
v 0.131668 0.167504 0.092084
v 0.161909 0.186810 -0.106521
v 0.223041 0.223356 -0.133727
v 0.203335 0.218964 0.148915
v 0.319276 0.294915 0.004075
v 0.454386 0.304209 -0.005261
v 0.202867 0.252686 0.005741
v 0.012121 -0.000708 0.008231
v 0.628391 0.178226 -0.024587
v 0.457821 0.258954 0.118682
v 0.324872 0.251108 0.168211
v 0.118017 0.138795 0.018317
v 0.121373 0.137287 -0.019196
v 0.338138 0.248412 -0.154134
v 0.455115 0.251996 -0.124458
v 0.571614 0.218481 -0.081625
v 0.570357 0.224112 0.049969
v 0.141905 0.158634 0.090109
v 0.171041 0.177174 -0.103326
v 0.229958 0.211936 -0.130866
v 0.210975 0.207810 0.146885
v 0.323803 0.281879 0.004361
v 0.452140 0.290072 -0.004816
v 0.210734 0.241432 0.005933
v -0.007009 0.003925 -0.011045
v 0.014358 0.002826 -0.011917
v 0.004831 0.414217 -0.647862
v -0.174264 0.400646 -0.436733
v -0.223242 0.335653 -0.285100
v -0.038014 0.174763 -0.104264
v 0.023884 0.188581 -0.121231
v 0.180520 0.326073 -0.316254
v 0.145765 0.384183 -0.449793
v 0.085215 0.412340 -0.577415
v -0.091078 0.421198 -0.566811
v -0.128364 0.203971 -0.124045
v 0.126431 0.223162 -0.164292
v 0.160507 0.259137 -0.210685
v -0.202185 0.260270 -0.175252
v -0.017154 0.363435 -0.284132
v -0.009780 0.426540 -0.426170
v -0.016561 0.292363 -0.176610
v 0.003435 -0.000197 -0.022426
v 0.003792 0.399584 -0.644098
v -0.171650 0.385460 -0.440221
v -0.221303 0.322935 -0.293057
v -0.034144 0.168235 -0.117382
v 0.016863 0.183533 -0.133886
v 0.176283 0.313585 -0.323871
v 0.140673 0.369501 -0.453363
v 0.080494 0.397847 -0.576861
v -0.088380 0.406329 -0.566220
v -0.126698 0.195697 -0.136600
v 0.121467 0.214137 -0.175540
v 0.155994 0.247915 -0.219956
v -0.200428 0.249254 -0.185466
v -0.018338 0.350586 -0.292067
v -0.011034 0.411105 -0.429448
v -0.017676 0.281347 -0.186945
v -0.006528 0.009102 0.014238
v -0.019587 0.007668 0.004024
v -0.435030 0.176205 0.521817
v -0.211721 0.227663 0.466480
v -0.088367 0.216403 0.375476
v -0.071095 0.128819 0.128577
v -0.119972 0.135052 0.112288
v -0.345180 0.194652 0.194664
v -0.407312 0.206190 0.313490
v -0.445008 0.194072 0.434664
v -0.335392 0.206706 0.516619
v -0.033235 0.149130 0.192724
v -0.211240 0.151066 0.097799
v -0.263537 0.168078 0.119672
v -0.027401 0.183371 0.275512
v -0.216720 0.238166 0.278962
v -0.309627 0.251051 0.383716
v -0.145575 0.208383 0.191593
v -0.018099 0.002162 0.015786
v -0.429551 0.164771 0.516667
v -0.212219 0.213616 0.464246
v -0.091337 0.203186 0.377089
v -0.079193 0.119390 0.134015
v -0.121582 0.127147 0.123118
v -0.344311 0.181800 0.199152
v -0.403333 0.192638 0.315227
v -0.439074 0.181871 0.433506
v -0.333811 0.194111 0.511689
v -0.039372 0.138393 0.198499
v -0.212557 0.140137 0.105816
v -0.263637 0.155835 0.125675
v -0.031804 0.170961 0.279089
v -0.217782 0.224878 0.282076
v -0.307646 0.236896 0.383200
v -0.148323 0.195970 0.196670
vt 0.203647 0.841849
vt 0.203647 0.841849
vt 0.203647 0.841849
vt 0.203647 0.841849
vt 0.203647 0.841849
vt 0.203647 0.841849
vt 0.203647 0.841849
vt 0.203647 0.841849
vt 0.203647 0.841849
vt 0.203647 0.841849
vt 0.203647 0.841849
vt 0.203647 0.841849
vt 0.203647 0.841849
vt 0.203647 0.841849
vt 0.203647 0.841849
vt 0.203647 0.841849
vt 0.203647 0.841849
vt 0.203647 0.841849
vt 0.203647 0.841849
vt 0.203647 0.841849
vt 0.203647 0.841849
vt 0.203647 0.841849
vt 0.203647 0.841849
vt 0.203647 0.841849
vt 0.203647 0.841849
vt 0.203647 0.841849
vt 0.203647 0.841849
vt 0.203647 0.841849
vt 0.203647 0.841849
vt 0.203647 0.841849
vt 0.203647 0.841849
vt 0.203647 0.841849
vt 0.203647 0.841849
vt 0.203647 0.841849
vt 0.203647 0.841849
vt 0.203647 0.841849
vt 0.203647 0.841849
vt 0.203647 0.841849
vt 0.203647 0.841849
vt 0.203647 0.841849
vt 0.203647 0.841849
vt 0.203647 0.841849
vt 0.203647 0.841849
vt 0.203647 0.841849
vt 0.203647 0.841849
vt 0.203647 0.841849
vt 0.203647 0.841849
vt 0.203647 0.841849
vt 0.203647 0.841849
vt 0.203647 0.841849
vt 0.203647 0.841849
vt 0.203647 0.841849
vt 0.203647 0.841849
vt 0.203647 0.841849
vt 0.203647 0.841849
vt 0.203647 0.841849
vt 0.203647 0.841849
vt 0.203647 0.841849
vt 0.203647 0.841849
vt 0.203647 0.841849
vt 0.203647 0.841849
vt 0.203647 0.841849
vt 0.203647 0.841849
vt 0.203647 0.841849
vt 0.203647 0.841849
vt 0.203647 0.841849
vt 0.203647 0.841849
vt 0.203647 0.841849
vt 0.203647 0.841849
vt 0.203647 0.841849
vt 0.203647 0.841849
vt 0.203647 0.841849
vt 0.203647 0.841849
vt 0.203647 0.841849
vt 0.203647 0.841849
vt 0.203647 0.841849
vt 0.203647 0.841849
vt 0.203647 0.841849
vt 0.203647 0.841849
vt 0.203647 0.841849
vt 0.203647 0.841849
vt 0.203647 0.841849
vt 0.203647 0.841849
vt 0.203647 0.841849
vt 0.203647 0.841849
vt 0.203647 0.841849
vt 0.203647 0.841849
vt 0.203647 0.841849
vt 0.203647 0.841849
vt 0.203647 0.841849
vt 0.203647 0.841849
vt 0.203647 0.841849
vt 0.203647 0.841849
vt 0.203647 0.841849
vt 0.203647 0.841849
vt 0.203647 0.841849
vt 0.203647 0.841849
vt 0.203647 0.841849
vt 0.203647 0.841849
vt 0.203647 0.841849
vt 0.203647 0.841849
vt 0.203647 0.841849
vt 0.203647 0.841849
vt 0.203647 0.841849
vt 0.203647 0.841849
vn 0.5337 -0.8454 0.0205
vn 0.1840 -0.8230 -0.5373
vn 0.1753 -0.7742 -0.6081
vn 0.1918 -0.9813 0.0152
vn 0.5408 -0.7788 -0.3177
vn 0.2758 -0.9602 0.0437
vn -0.6660 -0.2312 -0.7092
vn -0.7368 0.1450 -0.6604
vn 0.1970 0.9800 -0.0271
vn 0.6073 0.3686 -0.7038
vn 0.2588 0.5245 -0.8111
vn -0.6720 -0.2635 0.6921
vn 0.7720 -0.3032 0.5587
vn 0.6234 0.0044 0.7819
vn -0.4055 0.0151 0.9140
vn 0.1382 -0.7971 0.5878
vn 0.1053 -0.9078 0.4060
vn 0.1963 -0.6900 -0.6967
vn -0.0264 -0.9214 -0.3878
vn 0.0361 0.4685 -0.8827
vn 0.6864 0.5580 -0.4665
vn 0.4687 -0.7627 -0.4457
vn -0.0328 -0.6937 -0.7195
vn -0.1319 0.9907 0.0344
vn -0.9224 0.3863 -0.0002
vn -0.6540 0.1522 0.7410
vn 0.0569 0.4785 0.8763
vn -0.0235 -0.8181 -0.5747
vn -0.2028 -0.9789 0.0269
vn 0.0871 -0.8431 -0.5306
vn -0.3807 -0.6838 -0.6225
vn -0.4528 -0.1535 0.8783
vn -0.3572 -0.9092 -0.2141
vn -0.1975 0.9802 -0.0154
vn -0.5360 0.8440 -0.0206
vn -0.5069 0.3523 0.7867
vn -0.0673 0.5391 0.8395
vn -0.8168 0.5239 0.2418
vn -0.7508 0.6481 -0.1271
vn -0.5717 -0.6529 -0.4969
vn -0.6687 -0.6225 -0.4066
vn -0.0962 0.1175 -0.9884
vn -0.0614 0.2660 -0.9620
vn -0.4267 -0.8817 0.2015
vn -0.2378 -0.9443 -0.2277
vn 0.1025 -0.8294 0.5492
vn 0.8580 0.3356 -0.3889
vn 0.9229 0.1556 -0.3523
vn 0.3624 -0.9085 0.2079
vn 0.1879 -0.8702 -0.4554
vn -0.6861 0.0820 -0.7229
vn -0.4187 0.3905 -0.8199
vn 0.6661 0.5913 0.4546
vn 0.0437 0.9830 -0.1786
vn 0.4001 0.5867 0.7040
vn 0.3188 -0.7702 0.5524
vn 0.3258 -0.7982 0.5068
vn 0.5358 -0.7584 0.3713
vn 0.9973 -0.0339 -0.0646
vn 0.3080 -0.9512 -0.0194
vn -0.5193 -0.7095 -0.4764
vn -0.0574 -0.9761 -0.2096
vn -0.2631 -0.8817 0.3918
vn -0.0993 0.5063 -0.8566
vn -0.8565 0.2157 0.4690
vn -0.8257 -0.0060 0.5640
vn -0.0565 -0.8809 -0.4699
vn 0.0609 -0.8270 0.5588
vn 0.1321 -0.9906 -0.0349
vn -0.4652 -0.8688 -0.1694
vn -0.5194 -0.8280 -0.2113
vn -0.0421 -0.9834 0.1763
vn 0.0575 0.9760 0.2101
vn -0.5813 0.6444 -0.4969
vn -0.6854 -0.1618 0.7100
vn 0.0674 0.7083 0.7027
vn 0.8460 0.2076 0.4912
vn 0.8844 0.4209 0.2016
vn 0.0567 0.8796 0.4724
vn 0.3603 0.5524 0.7517
vn 0.7079 0.3722 0.6003
vn 0.2072 0.8959 -0.3930
vn -0.4334 0.3537 -0.8289
vn -0.6506 0.4556 -0.6076
vn 0.1982 -0.8114 0.5498
vn -0.0673 -0.7089 -0.7021
vn 0.5524 -0.7202 -0.4197
vn 0.4978 -0.8069 -0.3180
vn 0.8395 0.5344 -0.0980
vn -0.6120 -0.7630 -0.2083
vn 0.9853 -0.0044 -0.1708
vn -0.0148 -0.9964 0.0839
vn -0.4236 -0.8687 -0.2569
vn 0.4749 -0.7550 -0.4522
vn 0.4099 -0.7152 0.5661
vn -0.2068 -0.8962 0.3924
vn 0.5008 -0.7707 0.3940
vn 0.8995 0.4286 0.0850
vn 0.3126 -0.9147 -0.2561
vn -0.8100 0.4622 -0.3610
vn 0.6643 -0.1242 0.7371
vn -0.1781 -0.1141 -0.9774
vn -0.4691 -0.8603 -0.1995
vn 0.2365 -0.7258 0.6460
vn -0.7461 0.2092 0.6322
usemtl rpgpp_lt_mat_a
s 1
f 35/1/1 31/2/2 25/3/3 33/4/4
f 24/5/5 19/6/6 2/7/7 7/8/8
f 17/9/9 10/10/10 9/11/11
f 36/12/12 37/13/13 42/14/14 41/15/15
f 32/16/16 29/17/17 35/1/1
f 59/18/18 42/14/14 37/13/13 54/19/19
f 38/20/20 45/21/21 62/22/22 55/23/23
f 87/24/24 80/25/25 73/26/26 81/27/27
f 27/28/28 34/29/29 26/30/30
f 58/31/31 41/15/15 47/32/32 64/33/33
f 16/34/34 18/35/35 15/36/36 5/37/37
f 40/38/38 39/39/39 56/40/40 57/41/41
f 83/42/42 77/43/43 94/44/44 100/45/45
f 93/46/46 76/47/47 82/48/48 99/49/49
f 31/2/2 30/50/50 13/51/51 14/52/52
f 75/53/53 86/54/54 87/24/24 74/55/55
f 91/56/56 74/55/55 81/27/27 98/57/57
f 29/17/17 23/58/58 35/1/1
f 35/1/1 24/5/5 30/50/50
f 3/59/59 20/60/60 27/28/28 10/10/10
f 63/61/61 55/23/23 62/22/22 69/62/62
f 98/57/57 81/27/27 73/26/26 90/63/63
f 18/35/35 16/34/34 8/64/64 14/52/52
f 6/65/65 12/66/66 18/35/35
f 7/8/8 18/35/35 13/51/51
f 57/41/41 56/40/40 69/62/62 68/67/67
f 28/68/68 34/29/29 27/28/28 20/60/60
f 104/69/69 96/70/70 95/71/71 103/72/72
f 24/5/5 23/58/58 19/6/6
f 52/73/73 45/21/21 38/20/20 46/74/74
f 2/7/7 19/6/6 1/75/75
f 53/76/76 49/77/77 43/78/78 51/79/79
f 35/1/1 30/50/50 31/2/2
f 4/80/80 11/81/81 17/9/9
f 88/82/82 84/83/83 78/84/84 86/54/54
f 21/85/85 34/29/29 28/68/68
f 23/58/58 24/5/5 35/1/1
f 6/65/65 18/35/35 7/8/8
f 70/86/86 68/67/67 60/87/87 66/88/88
f 36/12/12 41/15/15 58/31/31 54/19/19
f 52/73/73 44/89/89 45/21/21
f 23/58/58 29/17/17 12/66/66 6/65/65
f 67/90/90 70/86/86 64/33/33
f 71/91/91 76/47/47 93/46/46 89/92/92
f 101/93/93 84/83/83 83/42/42 100/45/45
f 40/38/38 51/79/79 52/73/73 39/39/39
f 62/22/22 61/94/94 69/62/62
f 10/10/10 27/28/28 26/30/30 9/11/11
f 75/53/53 74/55/55 91/56/56 92/95/95
f 26/30/30 25/3/3 8/64/64 9/11/11
f 52/73/73 51/79/79 43/78/78 44/89/89
f 69/62/62 61/94/94 60/87/87 68/67/67
f 5/37/37 4/80/80 17/9/9 16/34/34
f 92/95/95 103/72/72 105/96/96 102/97/97
f 12/66/66 29/17/17 32/16/16 15/36/36
f 82/48/48 85/98/98 102/97/97 99/49/49
f 64/33/33 70/86/86 58/31/31
f 70/86/86 65/99/99 59/18/18
f 87/24/24 86/54/54 78/84/84 79/100/100
f 17/9/9 11/81/81 3/59/59 10/10/10
f 25/3/3 31/2/2 14/52/52 8/64/64
f 1/75/75 6/65/65 7/8/8 2/7/7
f 41/15/15 53/76/76 47/32/32
f 42/14/14 48/101/101 53/76/76
f 34/29/29 33/4/4 25/3/3 26/30/30
f 63/61/61 46/74/74 38/20/20 55/23/23
f 59/18/18 54/19/19 58/31/31
f 94/44/44 77/43/43 72/102/102 89/92/92
f 37/13/13 36/12/12 54/19/19
f 85/98/98 75/53/53 92/95/95 102/97/97
f 70/86/86 66/88/88 65/99/99
f 39/39/39 52/73/73 46/74/74
f 57/41/41 68/67/67 70/86/86 67/90/90
f 56/40/40 63/61/61 69/62/62
f 58/31/31 70/86/86 59/18/18
f 41/15/15 42/14/14 53/76/76
f 105/96/96 103/72/72 95/71/71 101/93/93
f 17/9/9 9/11/11 8/64/64 16/34/34
f 87/24/24 79/100/100 80/25/25
f 80/25/25 79/100/100 96/70/70 97/103/103
f 102/97/97 105/96/96 99/49/49
f 71/91/91 72/102/102 77/43/43 76/47/47
f 22/104/104 32/16/16 35/1/1 33/4/4
f 21/85/85 28/68/68 11/81/81 4/80/80
f 97/103/103 96/70/70 104/69/69
f 28/68/68 20/60/60 3/59/59 11/81/81
f 22/104/104 33/4/4 34/29/29 21/85/85
f 85/98/98 82/48/48 88/82/82
f 48/101/101 42/14/14 59/18/18 65/99/99
f 56/40/40 39/39/39 46/74/74 63/61/61
f 61/94/94 44/89/89 43/78/78 60/87/87
f 96/70/70 79/100/100 78/84/84 95/71/71
f 75/53/53 85/98/98 88/82/82 86/54/54
f 45/21/21 44/89/89 61/94/94 62/22/22
f 73/26/26 80/25/25 97/103/103 90/63/63
f 99/49/49 105/96/96 93/46/46
f 105/96/96 100/45/45 94/44/44
f 47/32/32 50/105/105 67/90/90 64/33/33
f 1/75/75 19/6/6 23/58/58 6/65/65
f 66/88/88 49/77/77 48/101/101 65/99/99
f 50/105/105 40/38/38 57/41/41 67/90/90
f 76/47/47 88/82/82 82/48/48
f 77/43/43 83/42/42 88/82/82
f 92/95/95 91/56/56 104/69/69 103/72/72
f 60/87/87 43/78/78 49/77/77 66/88/88
f 15/36/36 32/16/16 22/104/104 5/37/37
f 94/44/44 89/92/92 93/46/46
f 5/37/37 22/104/104 21/85/85 4/80/80
f 72/102/102 71/91/91 89/92/92
f 50/105/105 53/76/76 51/79/79 40/38/38
f 105/96/96 101/93/93 100/45/45
f 74/55/55 87/24/24 81/27/27
f 83/42/42 84/83/83 88/82/82
f 91/56/56 98/57/57 104/69/69
f 93/46/46 105/96/96 94/44/44
f 76/47/47 77/43/43 88/82/82
f 13/51/51 30/50/50 24/5/5 7/8/8
f 98/57/57 90/63/63 97/103/103 104/69/69
f 13/51/51 18/35/35 14/52/52
f 15/36/36 18/35/35 12/66/66
f 48/101/101 49/77/77 53/76/76
f 50/105/105 47/32/32 53/76/76
f 95/71/71 78/84/84 84/83/83 101/93/93
