# Blender v2.79 (sub 0) OBJ File: ''
# www.blender.org
mtllib rpgpp_lt_rock_02.mtl
o rpgpp_lt_rock_02_rpgpp_lt_rock_02.001
v 0.764950 0.497855 -0.276176
v -0.312306 -0.499637 1.028087
v -0.216813 0.870282 -0.680832
v -0.725652 -0.685945 -0.795589
v 0.107772 0.700462 0.970437
v -1.269144 0.038267 -0.080120
v 0.792416 -0.163985 -0.732592
v 0.435689 1.290562 0.065295
v -0.705206 -0.326154 -0.857068
v -0.738345 -0.785930 -0.234327
v 0.191790 -0.853542 -0.098342
v 0.262559 -0.461371 1.078021
v -0.422387 0.730155 0.729344
v -0.096465 -0.128451 1.056473
v 1.076625 -0.430309 -0.417540
v -1.192649 -0.473702 0.238969
v -1.286903 -0.234472 -0.625811
v 0.868239 -0.739196 -0.398811
v 0.073516 1.269893 0.209501
v 0.561910 -0.611232 0.824998
v -0.238274 1.355374 -0.376517
v 0.946212 -0.713338 0.427214
v 0.409744 -0.000516 1.091837
v -0.043768 -0.775444 -0.626877
v 0.824685 0.179078 0.704953
v -0.700699 0.815981 -0.131476
v 0.032617 0.227032 -0.772393
v 0.678224 -0.505737 -0.658998
v 0.083104 -0.238429 -0.838736
v -1.131991 0.065575 0.380974
v -0.799004 0.657563 -0.401147
v -0.329233 -0.769552 0.423671
v -1.030982 -0.011188 -0.757904
v -0.678728 0.309498 -0.772324
v -0.507507 -0.082378 0.997784
v 0.306956 -0.745004 -0.689124
v 0.178315 1.314041 -0.491337
v -0.349383 -0.848575 -0.052800
v 0.834724 -0.267753 0.795696
v 0.996948 -0.283267 0.567866
v 0.537948 0.513389 -0.577352
v 0.604613 -0.800468 -0.016515
vt 0.784998 0.851615
vt 0.784998 0.851615
vt 0.784998 0.851615
vt 0.784998 0.851615
vt 0.784998 0.851615
vt 0.784998 0.851615
vt 0.784998 0.851615
vt 0.784998 0.851615
vt 0.784998 0.851615
vt 0.784998 0.851615
vt 0.784998 0.851615
vt 0.784998 0.851615
vt 0.784998 0.851615
vt 0.784998 0.851615
vt 0.784998 0.851615
vt 0.784998 0.851615
vt 0.784998 0.851615
vt 0.784998 0.851615
vt 0.784998 0.851615
vt 0.784998 0.851615
vt 0.784998 0.851615
vt 0.784998 0.851615
vt 0.784998 0.851615
vt 0.784998 0.851615
vt 0.784998 0.851615
vt 0.784998 0.851615
vt 0.784998 0.851615
vt 0.784998 0.851615
vt 0.784998 0.851615
vt 0.784998 0.851615
vt 0.784998 0.851615
vt 0.784998 0.851615
vt 0.784998 0.851615
vt 0.784998 0.851615
vt 0.784998 0.851615
vt 0.784998 0.851615
vt 0.784998 0.851615
vt 0.784998 0.851615
vt 0.784998 0.851615
vt 0.784998 0.851615
vt 0.784998 0.851615
vt 0.784998 0.851615
vn 0.5073 -0.7821 -0.3618
vn 0.1212 -0.9917 0.0437
vn 0.1190 -0.7224 -0.6811
vn 0.0838 -0.9965 -0.0046
vn 0.0473 -0.8030 -0.5942
vn -0.2787 -0.6854 -0.6727
vn -0.1276 -0.0835 -0.9883
vn 0.0866 -0.0663 -0.9940
vn -0.3825 -0.9232 -0.0372
vn -0.7864 -0.5241 0.3268
vn -0.8732 -0.1405 -0.4667
vn 0.1108 0.1842 -0.9766
vn -0.7198 0.5771 -0.3857
vn -0.5574 0.2762 -0.7829
vn -0.9479 0.3143 0.0519
vn 0.1403 -0.4583 0.8777
vn -0.1462 0.0950 0.9847
vn -0.2880 -0.5249 0.8010
vn 0.3456 -0.3782 -0.8588
vn 0.3279 -0.7187 0.6131
vn 0.6272 -0.7190 0.2994
vn 0.3003 0.1427 0.9431
vn 0.8163 0.3599 0.4518
vn 0.6802 -0.1157 0.7239
vn -0.1632 -0.9388 0.3033
vn 0.5383 0.0766 -0.8393
vn 0.8868 0.3980 -0.2351
vn 0.5673 0.8135 0.1280
vn -0.7359 0.6646 0.1296
vn -0.3892 0.8809 -0.2693
vn 0.5432 0.3676 -0.7549
vn 0.3111 0.7505 -0.5830
vn -0.1208 -0.9907 0.0628
vn -0.2744 0.3368 -0.9007
vn -0.1536 0.9064 0.3934
vn -0.4550 0.0965 0.8852
vn -0.4951 0.5757 0.6507
vn 0.9315 -0.0088 0.3636
vn 0.9209 -0.1379 -0.3646
vn 0.0987 0.5180 0.8497
vn -0.8283 0.2450 0.5039
vn -0.1536 0.3684 -0.9169
usemtl rpgpp_lt_mat_a
s 1
f 18/1/1 42/2/2 36/3/3
f 42/2/2 11/4/4 24/5/5
f 24/5/5 4/6/6 9/7/7 29/8/8
f 10/9/9 16/10/10 17/11/11
f 29/8/8 9/7/7 27/12/12
f 31/13/13 33/14/14 17/11/11 6/15/15
f 12/16/16 14/17/17 2/18/18
f 18/1/1 36/3/3 28/19/19
f 11/4/4 42/2/2 20/20/20
f 42/2/2 18/1/1 22/21/21
f 23/22/22 14/17/17 12/16/16
f 25/23/23 23/22/22 39/24/24
f 32/25/25 20/20/20 2/18/18
f 16/10/10 32/25/25 2/18/18
f 24/5/5 36/3/3 42/2/2
f 29/8/8 7/26/26 28/19/19
f 2/18/18 20/20/20 12/16/16
f 25/23/23 1/27/27 8/28/28
f 31/13/13 6/15/15 26/29/29
f 21/30/30 31/13/13 26/29/29
f 8/28/28 1/27/27 41/31/31 37/32/32
f 20/20/20 32/25/25 38/33/33 11/4/4
f 34/34/34 27/12/12 9/7/7
f 21/30/30 19/35/35 37/32/32
f 10/9/9 38/33/33 32/25/25 16/10/10
f 9/7/7 33/14/14 34/34/34
f 31/13/13 34/34/34 33/14/14
f 2/18/18 14/17/17 35/36/36
f 14/17/17 13/37/37 35/36/36
f 28/19/19 36/3/3 24/5/5 29/8/8
f 40/38/38 22/21/21 15/39/39
f 22/21/21 18/1/1 15/39/39
f 22/21/21 40/38/38 39/24/24 20/20/20
f 39/24/24 40/38/38 25/23/23
f 37/32/32 19/35/35 8/28/28
f 5/40/40 8/28/28 19/35/35
f 6/15/15 16/10/10 30/41/41
f 20/20/20 42/2/2 22/21/21
f 23/22/22 25/23/23 8/28/28 5/40/40
f 23/22/22 12/16/16 20/20/20 39/24/24
f 40/38/38 15/39/39 1/27/27 25/23/23
f 23/22/22 5/40/40 13/37/37 14/17/17
f 4/6/6 10/9/9 17/11/11
f 33/14/14 9/7/7 4/6/6 17/11/11
f 17/11/11 16/10/10 6/15/15
f 38/33/33 10/9/9 4/6/6 24/5/5
f 24/5/5 11/4/4 38/33/33
f 16/10/10 2/18/18 35/36/36 30/41/41
f 37/32/32 3/42/42 21/30/30
f 3/42/42 27/12/12 34/34/34
f 37/32/32 41/31/31 27/12/12
f 7/26/26 29/8/8 27/12/12
f 41/31/31 7/26/26 27/12/12
f 37/32/32 27/12/12 3/42/42
f 15/39/39 28/19/19 7/26/26
f 15/39/39 18/1/1 28/19/19
f 21/30/30 26/29/29 13/37/37 19/35/35
f 13/37/37 30/41/41 35/36/36
f 26/29/29 6/15/15 30/41/41 13/37/37
f 5/40/40 19/35/35 13/37/37
f 15/39/39 7/26/26 1/27/27
f 41/31/31 1/27/27 7/26/26
f 31/13/13 21/30/30 3/42/42 34/34/34
