# Blender v2.79 (sub 0) OBJ File: ''
# www.blender.org
mtllib rpgpp_lt_tree_01.mtl
o rpgpp_lt_tree_01_rpgpp_lt_tree_01.001
v 0.000000 0.000000 -0.385348
v -0.341473 0.000000 -0.188198
v -0.341473 0.000000 0.206100
v 0.341473 0.000000 0.206100
v 0.341473 0.000000 -0.188198
v -0.262314 0.917126 -0.098093
v -0.058383 0.917126 -0.215832
v -0.262314 0.917126 0.137386
v 0.145547 0.917127 0.137386
v 0.145547 0.917127 -0.098092
v -0.472420 2.027182 -0.094898
v -0.279377 2.039792 -0.206589
v -0.472421 2.027182 0.128485
v -0.086334 2.052403 0.128485
v -0.086334 2.052403 -0.094898
v -0.355213 3.048024 -0.340135
v -0.163701 3.017978 -0.451130
v -0.355213 3.053441 -0.116818
v 0.027812 2.998764 -0.115492
v 0.027812 2.993348 -0.338809
v 0.000000 -0.000000 0.403250
v -0.058383 0.917127 0.255126
v -0.279377 2.039793 0.240176
v -0.163701 3.028811 -0.004496
v -1.020711 3.330375 -1.036255
v -0.621485 3.719453 -1.421813
v -0.158340 6.646399 -0.902756
v -0.810793 5.709686 -1.432876
v 0.580542 3.143810 -0.423782
v -0.867039 2.855621 0.237790
v 0.831707 5.887333 -0.549332
v -0.855961 5.202044 1.001614
v -1.511124 5.362244 0.125075
v -0.399083 4.083073 0.847650
v -1.619590 4.885306 -1.071781
v -0.757099 2.721564 -0.272607
v 0.996412 4.279025 -0.534377
v 0.042820 7.222881 -0.536305
v -1.642132 5.619002 -0.385460
v -0.159497 5.740541 0.456236
v -0.632751 7.270416 -0.256026
v 0.097271 2.855290 -0.068424
v 1.033339 4.580311 -0.423349
v -1.145644 4.679514 0.946353
v 0.573671 5.845138 -1.488224
v -1.435855 3.545522 0.367999
v -0.956389 4.268143 -1.472333
v 0.505860 6.334078 -0.264142
v -1.324467 5.653636 -0.974557
v 0.679868 4.156196 0.581154
v 0.463398 6.389795 -0.977836
v -1.913998 4.217237 -0.350800
v 0.446576 4.830134 0.349987
v -0.885653 3.574319 -1.314722
v -0.499678 7.027831 -0.633683
v 0.495066 5.029026 -0.222432
v 0.253818 3.180704 -1.003403
v -1.234427 5.922123 -0.196472
v -0.603895 3.114995 0.664525
v 0.740542 4.504664 -1.075230
v -0.820132 6.499305 0.174826
v -0.264076 4.540493 -1.557186
v 0.603624 3.384157 0.571970
v -0.101251 7.223415 -0.032663
v -1.609022 4.322265 0.146625
v -0.308497 2.930692 -0.953833
v 1.249019 5.560015 -0.745720
v -1.757835 4.279398 -0.920151
v -0.216086 5.312027 0.813269
v 0.812500 5.311807 -1.415751
v -1.520320 3.724223 -0.015951
v -0.437553 6.237651 0.315780
v -0.062599 5.180160 -1.790841
v -1.252648 5.935454 -0.598370
v -0.216157 3.424026 -1.330560
v 0.476720 5.771669 0.154714
v -0.639017 6.309820 -0.880136
v -1.299884 5.571753 0.454953
v -0.626417 3.578705 0.915022
v 0.650635 5.353015 -0.525257
v -1.253038 5.315623 -1.284957
v -0.112621 3.431537 0.884153
v 0.620730 6.586433 -0.594613
v -0.906291 5.247427 -1.624626
v -1.331585 3.287160 -0.053506
v 0.641327 3.255476 0.008527
v -0.771326 6.684963 -0.242778
v -1.170098 3.467908 0.644894
v 0.108691 2.935173 -0.879427
v 0.504254 3.842089 0.811742
v -0.206621 7.146216 -0.665765
v -0.827617 2.825592 -0.593856
v 1.092860 5.117956 -1.048077
v -1.823207 5.160356 -0.202045
v -0.251876 2.906422 0.249735
v 1.106444 5.048990 -0.635424
v -0.853185 5.853881 -1.104857
v -0.682206 2.777620 0.043301
v -1.453071 4.579424 0.509684
v -0.284277 5.910210 -1.627354
v 0.413870 3.439214 0.796508
v -1.752573 5.190845 -0.591407
v -0.494720 5.289335 -1.811760
v -1.423727 3.462919 -0.651169
v 0.516429 3.126424 -0.775250
v -0.723568 5.679465 0.795000
v -1.692651 3.761966 -0.636525
v 0.076104 4.729140 0.788157
v 0.353322 4.386997 -1.214043
v 0.810047 6.168986 -0.674882
v -0.274100 4.570704 0.941094
v 0.753958 3.914881 -0.738316
v 0.478848 5.801795 -0.223337
v -0.037307 3.779849 0.941039
v -0.139503 6.237850 -1.176772
v 1.045422 4.556738 -0.812736
v 0.186763 4.329754 0.865229
v -0.265027 4.031404 -1.405096
v 0.393620 2.940417 0.276772
v -0.774536 4.857836 -1.696214
v 0.256962 5.645846 0.528293
v 0.951915 5.607807 -1.073779
v -0.853423 6.390934 -0.597434
v 0.508148 5.348442 -1.627139
v -0.087735 7.444212 -0.291448
v 1.111717 5.500712 -0.617061
v -0.411308 7.362973 -0.135500
vt 0.656751 0.795061
vt 0.656751 0.795061
vt 0.656751 0.795061
vt 0.656751 0.795061
vt 0.656751 0.795061
vt 0.656751 0.795061
vt 0.656751 0.795061
vt 0.656751 0.795061
vt 0.656751 0.795061
vt 0.656751 0.795061
vt 0.656751 0.795061
vt 0.656751 0.795061
vt 0.656751 0.795061
vt 0.656751 0.795061
vt 0.656751 0.795061
vt 0.656751 0.795061
vt 0.656751 0.795061
vt 0.656751 0.795061
vt 0.656751 0.795061
vt 0.656751 0.795061
vt 0.656751 0.795061
vt 0.656751 0.795061
vt 0.656751 0.795061
vt 0.656751 0.795061
vt 0.140587 0.786273
vt 0.140587 0.786273
vt 0.140587 0.786273
vt 0.140587 0.786273
vt 0.140587 0.786273
vt 0.140587 0.786273
vt 0.140587 0.786273
vt 0.140587 0.786273
vt 0.140587 0.786273
vt 0.140587 0.786273
vt 0.140587 0.786273
vt 0.140587 0.786273
vt 0.140587 0.786273
vt 0.140587 0.786273
vt 0.140587 0.786273
vt 0.140587 0.786273
vt 0.140587 0.786273
vt 0.140587 0.786273
vt 0.140587 0.786273
vt 0.140587 0.786273
vt 0.140587 0.786273
vt 0.140587 0.786273
vt 0.140587 0.786273
vt 0.140587 0.786273
vt 0.140587 0.786273
vt 0.140587 0.786273
vt 0.140587 0.786273
vt 0.140587 0.786273
vt 0.140587 0.786273
vt 0.140587 0.786273
vt 0.140587 0.786273
vt 0.140587 0.786273
vt 0.140587 0.786273
vt 0.140587 0.786273
vt 0.140587 0.786273
vt 0.140587 0.786273
vt 0.140587 0.786273
vt 0.140587 0.786273
vt 0.140587 0.786273
vt 0.140587 0.786273
vt 0.140587 0.786273
vt 0.140587 0.786273
vt 0.140587 0.786273
vt 0.140587 0.786273
vt 0.140587 0.786273
vt 0.140587 0.786273
vt 0.140587 0.786273
vt 0.140587 0.786273
vt 0.140587 0.786273
vt 0.140587 0.786273
vt 0.140587 0.786273
vt 0.140587 0.786273
vt 0.140587 0.786273
vt 0.140587 0.786273
vt 0.140587 0.786273
vt 0.140587 0.786273
vt 0.140587 0.786273
vt 0.140587 0.786273
vt 0.140587 0.786273
vt 0.140587 0.786273
vt 0.140587 0.786273
vt 0.140587 0.786273
vt 0.140587 0.786273
vt 0.140587 0.786273
vt 0.140587 0.786273
vt 0.140587 0.786273
vt 0.140587 0.786273
vt 0.140587 0.786273
vt 0.140587 0.786273
vt 0.140587 0.786273
vt 0.140587 0.786273
vt 0.140587 0.786273
vt 0.140587 0.786273
vt 0.140587 0.786273
vt 0.140587 0.786273
vt 0.140587 0.786273
vt 0.140587 0.786273
vt 0.140587 0.786273
vt 0.140587 0.786273
vt 0.140587 0.786273
vt 0.140587 0.786273
vt 0.140587 0.786273
vt 0.140587 0.786273
vt 0.140587 0.786273
vt 0.140587 0.786273
vt 0.140587 0.786273
vt 0.140587 0.786273
vt 0.140587 0.786273
vt 0.140587 0.786273
vt 0.140587 0.786273
vt 0.140587 0.786273
vt 0.140587 0.786273
vt 0.140587 0.786273
vt 0.140587 0.786273
vt 0.140587 0.786273
vt 0.140587 0.786273
vt 0.140587 0.786273
vt 0.140587 0.786273
vt 0.140587 0.786273
vt 0.140587 0.786273
vt 0.140587 0.786273
vt 0.140587 0.786273
vt 0.140587 0.786273
vn 0.9797 0.2002 -0.0000
vn 0.9798 0.2001 0.0000
vn -0.9963 0.0860 0.0000
vn 0.4910 0.1885 -0.8505
vn 0.0183 0.1606 0.9869
vn 0.4928 0.1692 0.8535
vn -0.0213 0.1581 0.9872
vn -0.4959 0.1272 -0.8590
vn 0.9779 0.2089 0.0000
vn 0.4783 -0.2700 -0.8356
vn -0.9826 -0.1860 -0.0000
vn 0.4952 0.1041 -0.8625
vn 0.0607 0.0247 0.9979
vn 0.4949 0.1084 0.8622
vn -0.0416 0.0046 0.9991
vn -0.4961 -0.0910 -0.8635
vn -0.0480 0.2443 0.9685
vn 0.5003 0.1556 0.8518
vn 0.0042 0.2392 0.9710
vn -0.5005 -0.1506 -0.8525
vn 0.9928 -0.1197 0.0015
vn -0.9935 0.1134 -0.0014
vn -0.4801 0.2592 0.8380
vn -0.4964 -0.0866 0.8637
vn -0.4971 0.1074 0.8610
vn 0.8602 -0.2380 -0.4509
vn -0.6184 -0.7354 0.2771
vn 0.1826 0.2572 -0.9490
vn 0.9986 -0.0021 0.0527
vn 0.7593 0.0344 0.6499
vn 0.4376 -0.1516 -0.8863
vn 0.4173 0.1707 0.8926
vn 0.4187 -0.2607 -0.8699
vn -0.0549 0.0318 0.9980
vn -0.6430 0.2812 0.7123
vn -0.4867 0.5998 -0.6351
vn 0.7582 0.4177 0.5006
vn 0.4538 0.5852 -0.6720
vn 0.9619 -0.2454 0.1204
vn 0.2883 0.1407 0.9471
vn -0.8463 0.1587 0.5085
vn 0.6091 0.3930 0.6888
vn -0.2494 -0.2386 -0.9385
vn 0.9499 -0.2038 0.2371
vn 0.4031 0.5062 0.7624
vn -0.8472 0.5080 0.1556
vn 0.1278 -0.9674 0.2188
vn 0.3610 -0.4172 -0.8340
vn -0.4838 0.3667 -0.7947
vn -0.4593 0.7852 -0.4154
vn -0.8429 -0.5305 0.0900
vn 0.0747 0.3096 0.9479
vn 0.6018 -0.7956 -0.0704
vn 0.8406 -0.5132 0.1735
vn 0.9899 -0.1362 0.0401
vn 0.9899 -0.1362 0.0403
vn 0.3806 0.1477 0.9129
vn -0.5801 -0.0986 -0.8085
vn 0.8277 0.2109 -0.5200
vn 0.4511 -0.3982 -0.7987
vn -0.8038 -0.0939 0.5874
vn 0.0636 -0.8803 0.4701
vn -0.5960 0.4096 -0.6907
vn -0.7198 -0.6893 -0.0825
vn 0.7421 0.3678 0.5604
vn 0.8467 0.0819 0.5257
vn -0.9699 0.1066 -0.2191
vn -0.5888 0.1045 -0.8015
vn 0.4956 -0.2277 -0.8382
vn 0.0607 -0.7508 0.6577
vn -0.9205 -0.2705 -0.2820
vn -0.9749 -0.1801 0.1306
vn 0.9191 -0.3536 -0.1736
vn -0.1978 -0.6878 -0.6984
vn -0.7065 0.5427 0.4542
vn 0.0701 0.4329 -0.8987
vn -0.0266 -0.0080 0.9996
vn 0.6487 -0.3426 -0.6796
vn -0.8313 -0.4062 0.3794
vn -0.8777 0.1979 -0.4364
vn -0.0067 -0.1015 0.9948
vn -0.4197 -0.6374 0.6462
vn 0.4810 -0.1239 0.8679
vn 0.1944 -0.5923 -0.7819
vn 0.7505 0.5266 0.3993
vn -0.9731 0.2301 -0.0114
vn -0.5658 0.5027 0.6536
vn 0.1294 -0.2159 -0.9678
vn 0.1094 0.2487 -0.9624
vn 0.9510 -0.0974 0.2935
vn -0.4323 0.4024 -0.8070
vn -0.3092 0.9387 -0.1527
vn -0.8525 -0.0004 0.5227
vn -0.2397 -0.6294 -0.7392
vn -0.1088 0.3722 0.9218
vn 0.4442 -0.8897 -0.1054
vn -0.3129 0.7684 -0.5583
vn -0.9320 0.1277 -0.3393
vn -0.3012 0.5525 0.7772
vn -0.8512 0.0908 0.5168
vn 0.1386 -0.9794 -0.1469
vn -0.5986 -0.3326 -0.7287
vn -0.6118 0.7892 0.0539
vn -0.8630 0.4686 -0.1887
vn -0.2315 -0.5627 -0.7936
vn 0.7503 0.3695 0.5483
vn 0.0175 -0.3170 -0.9483
vn -0.8380 0.4997 0.2193
vn -0.3171 -0.4626 0.8279
vn 0.2352 -0.7735 0.5886
vn 0.8809 0.0190 0.4729
vn -0.0840 -0.4768 0.8750
vn -0.8552 0.5170 -0.0357
vn 0.8259 0.2809 0.4888
vn 0.8252 0.2808 0.4902
vn 0.8203 0.2799 0.4988
vn 0.6134 0.3604 0.7027
vn -0.7065 -0.1105 -0.6990
vn 0.1114 0.7338 -0.6701
vn -0.9174 -0.3976 0.0168
vn 0.7060 0.2249 -0.6716
vn 0.8022 -0.5957 0.0411
vn -0.7682 0.5122 -0.3841
vn 0.8476 -0.0899 0.5230
vn -0.2558 0.3939 -0.8828
vn -0.0183 -0.9524 -0.3044
vn 0.9560 -0.1785 -0.2328
vn 0.2058 -0.1384 0.9687
vn -0.5779 -0.7813 -0.2359
vn 0.9444 -0.2086 0.2542
vn 0.5844 0.2906 0.7576
vn -0.3689 0.5445 -0.7533
vn -0.8959 -0.0749 0.4379
vn -0.5650 0.6068 -0.5591
vn 0.5097 -0.6306 0.5853
vn 0.7269 -0.1881 0.6604
vn -0.9387 0.3123 -0.1458
vn -0.4160 0.0263 -0.9090
vn -0.6336 -0.6327 -0.4453
vn -0.6434 -0.3934 -0.6567
vn 0.4504 -0.6000 -0.6611
vn -0.6982 -0.6372 0.3263
vn -0.5138 0.4568 0.7262
vn -0.6585 -0.5680 -0.4937
vn -0.7854 0.3649 -0.5000
vn 0.5147 0.3577 0.7792
vn 0.7336 0.4333 -0.5235
vn 0.8265 0.2810 0.4878
vn 0.2865 0.2575 0.9228
vn 0.9473 -0.2779 -0.1591
vn 0.6755 0.0222 0.7370
vn 0.9987 -0.0506 0.0016
vn -0.3873 0.5012 -0.7738
vn 0.1305 0.5564 -0.8206
vn 0.9899 -0.1365 0.0381
vn 0.7515 -0.4019 -0.5232
vn 0.2837 -0.2750 -0.9186
vn 0.1418 -0.1093 -0.9838
vn 0.3664 -0.9265 -0.0861
vn 0.0429 -0.9780 0.2043
vn -0.2884 -0.2608 -0.9213
vn -0.0918 0.3150 0.9446
vn 0.0123 0.6391 0.7690
vn 0.6623 0.5381 -0.5214
vn 0.7420 0.1796 -0.6459
vn -0.7093 0.6224 -0.3309
vn -0.7509 0.6580 0.0559
vn 0.2118 0.3381 0.9170
vn 0.0967 0.7635 -0.6385
vn 0.7114 0.6664 -0.2231
vn 0.2081 -0.0422 0.9772
vn 0.6918 -0.0374 0.7211
vn 0.1235 0.7517 0.6478
vn 0.7446 0.5170 -0.4222
vn -0.1710 -0.1085 0.9793
vn -0.0170 -0.1840 0.9828
vn -0.7340 -0.1500 0.6624
usemtl rpgpp_lt_mat_a.002
s 1
f 9/1/1 10/2/1 15/3/2 14/4/2
f 2/5/3 3/6/3 8/7/3 6/8/3
f 5/9/4 1/10/4 7/11/4 10/2/4
f 21/12/5 4/13/6 9/1/6 22/14/7
f 1/10/8 2/5/8 6/8/8 7/11/8
f 4/13/9 5/9/9 10/2/1 9/1/1
f 15/3/10 12/15/10 17/16/10 20/17/10
f 6/8/11 8/7/11 13/18/11 11/19/11
f 10/2/12 7/11/12 12/15/12 15/3/12
f 22/14/13 9/1/14 14/4/14 23/20/15
f 7/11/16 6/8/16 11/19/16 12/15/16
f 23/20/17 14/4/18 19/21/18 24/22/19
f 12/15/20 11/19/20 16/23/20 17/16/20
f 14/4/21 15/3/21 20/17/21 19/21/21
f 11/19/22 13/18/22 18/24/22 16/23/22
f 13/18/23 23/20/17 24/22/19 18/24/23
f 8/7/24 22/14/13 23/20/15 13/18/24
f 3/6/25 21/12/5 22/14/7 8/7/25
f 112/25/26 105/26/26 60/27/26
f 85/28/27 36/29/27 98/30/27
f 45/31/28 124/32/28 73/33/28 100/34/28
f 76/35/29 53/36/29 56/37/29 113/38/29
f 121/39/30 108/40/30 53/36/30
f 118/41/31 109/42/31 57/43/31 75/44/31
f 121/39/32 69/45/32 108/40/32
f 109/42/33 118/41/33 62/46/33
f 79/47/34 82/48/34 114/49/34 34/50/34
f 78/51/35 44/52/35 32/53/35
f 77/54/36 97/55/36 49/56/36 123/57/36
f 83/58/37 125/59/37 64/60/37 48/61/37
f 51/62/38 91/63/38 38/64/38 83/58/38
f 63/65/39 86/66/39 43/67/39
f 69/45/40 32/53/40 111/68/40 108/40/40
f 78/51/41 33/69/41 99/70/41 44/52/41
f 108/40/42 117/71/42 50/72/42 53/36/42
f 47/73/43 26/74/43 54/75/43
f 43/67/44 86/66/44 37/76/44
f 72/77/45 106/78/45 69/45/45 40/79/45
f 58/80/46 33/69/46 61/81/46
f 42/82/47 95/83/47 98/30/47 36/29/47
f 62/46/48 73/33/48 124/32/48 109/42/48
f 55/84/49 27/85/49 77/54/49 123/57/49
f 28/86/50 97/55/50 115/87/50 100/34/50
f 71/88/51 107/89/51 104/90/51 85/28/51
f 64/60/52 72/77/52 40/79/52
f 119/91/53 105/26/53 29/92/53
f 63/65/54 119/91/54 86/66/54
f 37/76/55 96/93/55 43/67/56
f 50/72/57 117/71/57 114/49/57 90/94/57
f 47/73/58 68/95/58 35/96/58 120/97/58
f 70/98/59 122/99/59 93/100/59
f 109/42/60 124/32/60 70/98/60 60/27/60
f 44/52/61 99/70/61 46/101/61
f 98/30/62 95/83/62 59/102/62 30/103/62
f 81/104/63 28/86/63 84/105/63
f 104/90/64 92/106/64 36/29/64 85/28/64
f 76/35/65 64/60/65 121/39/65
f 121/39/66 53/36/66 76/35/66
f 52/107/67 94/108/67 102/109/67 68/95/67
f 35/96/68 81/104/68 120/97/68
f 57/43/69 109/42/69 60/27/69 105/26/69
f 82/48/70 95/83/70 119/91/70 101/110/70
f 68/95/71 107/89/71 52/107/71
f 65/111/72 71/88/72 46/101/72
f 29/92/73 112/25/73 37/76/73 86/66/73
f 92/106/74 25/112/74 54/75/74
f 39/113/75 94/108/75 33/69/75 58/80/75
f 27/85/76 91/63/76 51/62/76
f 34/50/77 114/49/77 117/71/77 111/68/77
f 116/114/78 60/27/78 70/98/78 93/100/78
f 52/107/79 107/89/79 71/88/79 65/111/79
f 41/115/80 55/84/80 87/116/80
f 32/53/81 44/52/81 111/68/81
f 88/117/82 30/103/82 59/102/82
f 80/118/83 126/119/83 31/120/83 113/38/83
f 57/43/84 89/121/84 66/122/84 75/44/84
f 43/67/85 56/37/85 53/36/85 50/72/85
f 61/81/86 41/115/86 87/116/86
f 127/123/87 41/115/87 61/81/87
f 62/46/88 26/74/88 120/97/88
f 103/124/89 100/34/89 73/33/89
f 50/72/90 63/65/90 43/67/90
f 84/105/91 28/86/91 100/34/91 103/124/91
f 127/123/92 125/59/92 41/115/92
f 94/108/93 52/107/93 65/111/93
f 26/74/94 66/122/94 92/106/94 54/75/94
f 72/77/95 64/60/95 127/123/95 61/81/95
f 105/26/96 119/91/96 89/121/96
f 91/63/97 55/84/97 41/115/97 125/59/97
f 102/109/98 35/96/98 68/95/98
f 72/77/99 61/81/99 78/51/99 106/78/99
f 65/111/100 99/70/100 33/69/100 94/108/100
f 36/29/101 66/122/101 89/121/101 42/82/101
f 54/75/102 107/89/102 68/95/102 47/73/102
f 39/113/103 58/80/103 74/125/103
f 87/116/104 55/84/104 123/57/104
f 75/44/105 66/122/105 26/74/105
f 64/60/106 76/35/106 48/61/106
f 120/97/107 103/124/107 73/33/107 62/46/107
f 78/51/108 61/81/108 33/69/108
f 79/47/109 88/117/109 59/102/109
f 95/83/110 82/48/110 59/102/110
f 80/118/111 113/38/111 56/37/111
f 79/47/112 59/102/112 82/48/112
f 58/80/113 61/81/113 87/116/113 123/57/113
f 31/120/114 83/58/115 48/61/116
f 110/126/117 31/120/117 67/127/117
f 84/105/118 120/97/118 81/104/118
f 51/62/119 45/31/119 100/34/119 115/87/119
f 46/101/120 71/88/120 85/28/120
f 124/32/121 45/31/121 122/99/121 70/98/121
f 86/66/122 119/91/122 29/92/122
f 49/56/123 102/109/123 39/113/123 74/125/123
f 90/94/124 63/65/124 50/72/124
f 91/63/125 27/85/125 55/84/125
f 36/29/126 92/106/126 66/122/126
f 67/127/127 116/114/127 93/100/127
f 114/49/128 82/48/128 101/110/128 90/94/128
f 30/103/129 85/28/129 98/30/129
f 67/127/130 96/93/130 116/114/130
f 31/120/131 126/119/131 67/127/131
f 115/87/132 97/55/132 77/54/132
f 99/70/133 65/111/133 46/101/133
f 49/56/134 97/55/134 28/86/134 81/104/134
f 63/65/135 101/110/135 119/91/135
f 101/110/136 63/65/136 90/94/136
f 102/109/137 94/108/137 39/113/137
f 103/124/138 120/97/138 84/105/138
f 104/90/139 25/112/139 92/106/139
f 25/112/140 107/89/140 54/75/140
f 105/26/141 89/121/141 57/43/141
f 30/103/142 88/117/142 46/101/142 85/28/142
f 78/51/143 32/53/143 106/78/143
f 107/89/144 25/112/144 104/90/144
f 81/104/145 35/96/145 102/109/145 49/56/145
f 80/118/146 56/37/146 43/67/146 96/93/146
f 51/62/147 83/58/147 110/126/147
f 31/120/114 110/126/148 83/58/115
f 108/40/149 111/68/149 117/71/149
f 105/26/150 112/25/150 29/92/150
f 31/120/151 48/61/151 113/38/151
f 113/38/152 48/61/152 76/35/152
f 77/54/153 27/85/153 115/87/153
f 27/85/154 51/62/154 115/87/154
f 37/76/55 116/114/155 96/93/55
f 116/114/156 37/76/156 112/25/156 60/27/156
f 62/46/157 118/41/157 26/74/157
f 26/74/158 118/41/158 75/44/158
f 42/82/159 89/121/159 119/91/159
f 95/83/160 42/82/160 119/91/160
f 120/97/161 26/74/161 47/73/161
f 121/39/162 64/60/162 40/79/162
f 121/39/163 40/79/163 69/45/163
f 122/99/164 110/126/164 67/127/164
f 122/99/165 67/127/165 93/100/165
f 49/56/166 74/125/166 123/57/166
f 123/57/167 74/125/167 58/80/167
f 106/78/168 32/53/168 69/45/168
f 91/63/169 125/59/169 38/64/169
f 83/58/170 38/64/170 125/59/170
f 80/118/171 96/93/171 126/119/171
f 96/93/172 67/127/172 126/119/172
f 127/123/173 64/60/173 125/59/173
f 122/99/174 45/31/174 51/62/174 110/126/174
f 44/52/175 88/117/175 79/47/175 34/50/175
f 44/52/176 34/50/176 111/68/176
f 46/101/177 88/117/177 44/52/177
